%TF.GenerationSoftware,Altium Limited,Altium Designer,25.4.2 (15)*%
G04 Layer_Physical_Order=1*
G04 Layer_Color=255*
%FSLAX45Y45*%
%MOMM*%
%TF.SameCoordinates,3CA1961E-9661-47C5-9BAE-CD2B19B8C498*%
%TF.FilePolarity,Positive*%
%TF.FileFunction,Copper,L1,Top,Signal*%
%TF.Part,Single*%
G01*
G75*
%TA.AperFunction,SMDPad,CuDef*%
%ADD10R,7.50000X3.00000*%
%ADD11R,1.60000X3.50000*%
%ADD12R,4.10000X4.10000*%
%ADD13R,0.90000X0.60000*%
%ADD14R,0.80000X0.80000*%
%ADD15R,0.80000X0.80000*%
%ADD16R,0.60000X0.90000*%
%ADD17R,1.27000X0.60960*%
%ADD18C,3.35614*%
G04:AMPARAMS|DCode=19|XSize=3mm|YSize=4mm|CornerRadius=0.75mm|HoleSize=0mm|Usage=FLASHONLY|Rotation=90.000|XOffset=0mm|YOffset=0mm|HoleType=Round|Shape=RoundedRectangle|*
%AMROUNDEDRECTD19*
21,1,3.00000,2.50000,0,0,90.0*
21,1,1.50000,4.00000,0,0,90.0*
1,1,1.50000,1.25000,0.75000*
1,1,1.50000,1.25000,-0.75000*
1,1,1.50000,-1.25000,-0.75000*
1,1,1.50000,-1.25000,0.75000*
%
%ADD19ROUNDEDRECTD19*%
%ADD20R,0.60960X1.27000*%
%ADD21R,3.50000X1.60000*%
G04:AMPARAMS|DCode=22|XSize=3mm|YSize=4mm|CornerRadius=0.75mm|HoleSize=0mm|Usage=FLASHONLY|Rotation=0.000|XOffset=0mm|YOffset=0mm|HoleType=Round|Shape=RoundedRectangle|*
%AMROUNDEDRECTD22*
21,1,3.00000,2.50000,0,0,0.0*
21,1,1.50000,4.00000,0,0,0.0*
1,1,1.50000,0.75000,-1.25000*
1,1,1.50000,-0.75000,-1.25000*
1,1,1.50000,-0.75000,1.25000*
1,1,1.50000,0.75000,1.25000*
%
%ADD22ROUNDEDRECTD22*%
%ADD23C,3.68719*%
%ADD24R,0.50000X0.65000*%
%ADD25R,1.28000X1.04000*%
%ADD26R,0.90000X1.30000*%
G04:AMPARAMS|DCode=27|XSize=1.55439mm|YSize=0.57213mm|CornerRadius=0.28606mm|HoleSize=0mm|Usage=FLASHONLY|Rotation=0.000|XOffset=0mm|YOffset=0mm|HoleType=Round|Shape=RoundedRectangle|*
%AMROUNDEDRECTD27*
21,1,1.55439,0.00000,0,0,0.0*
21,1,0.98226,0.57213,0,0,0.0*
1,1,0.57213,0.49113,0.00000*
1,1,0.57213,-0.49113,0.00000*
1,1,0.57213,-0.49113,0.00000*
1,1,0.57213,0.49113,0.00000*
%
%ADD27ROUNDEDRECTD27*%
%ADD28R,1.55439X0.57213*%
%ADD29R,3.40000X2.10000*%
%TA.AperFunction,BGAPad,CuDef*%
%ADD30R,0.10000X0.10000*%
%TA.AperFunction,SMDPad,CuDef*%
%ADD31R,0.30000X0.70000*%
%TA.AperFunction,BGAPad,CuDef*%
%ADD32R,0.10000X0.10000*%
%TA.AperFunction,SMDPad,CuDef*%
%ADD33R,0.70000X0.30000*%
%ADD34R,1.60000X0.90000*%
%ADD35R,1.30000X1.40000*%
G04:AMPARAMS|DCode=36|XSize=3.6mm|YSize=4.6mm|CornerRadius=0.054mm|HoleSize=0mm|Usage=FLASHONLY|Rotation=90.000|XOffset=0mm|YOffset=0mm|HoleType=Round|Shape=RoundedRectangle|*
%AMROUNDEDRECTD36*
21,1,3.60000,4.49200,0,0,90.0*
21,1,3.49200,4.60000,0,0,90.0*
1,1,0.10800,2.24600,1.74600*
1,1,0.10800,2.24600,-1.74600*
1,1,0.10800,-2.24600,-1.74600*
1,1,0.10800,-2.24600,1.74600*
%
%ADD36ROUNDEDRECTD36*%
G04:AMPARAMS|DCode=37|XSize=0.25mm|YSize=0.6mm|CornerRadius=0.05mm|HoleSize=0mm|Usage=FLASHONLY|Rotation=90.000|XOffset=0mm|YOffset=0mm|HoleType=Round|Shape=RoundedRectangle|*
%AMROUNDEDRECTD37*
21,1,0.25000,0.50000,0,0,90.0*
21,1,0.15000,0.60000,0,0,90.0*
1,1,0.10000,0.25000,0.07500*
1,1,0.10000,0.25000,-0.07500*
1,1,0.10000,-0.25000,-0.07500*
1,1,0.10000,-0.25000,0.07500*
%
%ADD37ROUNDEDRECTD37*%
G04:AMPARAMS|DCode=38|XSize=0.6mm|YSize=0.25mm|CornerRadius=0.05mm|HoleSize=0mm|Usage=FLASHONLY|Rotation=90.000|XOffset=0mm|YOffset=0mm|HoleType=Round|Shape=RoundedRectangle|*
%AMROUNDEDRECTD38*
21,1,0.60000,0.15000,0,0,90.0*
21,1,0.50000,0.25000,0,0,90.0*
1,1,0.10000,0.07500,0.25000*
1,1,0.10000,0.07500,-0.25000*
1,1,0.10000,-0.07500,-0.25000*
1,1,0.10000,-0.07500,0.25000*
%
%ADD38ROUNDEDRECTD38*%
%ADD39R,0.75000X1.25000*%
%ADD40R,0.65000X0.50000*%
%ADD41R,0.90000X1.60000*%
%TA.AperFunction,Conductor*%
%ADD42C,0.50000*%
%ADD43C,0.25000*%
%ADD44C,0.20000*%
%ADD45C,0.30000*%
%ADD46C,0.25400*%
%TA.AperFunction,ComponentPad*%
%ADD47R,1.20000X1.20000*%
%ADD48C,1.20000*%
%ADD49C,1.52000*%
G04:AMPARAMS|DCode=50|XSize=1.52mm|YSize=1.52mm|CornerRadius=0.38mm|HoleSize=0mm|Usage=FLASHONLY|Rotation=90.000|XOffset=0mm|YOffset=0mm|HoleType=Round|Shape=RoundedRectangle|*
%AMROUNDEDRECTD50*
21,1,1.52000,0.76000,0,0,90.0*
21,1,0.76000,1.52000,0,0,90.0*
1,1,0.76000,0.38000,0.38000*
1,1,0.76000,0.38000,-0.38000*
1,1,0.76000,-0.38000,-0.38000*
1,1,0.76000,-0.38000,0.38000*
%
%ADD50ROUNDEDRECTD50*%
%ADD51C,1.60000*%
G04:AMPARAMS|DCode=52|XSize=1.6mm|YSize=1.6mm|CornerRadius=0.4mm|HoleSize=0mm|Usage=FLASHONLY|Rotation=270.000|XOffset=0mm|YOffset=0mm|HoleType=Round|Shape=RoundedRectangle|*
%AMROUNDEDRECTD52*
21,1,1.60000,0.80000,0,0,270.0*
21,1,0.80000,1.60000,0,0,270.0*
1,1,0.80000,-0.40000,-0.40000*
1,1,0.80000,-0.40000,0.40000*
1,1,0.80000,0.40000,0.40000*
1,1,0.80000,0.40000,-0.40000*
%
%ADD52ROUNDEDRECTD52*%
%TA.AperFunction,ViaPad*%
%ADD53C,0.60000*%
%ADD54C,0.50000*%
G36*
X9608182Y8778354D02*
Y8468194D01*
X9569988Y8430000D01*
X9450000Y8430000D01*
X9290000Y8590000D01*
X8776943D01*
X8739127Y8627816D01*
Y8759127D01*
X8800000Y8820000D01*
X9566536D01*
X9608182Y8778354D01*
D02*
G37*
G36*
X10578931Y8661069D02*
Y8348931D01*
X10470000Y8240000D01*
X9670000D01*
X9630000Y8280000D01*
Y8775991D01*
X9645156Y8791148D01*
D01*
D01*
X9684008Y8830000D01*
X10410000D01*
X10578931Y8661069D01*
D02*
G37*
G36*
X15089609Y4729413D02*
X13045448D01*
X13043326Y4733440D01*
X13041554Y4742113D01*
X13139720Y4840279D01*
X13143747Y4850000D01*
X13143745Y4850000D01*
Y5280000D01*
X13139720Y5289720D01*
X13139720Y5289721D01*
X13059720Y5369720D01*
X13057304Y5370721D01*
X13054903Y5385462D01*
X13084192Y5414750D01*
X13084193Y5414751D01*
X13088220Y5424471D01*
X13088219Y5424473D01*
Y5555527D01*
X13084193Y5565248D01*
X13069720Y5579720D01*
X13064841Y5584600D01*
X13065022Y5587013D01*
X13070100Y5597300D01*
X13078494D01*
X13094186Y5603801D01*
X13106200Y5615812D01*
X13112700Y5631506D01*
Y5648493D01*
X13106200Y5664187D01*
X13094186Y5676199D01*
X13084700Y5680129D01*
Y5765200D01*
X13011453Y5765200D01*
X13002972Y5768468D01*
X12998837Y5770603D01*
X12984920Y5784520D01*
X12989780Y5796254D01*
X13114307D01*
X13175159Y5735400D01*
X13169899Y5722700D01*
X13161507D01*
X13145813Y5716199D01*
X13133801Y5704187D01*
X13127299Y5688494D01*
Y5671507D01*
X13133801Y5655813D01*
X13145813Y5643801D01*
X13161507Y5637300D01*
X13172758D01*
X13255029Y5555030D01*
X13255029Y5555029D01*
X13264192Y5548907D01*
X13275000Y5546757D01*
X13275002Y5546757D01*
X13342300D01*
Y5532300D01*
X13376756D01*
Y5432700D01*
X13352299D01*
Y5327300D01*
X13457700D01*
Y5351757D01*
X14277299D01*
Y5332300D01*
X14382700D01*
Y5437700D01*
X14277299D01*
Y5408243D01*
X13457700D01*
Y5432700D01*
X13433243D01*
Y5532300D01*
X13457700D01*
Y5617700D01*
X13342300D01*
Y5603243D01*
X13286699D01*
X13220541Y5669400D01*
X13220982Y5671616D01*
X13234763Y5675797D01*
X13240280Y5670280D01*
X13250000Y5666253D01*
X13250000Y5666254D01*
X13330553D01*
X13331834Y5666784D01*
X13333194Y5666510D01*
X13344942Y5668810D01*
X13348299Y5671038D01*
X13352020Y5672580D01*
X13352551Y5673862D01*
X13353706Y5674629D01*
X13354504Y5678578D01*
X13356046Y5682300D01*
X13443954D01*
X13445496Y5678578D01*
X13446294Y5674629D01*
X13447449Y5673862D01*
X13447980Y5672580D01*
X13451703Y5671038D01*
X13455058Y5668810D01*
X13466806Y5666510D01*
X13468166Y5666784D01*
X13469447Y5666254D01*
X13580000D01*
X13589720Y5670280D01*
X13589722Y5670280D01*
X13759720Y5840280D01*
X13763747Y5850000D01*
X13763747Y5850000D01*
Y6089999D01*
X13763747Y6090000D01*
X13759721Y6099721D01*
X13759718Y6099721D01*
X13599719Y6259720D01*
X13589999Y6263747D01*
X13589999Y6263746D01*
X13365694D01*
X13203748Y6425694D01*
Y6517906D01*
X13215813Y6523801D01*
X13231506Y6517300D01*
X13248492D01*
X13253552Y6519396D01*
X13266254Y6510910D01*
Y6410001D01*
X13266254Y6410000D01*
X13270279Y6400279D01*
X13270280Y6400279D01*
X13350281Y6320280D01*
X13360001Y6316253D01*
X13360001Y6316254D01*
X13664307D01*
X14120280Y5860280D01*
X14130000Y5856253D01*
X14130000Y5856253D01*
X14494305D01*
X14630280Y5720280D01*
X14639999Y5716253D01*
X14639999Y5716253D01*
X14939999D01*
X14949719Y5720280D01*
X14949721Y5720280D01*
X15069720Y5840280D01*
X15073747Y5850000D01*
X15073747Y5850000D01*
Y6379999D01*
X15073747Y6380000D01*
X15069720Y6389720D01*
X14959720Y6499720D01*
X14950000Y6503747D01*
X14950000Y6503746D01*
X14615694D01*
X14495711Y6623730D01*
X14494917Y6624917D01*
X14478439Y6641396D01*
Y6650000D01*
Y7435300D01*
X14516701D01*
Y7564700D01*
X14363300D01*
Y7435300D01*
X14401561D01*
Y6665922D01*
X14379385Y6643746D01*
X13885693D01*
X13769720Y6759720D01*
X13760001Y6763747D01*
X13759999Y6763746D01*
X13340001D01*
X13339999Y6763747D01*
X13330280Y6759721D01*
X13330280Y6759719D01*
X13270280Y6699720D01*
X13266254Y6690000D01*
X13266254Y6690000D01*
Y6609090D01*
X13253552Y6600604D01*
X13248492Y6602700D01*
X13231506D01*
X13215813Y6596199D01*
X13203748Y6602094D01*
Y7540000D01*
X13199719Y7549720D01*
X13119720Y7629720D01*
X13110001Y7633747D01*
X13109999Y7633746D01*
X12790001D01*
X12790000Y7633747D01*
X12780280Y7629720D01*
X12365480Y7214920D01*
X12353746Y7219781D01*
Y7529999D01*
X12353747Y7530000D01*
X12349721Y7539721D01*
X12349719Y7539721D01*
X12289720Y7599720D01*
X12280000Y7603747D01*
X12280000Y7603747D01*
X11765694D01*
X11599720Y7769720D01*
X11590000Y7773747D01*
X11589999Y7773746D01*
X11260000D01*
X11250280Y7769720D01*
X11170280Y7689720D01*
X11166253Y7680000D01*
X11166254Y7679999D01*
Y7200001D01*
X11166253Y7200000D01*
X11170280Y7190280D01*
X11410280Y6950280D01*
X11420000Y6946253D01*
X11420001Y6946254D01*
X11714306D01*
X12043914Y6616645D01*
X11795414Y6368145D01*
X11702700D01*
Y6397700D01*
X11597300D01*
Y6368145D01*
X11555000D01*
X11546143Y6366383D01*
X11538635Y6361366D01*
X11365942Y6188673D01*
X11356199Y6195813D01*
X11362700Y6211507D01*
Y6228494D01*
X11356199Y6244187D01*
X11344187Y6256199D01*
X11328493Y6262700D01*
X11311506D01*
X11295813Y6256199D01*
X11283801Y6244187D01*
X11281381Y6238345D01*
X11214860D01*
X11211332Y6244322D01*
X11218682Y6256855D01*
X11230000D01*
X11238857Y6258617D01*
X11246366Y6263634D01*
X11454587Y6471855D01*
X11597300D01*
Y6442300D01*
X11702700D01*
Y6547700D01*
X11668145D01*
Y6617300D01*
X11722700D01*
Y6782700D01*
X11567300D01*
Y6617300D01*
X11621855D01*
Y6547700D01*
X11597300D01*
Y6518145D01*
X11445000D01*
X11436143Y6516383D01*
X11428634Y6511366D01*
X11220413Y6303145D01*
X11172470D01*
X11167609Y6314878D01*
X11180464Y6327732D01*
X11181506Y6327300D01*
X11198493D01*
X11214187Y6333801D01*
X11226199Y6345813D01*
X11232700Y6361506D01*
Y6378493D01*
X11226199Y6394187D01*
X11214187Y6406199D01*
X11198493Y6412700D01*
X11181506D01*
X11165813Y6406199D01*
X11153801Y6394187D01*
X11147300Y6378493D01*
Y6361506D01*
X11147732Y6360464D01*
X11079416Y6292148D01*
X11065280Y6295972D01*
X11063830Y6301491D01*
X11065785Y6311323D01*
X11063830Y6321156D01*
X11058260Y6329492D01*
X11049924Y6335061D01*
X11040092Y6337017D01*
X11030259Y6335061D01*
X11021924Y6329492D01*
X11015845Y6323413D01*
X11013206Y6323594D01*
X11003145Y6327572D01*
Y6340413D01*
X11016366Y6353634D01*
X11016367Y6353635D01*
X11036366Y6373634D01*
X11041383Y6381143D01*
X11043145Y6390000D01*
Y6442300D01*
X11072700D01*
Y6471855D01*
X11255000D01*
X11263857Y6473617D01*
X11271366Y6478634D01*
X11356366Y6563634D01*
X11361383Y6571143D01*
X11363145Y6580000D01*
Y6617300D01*
X11432700D01*
Y6782700D01*
X11277300D01*
Y6617300D01*
X11316855D01*
Y6589587D01*
X11245413Y6518145D01*
X11072700D01*
Y6547700D01*
X10967300D01*
Y6452798D01*
X10958493Y6442700D01*
X10955400Y6442700D01*
X10942700Y6444231D01*
Y6547700D01*
X10870032D01*
X10838132Y6579600D01*
X10843393Y6592300D01*
X10847476Y6592300D01*
X10875000D01*
Y6606801D01*
X10905000D01*
Y6592300D01*
X10942700D01*
Y6630000D01*
X10928199D01*
Y6660000D01*
X10942700D01*
Y6697700D01*
X10905000D01*
Y6683199D01*
X10875000D01*
Y6697700D01*
X10837300D01*
Y6660000D01*
X10851801D01*
Y6630000D01*
X10837300D01*
Y6602802D01*
X10837300Y6598393D01*
X10824600Y6593132D01*
X10733145Y6684587D01*
Y6740000D01*
X10731383Y6748857D01*
X10726366Y6756366D01*
X10646366Y6836366D01*
X10638857Y6841383D01*
X10630000Y6843145D01*
X10450000D01*
X10441143Y6841383D01*
X10433634Y6836366D01*
X10344433Y6747165D01*
X10332700Y6752025D01*
Y6782700D01*
X10177300D01*
Y6617300D01*
X10332700D01*
Y6685140D01*
X10338284D01*
X10347142Y6686901D01*
X10354650Y6691919D01*
X10459587Y6796855D01*
X10608725D01*
X10609697Y6795400D01*
X10602909Y6782700D01*
X10467300D01*
Y6617300D01*
X10521855D01*
Y6565000D01*
X10523617Y6556143D01*
X10528634Y6548634D01*
X10551855Y6525413D01*
Y6502700D01*
X10522300D01*
Y6397300D01*
X10594969D01*
X10658635Y6333634D01*
X10666143Y6328617D01*
X10675000Y6326855D01*
X10683278D01*
X10690387Y6314155D01*
X10686160Y6303952D01*
Y6286965D01*
X10692661Y6271271D01*
X10701054Y6262878D01*
X10704668Y6258089D01*
X10704628Y6247106D01*
X10703254Y6240200D01*
Y6238345D01*
X10584387D01*
X10448145Y6374587D01*
Y6397300D01*
X10477700D01*
Y6502700D01*
X10372300D01*
Y6473145D01*
X9979587D01*
X9846086Y6606645D01*
X10049720Y6810279D01*
X10049721Y6810280D01*
X10225694Y6986253D01*
X10560000D01*
X10569720Y6990280D01*
X10569721Y6990280D01*
X10739720Y7160280D01*
X10743747Y7170000D01*
X10743746Y7170000D01*
Y7670000D01*
X10739720Y7679720D01*
X10739720Y7679721D01*
X10699720Y7719720D01*
X10690000Y7723747D01*
X10689999Y7723747D01*
X9740000D01*
X9730280Y7719720D01*
X9650280Y7639720D01*
X9646253Y7630000D01*
X9646254Y7629999D01*
Y7200000D01*
X9650280Y7190279D01*
X9655159Y7185400D01*
X9649899Y7172700D01*
X9649207D01*
X9633513Y7166199D01*
X9621501Y7154187D01*
X9615000Y7138493D01*
Y7121506D01*
X9618603Y7112810D01*
X9613634Y7107842D01*
X9608617Y7100333D01*
X9606855Y7091476D01*
Y7040180D01*
X9553800D01*
Y6966447D01*
X9550003Y6953759D01*
X9549999Y6953747D01*
X9547153Y6952568D01*
X9547153D01*
X9540279Y6949720D01*
X9540279Y6949720D01*
X9516447Y6925887D01*
X9503747Y6931147D01*
Y7690000D01*
X9499720Y7699720D01*
X9183746Y8015694D01*
Y8499999D01*
X9183747Y8500000D01*
X9179721Y8509721D01*
X9179719Y8509721D01*
X9125887Y8563554D01*
X9131148Y8576254D01*
X9284306D01*
X9440280Y8420280D01*
X9450000Y8416253D01*
X9450001Y8416253D01*
X9468948D01*
X9478132Y8404838D01*
X9476250Y8399665D01*
X9475476Y8398891D01*
X9365157D01*
Y8447379D01*
X9264756D01*
Y8296979D01*
X9268632D01*
X9273893Y8284279D01*
X9273801Y8284187D01*
X9267300Y8268493D01*
Y8251506D01*
X9273801Y8235813D01*
X9285813Y8223801D01*
X9301506Y8217300D01*
X9318493D01*
X9334187Y8223801D01*
X9346199Y8235813D01*
X9352700Y8251506D01*
Y8268493D01*
X9346199Y8284187D01*
X9346107Y8284279D01*
X9351368Y8296979D01*
X9365157D01*
Y8342405D01*
X9484456D01*
Y8332948D01*
X9574856D01*
Y8404523D01*
X9574857Y8407368D01*
X9575251Y8409679D01*
X9578210Y8419659D01*
X9579708Y8420279D01*
Y8420280D01*
X9604520Y8445092D01*
X9616254Y8440232D01*
Y8282013D01*
X9571832Y8237591D01*
X9566262Y8229256D01*
X9564306Y8219423D01*
Y7914693D01*
X9553801Y7904187D01*
X9547300Y7888493D01*
Y7871506D01*
X9553801Y7855813D01*
X9565813Y7843801D01*
X9581507Y7837300D01*
X9598494D01*
X9614188Y7843801D01*
X9626199Y7855813D01*
X9632700Y7871506D01*
Y7888493D01*
X9626199Y7904187D01*
X9615694Y7914693D01*
Y8208781D01*
X9640931Y8234018D01*
X9656541D01*
X9660280Y8230280D01*
X9670000Y8226253D01*
X9670000Y8226254D01*
X10470000D01*
X10479720Y8230280D01*
X10479720Y8230280D01*
X10588652Y8339211D01*
X10592678Y8348931D01*
X10592678Y8348932D01*
Y8461561D01*
X10974078D01*
X11462820Y7972820D01*
X11475290Y7964487D01*
X11490000Y7961561D01*
X11490001Y7961561D01*
X12093300D01*
Y7935300D01*
X12246700D01*
Y8064700D01*
X12093300D01*
Y8038439D01*
X11505922D01*
X11017180Y8527180D01*
X11004710Y8535513D01*
X10990000Y8538439D01*
X10989999Y8538439D01*
X10592678D01*
Y8661069D01*
X10588652Y8670789D01*
X10588651Y8670789D01*
X10419720Y8839720D01*
X10410000Y8843747D01*
X10409999Y8843747D01*
X9684009D01*
X9684007Y8843748D01*
X9674287Y8839721D01*
X9674286Y8839719D01*
X9635437Y8800869D01*
X9635436Y8800868D01*
X9635436Y8800868D01*
X9628569Y8794001D01*
X9628055Y8793715D01*
X9611295Y8794681D01*
X9576256Y8829720D01*
X9566536Y8833747D01*
X9566535Y8833746D01*
X8800000D01*
X8790280Y8829720D01*
X8790279Y8829720D01*
X8729407Y8768847D01*
X8725380Y8759127D01*
X8725381Y8759126D01*
Y8627816D01*
X8729407Y8618096D01*
X8761056Y8586446D01*
X8755796Y8573746D01*
X8620001D01*
X8620000Y8573747D01*
X8610279Y8569721D01*
X8610279Y8569719D01*
X8390280Y8349720D01*
X8386253Y8340000D01*
X8386253Y8339999D01*
Y6305694D01*
X8324306Y6243746D01*
X8220000D01*
X8210280Y6239720D01*
X8210279Y6239720D01*
X8180280Y6209720D01*
X8110280Y6139720D01*
X8106253Y6130000D01*
X8106254Y6129999D01*
Y5860000D01*
X8106253Y5860000D01*
X8106254Y5859999D01*
Y5620001D01*
X8106253Y5620000D01*
X8110279Y5610279D01*
X8110281Y5610279D01*
X8170279Y5550280D01*
X8178644Y5546815D01*
X8183936Y5541242D01*
X8187300Y5536960D01*
X8187300Y5533553D01*
Y5500000D01*
X8201801D01*
Y5470000D01*
X8187300D01*
Y5432300D01*
X8225000D01*
Y5446801D01*
X8255000D01*
Y5432300D01*
X8292700D01*
Y5470000D01*
X8278199D01*
Y5500000D01*
X8292700D01*
Y5533553D01*
X8292700Y5537700D01*
X8301857Y5546254D01*
X8308143D01*
X8317300Y5537700D01*
X8317300Y5533553D01*
Y5500000D01*
X8331801D01*
Y5470000D01*
X8317300D01*
Y5432300D01*
X8355000D01*
Y5446801D01*
X8385000D01*
Y5432300D01*
X8422700D01*
Y5470000D01*
X8408199D01*
Y5500000D01*
X8422700D01*
Y5533553D01*
X8422700Y5537700D01*
X8431857Y5546254D01*
X8704306D01*
X8786253Y5464306D01*
Y4980001D01*
X8786252Y4980000D01*
X8790279Y4970279D01*
X8790281Y4970279D01*
X9018446Y4742113D01*
X9016674Y4733440D01*
X9014552Y4729413D01*
X7910391D01*
Y8879609D01*
X15089609D01*
Y4729413D01*
D02*
G37*
G36*
X10730000Y7670000D02*
Y7170000D01*
X10560000Y7000000D01*
X10220000D01*
X10040000Y6820000D01*
X9710000Y6490000D01*
X9580000D01*
X9520000Y6550000D01*
Y6910000D01*
X9550000Y6940000D01*
X9710000Y6940000D01*
X9730000Y6960000D01*
Y7129999D01*
X9660000Y7200000D01*
Y7630000D01*
X9740000Y7710000D01*
X10690000D01*
X10730000Y7670000D01*
D02*
G37*
G36*
X11760000Y7590000D02*
X12280000D01*
X12340000Y7530000D01*
Y6600000D01*
X12310000Y6570000D01*
X12110000D01*
X11720000Y6960000D01*
X11420000D01*
X11180000Y7200000D01*
Y7680000D01*
X11260000Y7760000D01*
X11590000D01*
X11760000Y7590000D01*
D02*
G37*
G36*
X9953634Y6433634D02*
X9961143Y6428617D01*
X9970000Y6426855D01*
X10228508D01*
X10233801Y6414187D01*
X10227300Y6398493D01*
Y6381506D01*
X10233801Y6365813D01*
X10245812Y6353800D01*
X10246322Y6353423D01*
X10247300Y6352700D01*
X10247300D01*
X10247300Y6352700D01*
Y6247300D01*
X10274307D01*
Y6202700D01*
X10247300D01*
Y6097300D01*
X10247579D01*
X10252440Y6085567D01*
X10220400Y6053527D01*
X10207700Y6057534D01*
Y6067700D01*
X10092300D01*
Y5982300D01*
X10207700D01*
Y5999307D01*
X10228209D01*
X10238042Y6001262D01*
X10246378Y6006832D01*
X10280567Y6041021D01*
X10292300Y6036161D01*
Y6025000D01*
X10306801D01*
Y5995000D01*
X10292300D01*
Y5957300D01*
X10330000D01*
Y5971801D01*
X10360000D01*
Y5957300D01*
X10376999D01*
X10378623Y5955099D01*
X10381740Y5944600D01*
X10352412Y5915272D01*
X10343375Y5907700D01*
Y5907700D01*
X10343375Y5907700D01*
X10257976D01*
Y5892716D01*
X10245276Y5887456D01*
X10241366Y5891366D01*
X10233857Y5896383D01*
X10225000Y5898145D01*
X10207700D01*
Y5917700D01*
X10092300D01*
Y5832300D01*
X10207700D01*
Y5841608D01*
X10220400Y5846869D01*
X10230350Y5836919D01*
X10237858Y5831901D01*
X10246716Y5830140D01*
X10257976D01*
Y5792300D01*
X10343376D01*
Y5855943D01*
X10348960D01*
X10357817Y5857705D01*
X10365325Y5862722D01*
X10396243Y5893639D01*
X10407976Y5888779D01*
Y5792300D01*
X10427531D01*
Y5757700D01*
X10407976D01*
Y5642300D01*
X10493376D01*
Y5757700D01*
X10473821D01*
Y5792300D01*
X10493376D01*
Y5827055D01*
X10564631D01*
X10567405Y5822959D01*
X10569523Y5814355D01*
X10550034Y5794866D01*
X10545017Y5787357D01*
X10543255Y5778500D01*
Y5610287D01*
X10518713Y5585745D01*
X10493376D01*
Y5620300D01*
X10407976D01*
Y5577232D01*
X10404117Y5571457D01*
X10402355Y5562600D01*
X10404117Y5553743D01*
X10407976Y5547968D01*
Y5504900D01*
X10493376D01*
Y5539455D01*
X10528300D01*
X10537157Y5541217D01*
X10544666Y5546234D01*
X10582766Y5584334D01*
X10587783Y5591843D01*
X10589545Y5600700D01*
Y5617043D01*
X10602245Y5619569D01*
X10603801Y5615812D01*
X10615813Y5603801D01*
X10619083Y5602446D01*
X10623513Y5587002D01*
X10620363Y5582700D01*
X10611507D01*
X10595813Y5576199D01*
X10583801Y5564187D01*
X10577300Y5548494D01*
Y5531507D01*
X10583801Y5515813D01*
X10595813Y5503801D01*
X10611507Y5497300D01*
X10628494D01*
X10644187Y5503801D01*
X10656199Y5515813D01*
X10662700Y5531507D01*
Y5548494D01*
X10662268Y5549537D01*
X10744600Y5631869D01*
X10757300Y5626608D01*
Y5621506D01*
X10763801Y5605813D01*
X10775813Y5593801D01*
X10791506Y5587300D01*
X10808493D01*
X10824187Y5593801D01*
X10836199Y5605813D01*
X10840358Y5615852D01*
X10854118Y5619649D01*
X10854599Y5619571D01*
X10857614Y5616556D01*
X10873307Y5610055D01*
X10890294D01*
X10903640Y5601909D01*
X10904350Y5594737D01*
X10903801Y5594187D01*
X10897300Y5578494D01*
Y5561507D01*
X10903801Y5545813D01*
X10915813Y5533801D01*
X10931506Y5527300D01*
X10946608D01*
X10950372Y5522224D01*
X10952835Y5515567D01*
X10890414Y5453145D01*
X10239051D01*
X10147161Y5545034D01*
X10156428Y5554301D01*
X10168105Y5574527D01*
X10174150Y5597086D01*
Y5620442D01*
X10168105Y5643001D01*
X10156428Y5663227D01*
X10139913Y5679741D01*
X10119687Y5691419D01*
X10097128Y5697464D01*
X10073773D01*
X10051214Y5691419D01*
X10030988Y5679741D01*
X10014473Y5663227D01*
X10002796Y5643001D01*
X9996751Y5620442D01*
Y5597086D01*
X10002796Y5574527D01*
X10014473Y5554301D01*
X10030988Y5537786D01*
X10051214Y5526109D01*
X10073773Y5520064D01*
X10097128D01*
X10104652Y5522080D01*
X10213098Y5413634D01*
X10220607Y5408617D01*
X10229464Y5406855D01*
X10896163D01*
X10901440Y5397010D01*
X10901802Y5394534D01*
X10880214Y5372945D01*
X10875197Y5365437D01*
X10873568Y5357249D01*
X10871760D01*
X10853270Y5352295D01*
X10836692Y5342724D01*
X10823157Y5329188D01*
X10813585Y5312610D01*
X10808631Y5294120D01*
Y5274978D01*
X10813585Y5256488D01*
X10823157Y5239911D01*
X10836692Y5226375D01*
X10853270Y5216804D01*
X10871760Y5211849D01*
X10890902D01*
X10909392Y5216804D01*
X10925970Y5226375D01*
X10939505Y5239911D01*
X10949077Y5256488D01*
X10950032Y5260055D01*
X10988613D01*
X11031434Y5217234D01*
X11038943Y5212217D01*
X11047800Y5210455D01*
X11118300D01*
Y5190900D01*
X11154055D01*
Y5163100D01*
X11134500D01*
Y5047700D01*
X11219900D01*
Y5163100D01*
X11200345D01*
Y5190900D01*
X11233700D01*
Y5276300D01*
X11118300D01*
Y5256745D01*
X11057387D01*
X11014566Y5299566D01*
X11007057Y5304583D01*
X10998200Y5306345D01*
X10950756D01*
X10949077Y5312610D01*
X10939505Y5329188D01*
X10925970Y5342724D01*
X10928601Y5355869D01*
X11076601Y5503869D01*
X11088334Y5499009D01*
Y5489575D01*
X11173734D01*
Y5604975D01*
X11153062D01*
Y5685825D01*
X11163101Y5692648D01*
X11165762Y5693255D01*
X11171301Y5692153D01*
X11186300D01*
X11193207Y5693527D01*
X11199061Y5697439D01*
X11202974Y5703294D01*
X11204347Y5710200D01*
Y5720200D01*
X11189499D01*
Y5750200D01*
X11204347D01*
Y5760200D01*
X11214782Y5770234D01*
X11217189Y5769581D01*
X11220656Y5767057D01*
Y5726200D01*
X11222417Y5717342D01*
X11227435Y5709834D01*
X11288635Y5648634D01*
X11296143Y5643617D01*
X11305000Y5641855D01*
X11322300D01*
Y5622300D01*
X11437700D01*
Y5707700D01*
X11322300D01*
Y5698392D01*
X11309600Y5693131D01*
X11266945Y5735786D01*
Y5774653D01*
X11268800D01*
X11275707Y5776027D01*
X11281561Y5779939D01*
X11285473Y5785794D01*
X11286847Y5792700D01*
Y5807700D01*
X11285665Y5813643D01*
X11286230Y5814391D01*
X11299608Y5817660D01*
X11322300Y5794968D01*
Y5772300D01*
X11437700D01*
Y5786855D01*
X11462300D01*
Y5752300D01*
X11547700D01*
Y5867700D01*
X11547700D01*
X11549739Y5879555D01*
X11570058D01*
X11575813Y5873801D01*
X11591506Y5867300D01*
X11608493Y5867300D01*
X11612300Y5855567D01*
Y5752300D01*
X11697700D01*
Y5786855D01*
X11710000D01*
X11718857Y5788617D01*
X11726366Y5793634D01*
X11850463Y5917732D01*
X11851506Y5917300D01*
X11868493D01*
X11884187Y5923801D01*
X11896199Y5935813D01*
X11902700Y5951507D01*
Y5968494D01*
X11898324Y5979057D01*
X11905223Y5991757D01*
X11928302D01*
X12230029Y5690029D01*
X12239192Y5683907D01*
X12250000Y5681757D01*
X12250001Y5681757D01*
X12257893D01*
X12261296Y5669057D01*
X12249381Y5662178D01*
X12232122Y5644919D01*
X12219918Y5623781D01*
X12216532Y5611145D01*
X12023787D01*
X11973475Y5661456D01*
X11965967Y5666474D01*
X11957109Y5668235D01*
X11714200D01*
Y5697790D01*
X11608801D01*
Y5592391D01*
X11648355D01*
Y5508146D01*
X11646500D01*
X11636780Y5504120D01*
X11632754Y5494400D01*
Y5464400D01*
X11635021Y5458927D01*
X11633800Y5457100D01*
X11633800D01*
Y5401700D01*
Y5344400D01*
X11648301D01*
Y5314400D01*
X11633800D01*
Y5302755D01*
X11621100Y5302632D01*
X11602966Y5320766D01*
X11595457Y5325783D01*
X11586600Y5327545D01*
X11560500D01*
Y5357100D01*
X11455100D01*
Y5251700D01*
X11560500D01*
Y5281255D01*
X11577013D01*
X11595234Y5263034D01*
X11602743Y5258017D01*
X11611600Y5256255D01*
X11636127D01*
X11636780Y5254679D01*
X11646500Y5250653D01*
X11671020D01*
X11681621Y5249521D01*
X11682754Y5238920D01*
Y5220295D01*
X11651329Y5188871D01*
X11645207Y5179708D01*
X11643057Y5168900D01*
X11643057Y5168899D01*
Y5145400D01*
X11617400D01*
Y5040000D01*
X11641857D01*
Y5005700D01*
X11617400D01*
Y4900300D01*
X11722800D01*
Y4911095D01*
X11723587Y4912435D01*
X11734000Y4919513D01*
X11742167Y4917390D01*
X11746700Y4912857D01*
X11746700Y4887900D01*
X11735720Y4883746D01*
X9395694D01*
X9319840Y4959600D01*
X9325101Y4972300D01*
X9397700D01*
Y5087700D01*
X9383145D01*
Y5263307D01*
X9398000D01*
X9417782Y5267242D01*
X9434553Y5278447D01*
X9445758Y5295218D01*
X9449693Y5315000D01*
Y5391000D01*
X9445758Y5410782D01*
X9434553Y5427553D01*
X9417782Y5438758D01*
X9398000Y5442693D01*
X9322000D01*
X9302218Y5438758D01*
X9285448Y5427553D01*
X9274242Y5410782D01*
X9270307Y5391000D01*
Y5315000D01*
X9274242Y5295218D01*
X9285448Y5278447D01*
X9302218Y5267242D01*
X9322000Y5263307D01*
X9336855D01*
Y5087700D01*
X9312300D01*
Y4985101D01*
X9299600Y4979841D01*
X9173746Y5105694D01*
Y5814306D01*
X9421198Y6061757D01*
X9967856D01*
X9975813Y6053801D01*
X9991507Y6047300D01*
X10008494D01*
X10024187Y6053801D01*
X10036199Y6065813D01*
X10042700Y6081507D01*
Y6098494D01*
X10036199Y6114187D01*
X10024187Y6126199D01*
X10008494Y6132700D01*
X9991507D01*
X9975813Y6126199D01*
X9967856Y6118243D01*
X9494277D01*
X9489417Y6129976D01*
X9499720Y6140280D01*
X9503747Y6150000D01*
X9503747Y6150000D01*
Y6528852D01*
X9516447Y6534113D01*
X9570280Y6480280D01*
X9580000Y6476253D01*
X9580000Y6476253D01*
X9710000D01*
X9719720Y6480280D01*
X9719721Y6480280D01*
X9813355Y6573914D01*
X9953634Y6433634D01*
D02*
G37*
G36*
X12346253Y6570220D02*
Y6330000D01*
X12350280Y6320280D01*
X12350280Y6320279D01*
X12506254Y6164306D01*
Y5890001D01*
X12506253Y5890000D01*
X12510279Y5880279D01*
X12510281Y5880279D01*
X12590280Y5800280D01*
X12594053Y5798717D01*
X12598380Y5784520D01*
X12594116Y5778890D01*
X12581489D01*
X12242210Y6118168D01*
X12233875Y6123738D01*
X12224042Y6125694D01*
X11386386D01*
X11381125Y6138394D01*
X11494058Y6251327D01*
X11503801Y6244187D01*
X11497300Y6228494D01*
Y6211507D01*
X11503801Y6195813D01*
X11515813Y6183801D01*
X11531507Y6177300D01*
X11548494D01*
X11564187Y6183801D01*
X11576199Y6195813D01*
X11576631Y6196855D01*
X11780000D01*
X11788857Y6198617D01*
X11796366Y6203634D01*
X12079087Y6486355D01*
X12157100D01*
Y6466320D01*
X12309500D01*
Y6544523D01*
X12309669Y6548497D01*
X12314378Y6556402D01*
X12319149Y6560043D01*
X12319720Y6560279D01*
Y6560280D01*
X12334520Y6575080D01*
X12346253Y6570220D01*
D02*
G37*
G36*
X10686855Y6730413D02*
Y6675000D01*
X10688617Y6666143D01*
X10693634Y6658635D01*
X10837300Y6514968D01*
Y6442300D01*
X10866855D01*
Y6390000D01*
X10868617Y6381143D01*
X10872454Y6375400D01*
X10870650Y6368990D01*
X10866608Y6362700D01*
X10861507D01*
X10845813Y6356199D01*
X10833801Y6344187D01*
X10828735Y6331957D01*
X10815567Y6327165D01*
X10776366Y6366366D01*
X10768857Y6371383D01*
X10760000Y6373145D01*
X10684587D01*
X10627700Y6430032D01*
Y6502700D01*
X10598145D01*
Y6535000D01*
X10596383Y6543857D01*
X10591366Y6551366D01*
X10568145Y6574587D01*
Y6617300D01*
X10622700D01*
Y6776608D01*
X10635400Y6781869D01*
X10686855Y6730413D01*
D02*
G37*
G36*
X12100280Y6560280D02*
X12110000Y6556253D01*
X12110000Y6556254D01*
X12145880D01*
X12154854Y6553395D01*
X12156313Y6540838D01*
X12148119Y6532645D01*
X12069500D01*
X12060643Y6530883D01*
X12053134Y6525866D01*
X11770413Y6243145D01*
X11576631D01*
X11576199Y6244187D01*
X11564187Y6256199D01*
X11548494Y6262700D01*
X11531507D01*
X11515813Y6256199D01*
X11508673Y6265942D01*
X11564587Y6321856D01*
X11597300D01*
Y6292300D01*
X11702700D01*
Y6321856D01*
X11805000D01*
X11813858Y6323617D01*
X11821366Y6328635D01*
X12076645Y6583914D01*
X12100280Y6560280D01*
D02*
G37*
G36*
X10372300Y6397300D02*
X10401855D01*
Y6365000D01*
X10403617Y6356143D01*
X10408635Y6348634D01*
X10545731Y6211537D01*
X10542443Y6202755D01*
X10539822Y6199486D01*
X10352700D01*
Y6202700D01*
X10325694D01*
Y6247300D01*
X10352700D01*
Y6352700D01*
X10325694D01*
Y6360000D01*
X10323738Y6369832D01*
X10318168Y6378168D01*
X10312700Y6383636D01*
Y6398493D01*
X10306199Y6414187D01*
X10311492Y6426855D01*
X10372300D01*
Y6397300D01*
D02*
G37*
G36*
X12339274Y5948432D02*
X12334013Y5935732D01*
X12321300D01*
Y5920199D01*
X12291300D01*
Y5935732D01*
X12266300D01*
X12245738Y5931642D01*
X12241022Y5928491D01*
X12251956Y5917557D01*
X12230743Y5896344D01*
X12219809Y5907278D01*
X12216658Y5902562D01*
X12212568Y5882000D01*
Y5857000D01*
X12228101D01*
Y5827000D01*
X12212568D01*
Y5805335D01*
X12201230Y5798712D01*
X11959971Y6039971D01*
X11950808Y6046093D01*
X11940000Y6048243D01*
X11939999Y6048243D01*
X11451600D01*
X11440791Y6046093D01*
X11431629Y6039971D01*
X11405400Y6013742D01*
X11392700Y6019002D01*
Y6028493D01*
X11386199Y6044187D01*
X11374188Y6056199D01*
X11370397Y6071376D01*
X11372742Y6074306D01*
X12213400D01*
X12339274Y5948432D01*
D02*
G37*
G36*
X11821676Y5979057D02*
X11817300Y5968494D01*
Y5951507D01*
X11817732Y5950464D01*
X11710400Y5843132D01*
X11697700Y5848392D01*
Y5867700D01*
X11636047D01*
X11630786Y5880400D01*
X11636199Y5885813D01*
X11642700Y5901507D01*
Y5918494D01*
X11636199Y5934188D01*
X11624187Y5946199D01*
X11608493Y5952700D01*
X11591506D01*
X11575813Y5946199D01*
X11563801Y5934188D01*
X11560345Y5925845D01*
X11415346D01*
X11410086Y5938545D01*
X11463298Y5991757D01*
X11814777D01*
X11821676Y5979057D01*
D02*
G37*
G36*
X12585874Y5701832D02*
X12589689Y5699283D01*
X12588505Y5696425D01*
X12586320Y5692336D01*
X12586528Y5691650D01*
X12586253Y5690989D01*
Y5650001D01*
X12586252Y5650000D01*
X12590279Y5640279D01*
X12590281Y5640279D01*
X12676254Y5554306D01*
Y5525600D01*
X12670700Y5515200D01*
X12663553Y5515200D01*
X12627741D01*
X12605989Y5536952D01*
Y5549976D01*
X12599488Y5565670D01*
X12587476Y5577682D01*
X12571783Y5584182D01*
X12554796D01*
X12539102Y5577682D01*
X12527090Y5565670D01*
X12520589Y5549976D01*
Y5532989D01*
X12527090Y5517295D01*
X12539102Y5505283D01*
X12554796Y5498783D01*
X12564276D01*
X12595300Y5467759D01*
Y5424800D01*
X12667368Y5424800D01*
X12669239Y5424533D01*
X12677027Y5421532D01*
X12681162Y5419398D01*
X12714113Y5386446D01*
X12708852Y5373746D01*
X12600000D01*
X12600000Y5373747D01*
X12590280Y5369720D01*
X12585487Y5364927D01*
X12583780Y5364220D01*
X12583072Y5362513D01*
X12540280Y5319720D01*
X12536253Y5310000D01*
X12536254Y5310000D01*
Y4965694D01*
X12454306Y4883746D01*
X12100726D01*
X12100448Y4884174D01*
X12096833Y4896446D01*
X12106199Y4905813D01*
X12112700Y4921507D01*
Y4938494D01*
X12106199Y4954187D01*
X12094187Y4966199D01*
X12078493Y4972700D01*
X12061506D01*
X12045813Y4966199D01*
X12038156Y4958543D01*
X12006900D01*
Y4973300D01*
X11991647D01*
X11986199Y4985813D01*
X11992700Y5001506D01*
Y5018493D01*
X11989922Y5025200D01*
X11998408Y5037900D01*
X12006900D01*
Y5123300D01*
X11985880D01*
X11985222Y5124600D01*
X11993030Y5137300D01*
X11998493D01*
X12014187Y5143801D01*
X12026199Y5155813D01*
X12032700Y5171507D01*
Y5188494D01*
X12026199Y5204187D01*
X12014187Y5216199D01*
X11998493Y5222700D01*
X11981506D01*
X11980463Y5222268D01*
X11963811Y5238920D01*
X11968672Y5250653D01*
X11976500D01*
X11986220Y5254679D01*
X11990247Y5264400D01*
Y5294400D01*
X11987980Y5299873D01*
X11989200Y5301700D01*
X11989200D01*
Y5351700D01*
Y5456255D01*
X12037014D01*
X12175634Y5317634D01*
X12183143Y5312617D01*
X12192000Y5310855D01*
X12216532D01*
X12219918Y5298219D01*
X12232122Y5277081D01*
X12249381Y5259822D01*
X12270519Y5247618D01*
X12294096Y5241300D01*
X12318504D01*
X12342081Y5247618D01*
X12363219Y5259822D01*
X12380478Y5277081D01*
X12392682Y5298219D01*
X12399000Y5321796D01*
Y5346204D01*
X12392682Y5369781D01*
X12380478Y5390919D01*
X12363219Y5408178D01*
X12342081Y5420382D01*
X12318504Y5426700D01*
X12294096D01*
X12270519Y5420382D01*
X12249381Y5408178D01*
X12232122Y5390919D01*
X12219918Y5369781D01*
X12216532Y5357145D01*
X12201587D01*
X12062966Y5495765D01*
X12055457Y5500783D01*
X12046600Y5502544D01*
X11986873D01*
X11986220Y5504120D01*
X11976500Y5508146D01*
X11951980D01*
X11941379Y5509279D01*
X11940247Y5519880D01*
Y5544400D01*
X11936220Y5554120D01*
X11926500Y5558146D01*
X11896500D01*
X11891027Y5555879D01*
X11889200Y5557100D01*
Y5557100D01*
X11733800D01*
Y5557100D01*
X11731973Y5555879D01*
X11726500Y5558146D01*
X11696500D01*
X11694645Y5559386D01*
Y5592391D01*
X11714200D01*
Y5621946D01*
X11947523D01*
X11997834Y5571634D01*
X12005343Y5566617D01*
X12014200Y5564855D01*
X12216532D01*
X12219918Y5552219D01*
X12232122Y5531081D01*
X12249381Y5513822D01*
X12270519Y5501618D01*
X12294096Y5495300D01*
X12318504D01*
X12342081Y5501618D01*
X12363219Y5513822D01*
X12380478Y5531081D01*
X12392682Y5552219D01*
X12399000Y5575796D01*
Y5600204D01*
X12392682Y5623781D01*
X12380478Y5644919D01*
X12363219Y5662178D01*
X12351304Y5669057D01*
X12354707Y5681757D01*
X12427856D01*
X12435813Y5673801D01*
X12451506Y5667300D01*
X12468493D01*
X12484187Y5673801D01*
X12496199Y5685813D01*
X12502700Y5701507D01*
Y5718494D01*
X12496199Y5734187D01*
X12484187Y5746199D01*
X12468493Y5752700D01*
X12451506D01*
X12435813Y5746199D01*
X12427856Y5738243D01*
X12361000D01*
X12359749Y5750943D01*
X12366862Y5752358D01*
X12371578Y5755509D01*
X12360644Y5766443D01*
X12381857Y5787656D01*
X12392791Y5776722D01*
X12395942Y5781438D01*
X12400032Y5802000D01*
Y5827000D01*
X12384499D01*
Y5857000D01*
X12400032D01*
Y5869713D01*
X12412732Y5874974D01*
X12585874Y5701832D01*
D02*
G37*
G36*
X13880000Y6630000D02*
X14470000D01*
X14610001Y6490000D01*
X14950000D01*
X15060001Y6380000D01*
Y5850000D01*
X14939999Y5730000D01*
X14639999D01*
X14500000Y5870000D01*
X14130000D01*
X13670000Y6330000D01*
X13360001D01*
X13280000Y6410000D01*
Y6690000D01*
X13339999Y6750000D01*
X13760001D01*
X13880000Y6630000D01*
D02*
G37*
G36*
X13189999Y7540000D02*
Y6420000D01*
X13360001Y6250000D01*
X13589999D01*
X13750000Y6090000D01*
Y5850000D01*
X13580000Y5680000D01*
X13469447D01*
X13457700Y5682300D01*
X13457700Y5692700D01*
Y5710000D01*
X13443199D01*
Y5740000D01*
X13457700D01*
Y5767700D01*
X13414999D01*
Y5753199D01*
X13385001D01*
Y5767700D01*
X13342300D01*
Y5740000D01*
X13356801D01*
Y5710000D01*
X13342300D01*
Y5682300D01*
X13330553Y5680000D01*
X13250000D01*
X13120000Y5810000D01*
X12600000D01*
X12520000Y5890000D01*
Y6170000D01*
X12360000Y6330000D01*
Y7190000D01*
X12790000Y7620000D01*
X13110001D01*
X13189999Y7540000D01*
D02*
G37*
G36*
X12989999Y5760000D02*
Y5652700D01*
X12989999Y5640000D01*
X12991232Y5638766D01*
X13054443Y5575556D01*
X13059999Y5570000D01*
X13074472Y5555527D01*
Y5424471D01*
X13039999Y5390000D01*
X12730000D01*
X12690000Y5430000D01*
Y5560000D01*
X12600000Y5650000D01*
Y5690989D01*
X12604043Y5694306D01*
X12628300D01*
Y5674800D01*
X12651000D01*
Y5689301D01*
X12681000D01*
Y5674800D01*
X12703700D01*
Y5705000D01*
X12689199D01*
Y5735000D01*
X12703700D01*
Y5765200D01*
X12681000D01*
Y5750699D01*
X12651000D01*
Y5765200D01*
X12628300D01*
Y5745694D01*
X12614685D01*
X12600189Y5760189D01*
X12632961Y5792961D01*
X12957039D01*
X12989999Y5760000D01*
D02*
G37*
G36*
X11926500Y5509400D02*
X11911500Y5494400D01*
X11896500D01*
Y5544400D01*
X11926500D01*
Y5509400D01*
D02*
G37*
G36*
X11726500Y5494400D02*
X11711500D01*
X11696500Y5509400D01*
Y5544400D01*
X11726500D01*
Y5494400D01*
D02*
G37*
G36*
X11976500Y5464400D02*
X11926500D01*
Y5479400D01*
X11941500Y5494400D01*
X11976500D01*
Y5464400D01*
D02*
G37*
G36*
X11696500Y5479400D02*
Y5464400D01*
X11646500D01*
Y5494400D01*
X11681500D01*
X11696500Y5479400D01*
D02*
G37*
G36*
X11890574Y5458474D02*
X11893800Y5450905D01*
Y5401700D01*
Y5307894D01*
X11890574Y5300325D01*
X11883005Y5297100D01*
X11739995D01*
X11732426Y5300325D01*
X11729200Y5307894D01*
Y5314400D01*
X11714699D01*
Y5344400D01*
X11729200D01*
Y5351700D01*
Y5450905D01*
X11732426Y5458474D01*
X11739995Y5461700D01*
X11883005D01*
X11890574Y5458474D01*
D02*
G37*
G36*
X11976500Y5264400D02*
X11941500D01*
X11926500Y5279400D01*
Y5294400D01*
X11976500D01*
Y5264400D01*
D02*
G37*
G36*
X11696500Y5279400D02*
X11681500Y5264400D01*
X11646500D01*
Y5294400D01*
X11696500D01*
Y5279400D01*
D02*
G37*
G36*
X11926500Y5249400D02*
Y5214400D01*
X11896500D01*
Y5264400D01*
X11911500D01*
X11926500Y5249400D01*
D02*
G37*
G36*
X11726500Y5214400D02*
X11696500D01*
Y5249400D01*
X11711500Y5264400D01*
X11726500D01*
Y5214400D01*
D02*
G37*
G36*
X9170000Y8500000D02*
Y8010000D01*
X9490000Y7690000D01*
Y6828551D01*
X9485220Y6828080D01*
Y6771109D01*
X9490000Y6770638D01*
Y6150000D01*
X9160000Y5820000D01*
D01*
Y5100000D01*
X9390000Y4870000D01*
X12460000D01*
X12550000Y4960000D01*
Y5310000D01*
X12593500Y5353500D01*
Y5354500D01*
X12594500D01*
X12600000Y5360000D01*
X13050000D01*
X13130000Y5280000D01*
Y4850000D01*
X13030000Y4750000D01*
X9030000D01*
X8800000Y4980000D01*
Y5470000D01*
X8710000Y5560000D01*
X8180000D01*
X8120000Y5620000D01*
Y5860000D01*
Y6130000D01*
X8220000Y6230000D01*
X8330000D01*
X8400000Y6300000D01*
Y8340000D01*
X8620000Y8560000D01*
X9110000D01*
X9170000Y8500000D01*
D02*
G37*
%LPC*%
G36*
X9574856Y8789348D02*
X9544656D01*
Y8774847D01*
X9514656D01*
Y8789348D01*
X9484456D01*
Y8766648D01*
X9498958D01*
Y8736648D01*
X9484456D01*
Y8713948D01*
X9514656D01*
Y8728449D01*
X9544656D01*
Y8713948D01*
X9574856D01*
Y8736648D01*
X9560355D01*
Y8766648D01*
X9574856D01*
Y8789348D01*
D02*
G37*
G36*
X9365157Y8777379D02*
X9329956D01*
Y8762878D01*
X9299957D01*
Y8777379D01*
X9264756D01*
Y8717179D01*
X9279258D01*
Y8687179D01*
X9264756D01*
Y8626979D01*
X9299957D01*
Y8641481D01*
X9329956D01*
Y8626979D01*
X9365157D01*
Y8687179D01*
X9350655D01*
Y8717179D01*
X9365157D01*
Y8777379D01*
D02*
G37*
G36*
X9091700Y8715200D02*
X9069000D01*
Y8700699D01*
X9039000D01*
Y8715200D01*
X9016300D01*
Y8685000D01*
X9030801D01*
Y8655000D01*
X9016300D01*
Y8624800D01*
X9039000D01*
Y8639301D01*
X9069000D01*
Y8624800D01*
X9091700D01*
Y8655000D01*
X9077199D01*
Y8685000D01*
X9091700D01*
Y8715200D01*
D02*
G37*
G36*
X8964700D02*
X8942000D01*
Y8700699D01*
X8912000D01*
Y8715200D01*
X8889300D01*
Y8685000D01*
X8903801D01*
Y8655000D01*
X8889300D01*
Y8624800D01*
X8912000D01*
Y8639301D01*
X8942000D01*
Y8624800D01*
X8964700D01*
Y8655000D01*
X8950199D01*
Y8685000D01*
X8964700D01*
Y8715200D01*
D02*
G37*
G36*
X8837700D02*
X8815000D01*
Y8700699D01*
X8785000D01*
Y8715200D01*
X8762300D01*
Y8685000D01*
X8776801D01*
Y8655000D01*
X8762300D01*
Y8624800D01*
X8785000D01*
Y8639301D01*
X8815000D01*
Y8624800D01*
X8837700D01*
Y8655000D01*
X8823199D01*
Y8685000D01*
X8837700D01*
Y8715200D01*
D02*
G37*
G36*
X9574856Y8662348D02*
X9544656D01*
Y8647847D01*
X9514656D01*
Y8662348D01*
X9484456D01*
Y8639648D01*
X9498958D01*
Y8609648D01*
X9484456D01*
Y8586948D01*
X9514656D01*
Y8601449D01*
X9544656D01*
Y8586948D01*
X9574856D01*
Y8609648D01*
X9560355D01*
Y8639648D01*
X9574856D01*
Y8662348D01*
D02*
G37*
G36*
Y8535348D02*
X9544656D01*
Y8520847D01*
X9514656D01*
Y8535348D01*
X9484456D01*
Y8512648D01*
X9498958D01*
Y8482648D01*
X9484456D01*
Y8459948D01*
X9514656D01*
Y8474449D01*
X9544656D01*
Y8459948D01*
X9574856D01*
Y8482648D01*
X9560355D01*
Y8512648D01*
X9574856D01*
Y8535348D01*
D02*
G37*
G36*
X10425000Y8713457D02*
X10365000D01*
Y8698199D01*
X10335000D01*
Y8713457D01*
X10275000D01*
X10252106Y8710442D01*
X10230772Y8701606D01*
X10224455Y8696759D01*
X10234915Y8686298D01*
X10213702Y8665085D01*
X10203241Y8675545D01*
X10198394Y8669228D01*
X10189557Y8647894D01*
X10186543Y8625000D01*
Y8515000D01*
X10201801D01*
Y8485000D01*
X10186543D01*
Y8375000D01*
X10189557Y8352106D01*
X10198394Y8330772D01*
X10203241Y8324455D01*
X10213702Y8334915D01*
X10234915Y8313702D01*
X10224455Y8303241D01*
X10230772Y8298394D01*
X10252106Y8289558D01*
X10275000Y8286543D01*
X10335000D01*
Y8301801D01*
X10365000D01*
Y8286543D01*
X10425000D01*
X10447894Y8289558D01*
X10469228Y8298394D01*
X10475545Y8303241D01*
X10465085Y8313702D01*
X10486298Y8334915D01*
X10496758Y8324455D01*
X10501606Y8330772D01*
X10510442Y8352106D01*
X10513456Y8375000D01*
Y8485000D01*
X10498198D01*
Y8515000D01*
X10513456D01*
Y8625000D01*
X10510442Y8647894D01*
X10501606Y8669228D01*
X10496758Y8675545D01*
X10486298Y8665085D01*
X10465085Y8686298D01*
X10475545Y8696759D01*
X10469228Y8701606D01*
X10447894Y8710442D01*
X10425000Y8713457D01*
D02*
G37*
G36*
X8710700Y8715200D02*
X8635300D01*
Y8709486D01*
X8622600Y8704225D01*
X8620120Y8706704D01*
X8604427Y8713205D01*
X8587440D01*
X8571746Y8706704D01*
X8559734Y8694693D01*
X8553233Y8678999D01*
Y8662012D01*
X8559734Y8646318D01*
X8571746Y8634306D01*
X8587440Y8627805D01*
X8604427D01*
X8620120Y8634306D01*
X8622600Y8636786D01*
X8635300Y8631525D01*
Y8624800D01*
X8710700D01*
Y8715200D01*
D02*
G37*
G36*
X8215000Y8673457D02*
X8155000D01*
Y8658199D01*
X8125000D01*
Y8673457D01*
X8065000D01*
X8042106Y8670442D01*
X8020772Y8661606D01*
X8014455Y8656758D01*
X8024915Y8646298D01*
X8003702Y8625085D01*
X7993242Y8635545D01*
X7988394Y8629228D01*
X7979558Y8607894D01*
X7976543Y8585000D01*
Y8475000D01*
X7991801D01*
Y8445000D01*
X7976543D01*
Y8335000D01*
X7979558Y8312106D01*
X7988394Y8290772D01*
X7993242Y8284455D01*
X8003702Y8294915D01*
X8024915Y8273702D01*
X8014455Y8263242D01*
X8020772Y8258394D01*
X8042106Y8249558D01*
X8065000Y8246544D01*
X8125000D01*
Y8261801D01*
X8155000D01*
Y8246544D01*
X8215000D01*
X8237894Y8249558D01*
X8259228Y8258394D01*
X8265545Y8263242D01*
X8255085Y8273702D01*
X8276298Y8294915D01*
X8286758Y8284455D01*
X8291606Y8290772D01*
X8300442Y8312106D01*
X8303457Y8335000D01*
Y8445000D01*
X8288199D01*
Y8475000D01*
X8303457D01*
Y8585000D01*
X8300442Y8607894D01*
X8291606Y8629228D01*
X8286758Y8635545D01*
X8276298Y8625085D01*
X8255085Y8646298D01*
X8265545Y8656758D01*
X8259228Y8661606D01*
X8237894Y8670442D01*
X8215000Y8673457D01*
D02*
G37*
G36*
X13952699Y8577700D02*
X13910001D01*
Y8563199D01*
X13880000D01*
Y8577700D01*
X13837300D01*
Y8515000D01*
X13851801D01*
Y8485000D01*
X13837300D01*
Y8422300D01*
X13880000D01*
Y8436801D01*
X13910001D01*
Y8422300D01*
X13952699D01*
Y8485000D01*
X13938199D01*
Y8515000D01*
X13952699D01*
Y8577700D01*
D02*
G37*
G36*
Y8377700D02*
X13910001D01*
Y8363199D01*
X13880000D01*
Y8377700D01*
X13837300D01*
Y8315000D01*
X13851801D01*
Y8285000D01*
X13837300D01*
Y8222300D01*
X13880000D01*
Y8236801D01*
X13910001D01*
Y8222300D01*
X13952699D01*
Y8285000D01*
X13938199D01*
Y8315000D01*
X13952699D01*
Y8377700D01*
D02*
G37*
G36*
X14230391Y8136307D02*
X14154971D01*
Y8121806D01*
X14124971D01*
Y8136307D01*
X14049551D01*
Y8110000D01*
X14064053D01*
Y8080000D01*
X14049551D01*
Y8053694D01*
X14078680D01*
X14080783Y8040994D01*
X14073277Y8038439D01*
X14018781D01*
X14008493Y8042700D01*
X13991505D01*
X13975813Y8036199D01*
X13963802Y8024187D01*
X13957300Y8008494D01*
Y7991506D01*
X13963802Y7975813D01*
X13975813Y7963801D01*
X13991505Y7957300D01*
X14008493D01*
X14018781Y7961562D01*
X14074036D01*
X14074741Y7961091D01*
X14085378Y7958975D01*
Y7946026D01*
X14074741Y7943910D01*
X14061078Y7934780D01*
X14051949Y7921117D01*
X14050018Y7911418D01*
X14042039Y7903439D01*
X13922701D01*
Y7917700D01*
X13817300D01*
Y7903439D01*
X13792700D01*
Y7917700D01*
X13687300D01*
Y7851660D01*
X13614078Y7778439D01*
X12737922D01*
X12526700Y7989661D01*
Y8064700D01*
X12373300D01*
Y7935300D01*
X12472339D01*
X12694820Y7712820D01*
X12707290Y7704488D01*
X12722000Y7701561D01*
X13629999D01*
X13630000Y7701561D01*
X13644710Y7704488D01*
X13657179Y7712820D01*
X13756660Y7812300D01*
X13792700D01*
Y7826562D01*
X13817300D01*
Y7812300D01*
X13831561D01*
Y7778001D01*
X13831561Y7778000D01*
X13834486Y7763290D01*
X13842821Y7750820D01*
X14083299Y7510340D01*
Y7435300D01*
X14236700D01*
Y7564700D01*
X14137662D01*
X13908440Y7793922D01*
Y7812300D01*
X13922701D01*
Y7826562D01*
X14057961D01*
X14057962Y7826561D01*
X14072672Y7829488D01*
X14085143Y7837820D01*
X14110207Y7862884D01*
X14189084D01*
X14205202Y7866090D01*
X14218864Y7875220D01*
X14227994Y7888883D01*
X14231200Y7905000D01*
X14227994Y7921117D01*
X14218864Y7934780D01*
X14205202Y7943910D01*
X14194565Y7946026D01*
Y7958975D01*
X14205202Y7961091D01*
X14218864Y7970220D01*
X14227994Y7983883D01*
X14231200Y8000000D01*
X14227994Y8016117D01*
X14218864Y8029780D01*
X14205202Y8038910D01*
X14194727Y8040994D01*
X14195976Y8053694D01*
X14230391D01*
Y8080000D01*
X14215891D01*
Y8110000D01*
X14230391D01*
Y8136307D01*
D02*
G37*
G36*
X14657700Y8067700D02*
X14614999D01*
Y8053199D01*
X14585001D01*
Y8067700D01*
X14542300D01*
Y8040000D01*
X14556802D01*
Y8010000D01*
X14542300D01*
Y7982301D01*
X14585001D01*
Y7996802D01*
X14614999D01*
Y7982301D01*
X14657700D01*
Y8010000D01*
X14643199D01*
Y8040000D01*
X14657700D01*
Y8067700D01*
D02*
G37*
G36*
X13922701Y8067700D02*
X13885001D01*
Y8053199D01*
X13855000D01*
Y8067700D01*
X13817300D01*
Y8030000D01*
X13831801D01*
Y8000000D01*
X13817300D01*
Y7962300D01*
X13855000D01*
Y7976801D01*
X13885001D01*
Y7962300D01*
X13922701D01*
Y8000000D01*
X13908199D01*
Y8030000D01*
X13922701D01*
Y8067700D01*
D02*
G37*
G36*
X13700000Y8713747D02*
X13699998Y8713747D01*
X12720000D01*
X12710280Y8709720D01*
X12710279Y8709720D01*
X12590280Y8589720D01*
X12586253Y8580000D01*
X12586253Y8580000D01*
Y8340000D01*
X12590280Y8330280D01*
X12720280Y8200280D01*
X12730000Y8196253D01*
X12730000Y8196254D01*
X13646333D01*
X13650734Y8198076D01*
X13655264Y8199549D01*
X13655524Y8200060D01*
X13656055Y8200280D01*
X13657877Y8204680D01*
X13660039Y8208924D01*
X13661005Y8221224D01*
X13672858Y8222300D01*
X13672896D01*
X13679977Y8211779D01*
X13682127Y8200971D01*
X13688251Y8191808D01*
X13760030Y8120030D01*
X13760030Y8120029D01*
X13769193Y8113907D01*
X13780000Y8111757D01*
X13939999D01*
X13939999Y8111757D01*
X13950809Y8113907D01*
X13959972Y8120029D01*
X14098784Y8258842D01*
X14109550Y8251648D01*
X14104567Y8239618D01*
Y8222630D01*
X14111069Y8206937D01*
X14123079Y8194925D01*
X14138773Y8188424D01*
X14155760D01*
X14166048Y8192685D01*
X14216122D01*
X14216124Y8192685D01*
X14230833Y8195611D01*
X14243304Y8203944D01*
X14246661Y8207300D01*
X14297701D01*
Y8311757D01*
X14342300D01*
Y8247242D01*
X14340059Y8245001D01*
X14333937Y8235838D01*
X14331787Y8225030D01*
X14331787Y8225029D01*
Y8137116D01*
X14310918D01*
X14294800Y8133910D01*
X14281137Y8124781D01*
X14272008Y8111117D01*
X14268800Y8095000D01*
X14272008Y8078883D01*
X14281137Y8065220D01*
X14294800Y8056091D01*
X14305437Y8053975D01*
Y8041026D01*
X14294800Y8038910D01*
X14281137Y8029780D01*
X14272008Y8016117D01*
X14268800Y8000000D01*
X14272008Y7983883D01*
X14281137Y7970220D01*
X14294800Y7961091D01*
X14305437Y7958975D01*
Y7946026D01*
X14294800Y7943910D01*
X14281137Y7934780D01*
X14272008Y7921117D01*
X14268800Y7905000D01*
X14272008Y7888883D01*
X14281137Y7875220D01*
X14294800Y7866090D01*
X14310918Y7862884D01*
X14409143D01*
X14425259Y7866090D01*
X14433742Y7871757D01*
X14478300D01*
X14495029Y7855030D01*
X14495029Y7855030D01*
X14504192Y7848907D01*
X14514999Y7846757D01*
X14515001Y7846757D01*
X14542300D01*
Y7832300D01*
X14657700D01*
Y7846757D01*
X14692300D01*
Y7832300D01*
X14807701D01*
Y7917700D01*
X14692300D01*
Y7903243D01*
X14657700D01*
Y7917700D01*
X14542300D01*
Y7903243D01*
X14526698D01*
X14509972Y7919971D01*
X14500809Y7926093D01*
X14489999Y7928243D01*
X14489999Y7928243D01*
X14443291D01*
X14438924Y7934780D01*
X14425259Y7943910D01*
X14414622Y7946026D01*
Y7958975D01*
X14425259Y7961091D01*
X14438924Y7970220D01*
X14448053Y7983883D01*
X14451259Y8000000D01*
X14448053Y8016117D01*
X14438924Y8029780D01*
X14425259Y8038910D01*
X14414622Y8041026D01*
Y8053975D01*
X14425259Y8056091D01*
X14438924Y8065220D01*
X14448053Y8078883D01*
X14451259Y8095000D01*
X14448053Y8111117D01*
X14438924Y8124781D01*
X14425259Y8133910D01*
X14409143Y8137116D01*
X14388274D01*
Y8207300D01*
X14447701D01*
Y8311757D01*
X14478300D01*
X14709657Y8080400D01*
X14704398Y8067700D01*
X14692300D01*
Y7982301D01*
X14807701D01*
Y8067700D01*
X14778242D01*
Y8079999D01*
X14776094Y8090808D01*
X14769971Y8099970D01*
X14769971Y8099971D01*
X14509972Y8359971D01*
X14500809Y8366093D01*
X14489999Y8368243D01*
X14489999Y8368243D01*
X14140001D01*
X14139999Y8368243D01*
X14129192Y8366093D01*
X14120029Y8359971D01*
X14120029Y8359970D01*
X13928300Y8168243D01*
X13791699D01*
X13754378Y8205565D01*
X13757626Y8219849D01*
X13762700Y8222300D01*
X13774432Y8220687D01*
X13776959Y8221733D01*
X13779694D01*
X13781627Y8223667D01*
X13784154Y8224713D01*
X13809720Y8250280D01*
X13813747Y8260000D01*
X13813747Y8260001D01*
Y8600000D01*
X13809720Y8609720D01*
X13809720Y8609720D01*
X13709720Y8709720D01*
X13700000Y8713747D01*
D02*
G37*
G36*
X13587695Y8162700D02*
X12812296D01*
Y7837300D01*
X13587695D01*
Y7962150D01*
X13622714D01*
X13633002Y7957889D01*
X13649988D01*
X13665681Y7964389D01*
X13674600Y7973307D01*
X13687300Y7968932D01*
Y7962300D01*
X13725000D01*
Y7976801D01*
X13755000D01*
Y7962300D01*
X13792700D01*
Y8000000D01*
X13778198D01*
Y8030000D01*
X13792700D01*
Y8067700D01*
X13755000D01*
Y8053199D01*
X13725000D01*
Y8067700D01*
X13687300D01*
Y8032245D01*
X13674600Y8027870D01*
X13665681Y8036788D01*
X13649988Y8043288D01*
X13633002D01*
X13622714Y8039027D01*
X13587695D01*
Y8162700D01*
D02*
G37*
G36*
X10133680Y7892900D02*
X10105500D01*
Y7878399D01*
X10075500D01*
Y7892900D01*
X10047320D01*
Y7831700D01*
X10061821D01*
Y7801700D01*
X10047320D01*
Y7740500D01*
X10075500D01*
Y7755001D01*
X10105500D01*
Y7740500D01*
X10133680D01*
Y7801700D01*
X10119179D01*
Y7831700D01*
X10133680D01*
Y7892900D01*
D02*
G37*
G36*
X10006680D02*
X9978500D01*
Y7878399D01*
X9948500D01*
Y7892900D01*
X9920320D01*
Y7831700D01*
X9934821D01*
Y7801700D01*
X9920320D01*
Y7740500D01*
X9948500D01*
Y7755001D01*
X9978500D01*
Y7740500D01*
X10006680D01*
Y7801700D01*
X9992179D01*
Y7831700D01*
X10006680D01*
Y7892900D01*
D02*
G37*
G36*
X9879680D02*
X9851500D01*
Y7878399D01*
X9821500D01*
Y7892900D01*
X9793320D01*
Y7831700D01*
X9807821D01*
Y7801700D01*
X9793320D01*
Y7740500D01*
X9821500D01*
Y7755001D01*
X9851500D01*
Y7740500D01*
X9879680D01*
Y7801700D01*
X9865179D01*
Y7831700D01*
X9879680D01*
Y7892900D01*
D02*
G37*
G36*
X12283680Y7792900D02*
X12255500D01*
Y7778399D01*
X12225500D01*
Y7792900D01*
X12197320D01*
Y7731700D01*
X12211821D01*
Y7701700D01*
X12197320D01*
Y7640500D01*
X12225500D01*
Y7655001D01*
X12255500D01*
Y7640500D01*
X12283680D01*
Y7701700D01*
X12269179D01*
Y7731700D01*
X12283680D01*
Y7792900D01*
D02*
G37*
G36*
X12156680D02*
X12128500D01*
Y7778399D01*
X12098500D01*
Y7792900D01*
X12070320D01*
Y7731700D01*
X12084821D01*
Y7701700D01*
X12070320D01*
Y7640500D01*
X12098500D01*
Y7655001D01*
X12128500D01*
Y7640500D01*
X12156680D01*
Y7701700D01*
X12142179D01*
Y7731700D01*
X12156680D01*
Y7792900D01*
D02*
G37*
G36*
X12029680D02*
X12001500D01*
Y7778399D01*
X11971500D01*
Y7792900D01*
X11943320D01*
Y7731700D01*
X11957821D01*
Y7701700D01*
X11943320D01*
Y7640500D01*
X11971500D01*
Y7655001D01*
X12001500D01*
Y7640500D01*
X12029680D01*
Y7701700D01*
X12015179D01*
Y7731700D01*
X12029680D01*
Y7792900D01*
D02*
G37*
G36*
X8307700Y7782700D02*
X8135000D01*
Y7768199D01*
X8105000D01*
Y7782700D01*
X7932300D01*
Y7705000D01*
X7946801D01*
Y7675000D01*
X7932300D01*
Y7597300D01*
X8105000D01*
Y7611801D01*
X8135000D01*
Y7597300D01*
X8307700D01*
Y7675000D01*
X8293199D01*
Y7705000D01*
X8307700D01*
Y7782700D01*
D02*
G37*
G36*
X9739293Y7981900D02*
X9722306D01*
X9706613Y7975399D01*
X9694601Y7963387D01*
X9688100Y7947694D01*
Y7930707D01*
X9694601Y7915013D01*
X9704014Y7905600D01*
X9700517Y7893517D01*
X9700120Y7892900D01*
X9666320D01*
Y7740500D01*
X9752680D01*
Y7834944D01*
X9753125Y7837180D01*
Y7902229D01*
X9754987Y7903001D01*
X9766999Y7915013D01*
X9773500Y7930707D01*
Y7947694D01*
X9766999Y7963387D01*
X9754987Y7975399D01*
X9739293Y7981900D01*
D02*
G37*
G36*
X11738493Y7812700D02*
X11721506D01*
X11705813Y7806199D01*
X11693801Y7794187D01*
X11687300Y7778493D01*
Y7761506D01*
X11693801Y7745813D01*
X11705813Y7733801D01*
X11721506Y7727300D01*
X11738493D01*
X11739536Y7727732D01*
X11766934Y7700334D01*
X11774443Y7695317D01*
X11783300Y7693555D01*
X11816320D01*
Y7640500D01*
X11902680D01*
Y7792900D01*
X11816320D01*
Y7739845D01*
X11792887D01*
X11772268Y7760464D01*
X11772700Y7761506D01*
Y7778493D01*
X11766199Y7794187D01*
X11754187Y7806199D01*
X11738493Y7812700D01*
D02*
G37*
G36*
X13720000Y7513110D02*
X13547301D01*
Y7498609D01*
X13517300D01*
Y7513110D01*
X13344600D01*
Y7435410D01*
X13359100D01*
Y7405410D01*
X13344600D01*
Y7327710D01*
X13517300D01*
Y7342211D01*
X13547301D01*
Y7327710D01*
X13720000D01*
Y7405410D01*
X13705499D01*
Y7435410D01*
X13720000D01*
Y7513110D01*
D02*
G37*
G36*
X14192700Y7117700D02*
X14114999D01*
Y7103199D01*
X14085001D01*
Y7117700D01*
X14007300D01*
Y6945000D01*
X14021802D01*
Y6915000D01*
X14007300D01*
Y6742300D01*
X14085001D01*
Y6756801D01*
X14114999D01*
Y6742300D01*
X14192700D01*
Y6915000D01*
X14178198D01*
Y6945000D01*
X14192700D01*
Y7117700D01*
D02*
G37*
G36*
X14925000Y7108100D02*
X14814999D01*
Y7092842D01*
X14785001D01*
Y7108100D01*
X14675000D01*
X14652106Y7105086D01*
X14630772Y7096249D01*
X14624455Y7091402D01*
X14634915Y7080941D01*
X14613702Y7059728D01*
X14603242Y7070189D01*
X14598393Y7063872D01*
X14589558Y7042538D01*
X14586543Y7019643D01*
Y6959643D01*
X14601801D01*
Y6929643D01*
X14586543D01*
Y6869644D01*
X14589558Y6846749D01*
X14598393Y6825415D01*
X14603242Y6819098D01*
X14613702Y6829559D01*
X14634915Y6808346D01*
X14624455Y6797885D01*
X14630772Y6793038D01*
X14652106Y6784201D01*
X14675000Y6781187D01*
X14785001D01*
Y6796445D01*
X14814999D01*
Y6781187D01*
X14925000D01*
X14947894Y6784201D01*
X14969228Y6793038D01*
X14975545Y6797885D01*
X14965085Y6808346D01*
X14986298Y6829559D01*
X14996758Y6819098D01*
X15001607Y6825415D01*
X15010442Y6846749D01*
X15013457Y6869644D01*
Y6929643D01*
X14998199D01*
Y6959643D01*
X15013457D01*
Y7019643D01*
X15010442Y7042538D01*
X15001607Y7063872D01*
X14996758Y7070189D01*
X14986298Y7059728D01*
X14965085Y7080941D01*
X14975545Y7091402D01*
X14969228Y7096249D01*
X14947894Y7105086D01*
X14925000Y7108100D01*
D02*
G37*
G36*
X8307809Y7032900D02*
X8135109D01*
Y7018399D01*
X8105109D01*
Y7032900D01*
X7932409D01*
Y6955200D01*
X7946910D01*
Y6925200D01*
X7932409D01*
Y6847500D01*
X8105109D01*
Y6862002D01*
X8135109D01*
Y6847500D01*
X8307809D01*
Y6925200D01*
X8293308D01*
Y6955200D01*
X8307809D01*
Y7032900D01*
D02*
G37*
G36*
X14842700Y6712700D02*
X14764999D01*
Y6698199D01*
X14735001D01*
Y6712700D01*
X14657300D01*
Y6670000D01*
X14671802D01*
Y6640000D01*
X14657300D01*
Y6597300D01*
X14735001D01*
Y6611801D01*
X14764999D01*
Y6597300D01*
X14842700D01*
Y6640000D01*
X14828198D01*
Y6670000D01*
X14842700D01*
Y6712700D01*
D02*
G37*
G36*
X11072700Y6697700D02*
X11035000D01*
Y6683199D01*
X11005000D01*
Y6697700D01*
X10967300D01*
Y6660000D01*
X10981801D01*
Y6630000D01*
X10967300D01*
Y6592300D01*
X11005000D01*
Y6606801D01*
X11035000D01*
Y6592300D01*
X11072700D01*
Y6630000D01*
X11058199D01*
Y6660000D01*
X11072700D01*
Y6697700D01*
D02*
G37*
G36*
X8252700Y6552700D02*
X8210000D01*
Y6538199D01*
X8180000D01*
Y6552700D01*
X8137300D01*
Y6475000D01*
X8151802D01*
Y6445000D01*
X8137300D01*
Y6367300D01*
X8180000D01*
Y6381802D01*
X8210000D01*
Y6367300D01*
X8252700D01*
Y6445000D01*
X8238199D01*
Y6475000D01*
X8252700D01*
Y6552700D01*
D02*
G37*
G36*
X14062700Y5697700D02*
X14025000D01*
Y5683199D01*
X13995000D01*
Y5697700D01*
X13957300D01*
Y5660000D01*
X13971802D01*
Y5630000D01*
X13957300D01*
Y5592300D01*
X13995000D01*
Y5606801D01*
X14025000D01*
Y5592300D01*
X14062700D01*
Y5630000D01*
X14048199D01*
Y5660000D01*
X14062700D01*
Y5697700D01*
D02*
G37*
G36*
X13888493Y5852700D02*
X13871506D01*
X13855814Y5846199D01*
X13843800Y5834187D01*
X13837300Y5818494D01*
Y5801507D01*
X13843800Y5785813D01*
X13855814Y5773801D01*
X13871506Y5767300D01*
X13888493D01*
X13900667Y5772343D01*
X13903117Y5771855D01*
X13957300D01*
Y5742300D01*
X14062700D01*
Y5766855D01*
X14272301D01*
Y5752300D01*
X14306854D01*
Y5587700D01*
X14277299D01*
Y5482300D01*
X14382700D01*
Y5587700D01*
X14353145D01*
Y5752300D01*
X14387700D01*
Y5837700D01*
X14272301D01*
Y5813145D01*
X14062700D01*
Y5847700D01*
X13957300D01*
Y5818145D01*
X13922701D01*
Y5818494D01*
X13916199Y5834187D01*
X13904187Y5846199D01*
X13888493Y5852700D01*
D02*
G37*
G36*
X8652700Y5452700D02*
X8575000D01*
Y5438199D01*
X8545000D01*
Y5452700D01*
X8467300D01*
Y5410000D01*
X8481801D01*
Y5380000D01*
X8467300D01*
Y5337300D01*
X8545000D01*
Y5351802D01*
X8575000D01*
Y5337300D01*
X8652700D01*
Y5380000D01*
X8638199D01*
Y5410000D01*
X8652700D01*
Y5452700D01*
D02*
G37*
G36*
X13307700Y5432700D02*
X13270000D01*
Y5418199D01*
X13239999D01*
Y5432700D01*
X13202299D01*
Y5395000D01*
X13216801D01*
Y5365000D01*
X13202299D01*
Y5327300D01*
X13239999D01*
Y5341801D01*
X13270000D01*
Y5327300D01*
X13307700D01*
Y5365000D01*
X13293199D01*
Y5395000D01*
X13307700D01*
Y5432700D01*
D02*
G37*
G36*
X8515000Y5303457D02*
X8405000D01*
Y5288198D01*
X8375000D01*
Y5303457D01*
X8265000D01*
X8242106Y5300442D01*
X8220772Y5291606D01*
X8214455Y5286758D01*
X8224915Y5276298D01*
X8203702Y5255085D01*
X8193242Y5265545D01*
X8188394Y5259228D01*
X8179558Y5237894D01*
X8176543Y5215000D01*
Y5155000D01*
X8191801D01*
Y5125000D01*
X8176543D01*
Y5065000D01*
X8179558Y5042106D01*
X8188394Y5020772D01*
X8193242Y5014455D01*
X8203702Y5024915D01*
X8224915Y5003702D01*
X8214455Y4993242D01*
X8220772Y4988394D01*
X8242106Y4979557D01*
X8265000Y4976543D01*
X8375000D01*
Y4991801D01*
X8405000D01*
Y4976543D01*
X8515000D01*
X8537894Y4979557D01*
X8559228Y4988394D01*
X8565545Y4993242D01*
X8555085Y5003702D01*
X8576298Y5024915D01*
X8586758Y5014455D01*
X8591606Y5020772D01*
X8600442Y5042106D01*
X8603457Y5065000D01*
Y5125000D01*
X8588199D01*
Y5155000D01*
X8603457D01*
Y5215000D01*
X8600442Y5237894D01*
X8591606Y5259228D01*
X8586758Y5265545D01*
X8576298Y5255085D01*
X8555085Y5276298D01*
X8565545Y5286758D01*
X8559228Y5291606D01*
X8537894Y5300442D01*
X8515000Y5303457D01*
D02*
G37*
%LPD*%
G36*
X13800000Y8600000D02*
Y8260000D01*
X13774432Y8234434D01*
X13762700Y8239294D01*
Y8285000D01*
X13748199D01*
Y8315000D01*
X13762700D01*
Y8377700D01*
X13720000D01*
Y8363199D01*
X13689999D01*
Y8377700D01*
X13647301D01*
Y8315000D01*
X13661801D01*
Y8285000D01*
X13647301D01*
Y8222300D01*
X13647301D01*
X13646333Y8210000D01*
X12730000D01*
X12600000Y8340000D01*
Y8580000D01*
X12720000Y8700000D01*
X13700000D01*
X13800000Y8600000D01*
D02*
G37*
%LPC*%
G36*
X13587700Y8662700D02*
X13214999D01*
Y8648199D01*
X13185001D01*
Y8662700D01*
X12812300D01*
Y8515000D01*
X12826801D01*
Y8485000D01*
X12812300D01*
Y8337300D01*
X13185001D01*
Y8351801D01*
X13214999D01*
Y8337300D01*
X13587700D01*
Y8485000D01*
X13573199D01*
Y8515000D01*
X13587700D01*
Y8662700D01*
D02*
G37*
G36*
X13762700Y8577700D02*
X13720000D01*
Y8563199D01*
X13689999D01*
Y8577700D01*
X13647301D01*
Y8515000D01*
X13661801D01*
Y8485000D01*
X13647301D01*
Y8422300D01*
X13689999D01*
Y8436801D01*
X13720000D01*
Y8422300D01*
X13762700D01*
Y8485000D01*
X13748199D01*
Y8515000D01*
X13762700D01*
Y8577700D01*
D02*
G37*
G36*
X10692700Y7667700D02*
X10490000D01*
Y7653199D01*
X10460000D01*
Y7667700D01*
X10257300D01*
Y7465000D01*
X10271801D01*
Y7435000D01*
X10257300D01*
Y7232300D01*
X10460000D01*
Y7246801D01*
X10490000D01*
Y7232300D01*
X10692700D01*
Y7435000D01*
X10678199D01*
Y7465000D01*
X10692700D01*
Y7667700D01*
D02*
G37*
G36*
X9706200Y6913180D02*
X9645000D01*
Y6898679D01*
X9615000D01*
Y6913180D01*
X9553800D01*
Y6885000D01*
X9568301D01*
Y6855000D01*
X9553800D01*
Y6826820D01*
X9615000D01*
Y6841321D01*
X9645000D01*
Y6826820D01*
X9706200D01*
Y6855000D01*
X9691699D01*
Y6885000D01*
X9706200D01*
Y6913180D01*
D02*
G37*
G36*
Y6786180D02*
X9645000D01*
Y6771679D01*
X9615000D01*
Y6786180D01*
X9553800D01*
Y6758000D01*
X9568301D01*
Y6728000D01*
X9553800D01*
Y6699820D01*
X9615000D01*
Y6714321D01*
X9645000D01*
Y6699820D01*
X9706200D01*
Y6728000D01*
X9691699D01*
Y6758000D01*
X9706200D01*
Y6786180D01*
D02*
G37*
G36*
Y6659180D02*
X9645000D01*
Y6644679D01*
X9615000D01*
Y6659180D01*
X9553800D01*
Y6631000D01*
X9568301D01*
Y6601000D01*
X9553800D01*
Y6572820D01*
X9615000D01*
Y6587321D01*
X9645000D01*
Y6572820D01*
X9706200D01*
Y6601000D01*
X9691699D01*
Y6631000D01*
X9706200D01*
Y6659180D01*
D02*
G37*
G36*
X11642700Y7667700D02*
X11440000D01*
Y7653199D01*
X11410000D01*
Y7667700D01*
X11207300D01*
Y7465000D01*
X11221801D01*
Y7435000D01*
X11207300D01*
Y7232300D01*
X11410000D01*
Y7246801D01*
X11440000D01*
Y7232300D01*
X11642700D01*
Y7435000D01*
X11628199D01*
Y7465000D01*
X11642700D01*
Y7667700D01*
D02*
G37*
G36*
X12309500Y6933680D02*
X12248300D01*
Y6919179D01*
X12218300D01*
Y6933680D01*
X12157100D01*
Y6905500D01*
X12171601D01*
Y6875500D01*
X12157100D01*
Y6847320D01*
X12218300D01*
Y6861821D01*
X12248300D01*
Y6847320D01*
X12309500D01*
Y6875500D01*
X12294999D01*
Y6905500D01*
X12309500D01*
Y6933680D01*
D02*
G37*
G36*
Y6806680D02*
X12248300D01*
Y6792179D01*
X12218300D01*
Y6806680D01*
X12157100D01*
Y6778500D01*
X12171601D01*
Y6748500D01*
X12157100D01*
Y6720320D01*
X12218300D01*
Y6734821D01*
X12248300D01*
Y6720320D01*
X12309500D01*
Y6748500D01*
X12294999D01*
Y6778500D01*
X12309500D01*
Y6806680D01*
D02*
G37*
G36*
Y6679680D02*
X12248300D01*
Y6665179D01*
X12218300D01*
Y6679680D01*
X12157100D01*
Y6651500D01*
X12171601D01*
Y6621500D01*
X12157100D01*
Y6593320D01*
X12218300D01*
Y6607821D01*
X12248300D01*
Y6593320D01*
X12309500D01*
Y6621500D01*
X12294999D01*
Y6651500D01*
X12309500D01*
Y6679680D01*
D02*
G37*
G36*
X10202700Y6352700D02*
X10165000D01*
Y6338199D01*
X10135000D01*
Y6352700D01*
X10097300D01*
Y6315000D01*
X10111801D01*
Y6285000D01*
X10097300D01*
Y6247300D01*
X10135000D01*
Y6261801D01*
X10165000D01*
Y6247300D01*
X10202700D01*
Y6285000D01*
X10188199D01*
Y6315000D01*
X10202700D01*
Y6352700D01*
D02*
G37*
G36*
Y6202700D02*
X10165000D01*
Y6188199D01*
X10135000D01*
Y6202700D01*
X10097300D01*
Y6165000D01*
X10111801D01*
Y6135000D01*
X10097300D01*
Y6097300D01*
X10135000D01*
Y6111801D01*
X10165000D01*
Y6097300D01*
X10202700D01*
Y6135000D01*
X10188199D01*
Y6165000D01*
X10202700D01*
Y6202700D01*
D02*
G37*
G36*
X10343376Y5757700D02*
X10315676D01*
Y5743199D01*
X10285676D01*
Y5757700D01*
X10257976D01*
Y5715000D01*
X10272477D01*
Y5685000D01*
X10257976D01*
Y5642300D01*
X10285676D01*
Y5656801D01*
X10315676D01*
Y5642300D01*
X10343376D01*
Y5685000D01*
X10328874D01*
Y5715000D01*
X10343376D01*
Y5757700D01*
D02*
G37*
G36*
X11564200Y5697790D02*
X11526500D01*
Y5683289D01*
X11496501D01*
Y5697790D01*
X11458801D01*
Y5660091D01*
X11473302D01*
Y5630091D01*
X11458801D01*
Y5592391D01*
X11496501D01*
Y5606892D01*
X11526500D01*
Y5592391D01*
X11564200D01*
Y5630091D01*
X11549699D01*
Y5660091D01*
X11564200D01*
Y5697790D01*
D02*
G37*
G36*
X10343376Y5620300D02*
X10315676D01*
Y5605799D01*
X10285676D01*
Y5620300D01*
X10257976D01*
Y5577600D01*
X10272477D01*
Y5547600D01*
X10257976D01*
Y5504900D01*
X10285676D01*
Y5519401D01*
X10315676D01*
Y5504900D01*
X10343376D01*
Y5547600D01*
X10328874D01*
Y5577600D01*
X10343376D01*
Y5620300D01*
D02*
G37*
G36*
X11323734Y5604975D02*
X11296034D01*
Y5590473D01*
X11266034D01*
Y5604975D01*
X11238334D01*
Y5562275D01*
X11252836D01*
Y5532275D01*
X11238334D01*
Y5489575D01*
X11266034D01*
Y5504076D01*
X11296034D01*
Y5489575D01*
X11323734D01*
Y5532275D01*
X11309233D01*
Y5562275D01*
X11323734D01*
Y5604975D01*
D02*
G37*
G36*
X9711678Y5695700D02*
X9688322D01*
X9665763Y5689655D01*
X9645537Y5677977D01*
X9629022Y5661463D01*
X9617345Y5641237D01*
X9611300Y5618678D01*
Y5595322D01*
X9617345Y5572763D01*
X9629022Y5552537D01*
X9645537Y5536022D01*
X9665763Y5524345D01*
X9688322Y5518300D01*
X9711678D01*
X9734237Y5524345D01*
X9754463Y5536022D01*
X9770977Y5552537D01*
X9782655Y5572763D01*
X9788700Y5595322D01*
Y5618678D01*
X9782655Y5641237D01*
X9770977Y5661463D01*
X9754463Y5677977D01*
X9734237Y5689655D01*
X9711678Y5695700D01*
D02*
G37*
G36*
X9371678D02*
X9348322D01*
X9325763Y5689655D01*
X9305537Y5677977D01*
X9289023Y5661463D01*
X9277345Y5641237D01*
X9271300Y5618678D01*
Y5595322D01*
X9277345Y5572763D01*
X9289023Y5552537D01*
X9305537Y5536022D01*
X9325763Y5524345D01*
X9348322Y5518300D01*
X9371678D01*
X9394237Y5524345D01*
X9414463Y5536022D01*
X9430978Y5552537D01*
X9442655Y5572763D01*
X9448700Y5595322D01*
Y5618678D01*
X9442655Y5641237D01*
X9430978Y5661463D01*
X9414463Y5677977D01*
X9394237Y5689655D01*
X9371678Y5695700D01*
D02*
G37*
G36*
X11560500Y5507100D02*
X11522800D01*
Y5492599D01*
X11492800D01*
Y5507100D01*
X11455100D01*
Y5469400D01*
X11469601D01*
Y5439400D01*
X11455100D01*
Y5401700D01*
X11492800D01*
Y5416201D01*
X11522800D01*
Y5401700D01*
X11560500D01*
Y5439400D01*
X11545999D01*
Y5469400D01*
X11560500D01*
Y5507100D01*
D02*
G37*
G36*
X11233700Y5426300D02*
X11191000D01*
Y5411799D01*
X11161000D01*
Y5426300D01*
X11118300D01*
Y5398600D01*
X11132801D01*
Y5368600D01*
X11118300D01*
Y5340900D01*
X11161000D01*
Y5355402D01*
X11191000D01*
Y5340900D01*
X11233700D01*
Y5368600D01*
X11219199D01*
Y5398600D01*
X11233700D01*
Y5426300D01*
D02*
G37*
G36*
X10754031Y5357249D02*
X10696331D01*
Y5342748D01*
X10666331D01*
Y5357249D01*
X10608631D01*
Y5299549D01*
X10623132D01*
Y5269549D01*
X10608631D01*
Y5211849D01*
X10666331D01*
Y5226350D01*
X10696331D01*
Y5211849D01*
X10754031D01*
Y5269549D01*
X10739530D01*
Y5299549D01*
X10754031D01*
Y5357249D01*
D02*
G37*
G36*
X11572800Y5145400D02*
X11535100D01*
Y5130899D01*
X11505100D01*
Y5145400D01*
X11467400D01*
Y5107700D01*
X11481901D01*
Y5077700D01*
X11467400D01*
Y5040000D01*
X11505100D01*
Y5054501D01*
X11535100D01*
Y5040000D01*
X11572800D01*
Y5077700D01*
X11558299D01*
Y5107700D01*
X11572800D01*
Y5145400D01*
D02*
G37*
G36*
X11398494Y5522700D02*
X11381507D01*
X11365813Y5516199D01*
X11353801Y5504187D01*
X11347300Y5488493D01*
Y5471506D01*
X11353801Y5455813D01*
X11365813Y5443801D01*
X11366855Y5443369D01*
Y5319587D01*
X11310834Y5263566D01*
X11305817Y5256057D01*
X11304055Y5247200D01*
Y5163100D01*
X11284500D01*
Y5047700D01*
X11369900D01*
Y5163100D01*
X11350345D01*
Y5237613D01*
X11406366Y5293634D01*
X11411383Y5301143D01*
X11413145Y5310000D01*
Y5443369D01*
X11414187Y5443801D01*
X11426199Y5455813D01*
X11432700Y5471506D01*
Y5488493D01*
X11426199Y5504187D01*
X11414187Y5516199D01*
X11398494Y5522700D01*
D02*
G37*
G36*
X10331309Y5101764D02*
X10245909D01*
Y4986364D01*
X10331309D01*
Y5014102D01*
X10355511D01*
X10365813Y5003801D01*
X10381507Y4997300D01*
X10398494D01*
X10414187Y5003801D01*
X10426199Y5015813D01*
X10432700Y5031507D01*
Y5048494D01*
X10426199Y5064187D01*
X10414187Y5076199D01*
X10398494Y5082700D01*
X10381507D01*
X10365813Y5076199D01*
X10355511Y5065898D01*
X10331309D01*
Y5101764D01*
D02*
G37*
G36*
X11572800Y5005700D02*
X11535100D01*
Y4991199D01*
X11505100D01*
Y5005700D01*
X11467400D01*
Y4968000D01*
X11481901D01*
Y4938000D01*
X11467400D01*
Y4900300D01*
X11505100D01*
Y4914801D01*
X11535100D01*
Y4900300D01*
X11572800D01*
Y4938000D01*
X11558299D01*
Y4968000D01*
X11572800D01*
Y5005700D01*
D02*
G37*
G36*
X9917700Y5087700D02*
X9832300D01*
Y4972300D01*
X9917700D01*
Y5004103D01*
X9955511D01*
X9965813Y4993801D01*
X9981507Y4987300D01*
X9998494D01*
X10014187Y4993801D01*
X10026199Y5005813D01*
X10032700Y5021507D01*
Y5038494D01*
X10026199Y5054188D01*
X10014187Y5066199D01*
X9998494Y5072700D01*
X9981507D01*
X9965813Y5066199D01*
X9955511Y5055898D01*
X9917700D01*
Y5087700D01*
D02*
G37*
G36*
X10123450Y5444457D02*
X10047451D01*
X10027668Y5440522D01*
X10010898Y5429317D01*
X9999692Y5412546D01*
X9995757Y5392764D01*
Y5316764D01*
X9999692Y5296982D01*
X10010898Y5280211D01*
X10027555Y5269081D01*
Y5146973D01*
X10029317Y5138115D01*
X10034334Y5130607D01*
X10095908Y5069033D01*
Y4986364D01*
X10181308D01*
Y5101764D01*
X10128640D01*
X10073845Y5156559D01*
Y5265071D01*
X10123450D01*
X10143233Y5269006D01*
X10160003Y5280211D01*
X10171209Y5296982D01*
X10175144Y5316764D01*
Y5392764D01*
X10171209Y5412546D01*
X10160003Y5429317D01*
X10143233Y5440522D01*
X10123450Y5444457D01*
D02*
G37*
G36*
X9547700Y5087700D02*
X9462300D01*
Y4972300D01*
X9547700D01*
Y4994103D01*
X9575511D01*
X9585813Y4983801D01*
X9601507Y4977300D01*
X9618494D01*
X9634187Y4983801D01*
X9646199Y4995813D01*
X9652700Y5011507D01*
Y5028494D01*
X9646199Y5044188D01*
X9634187Y5056199D01*
X9618494Y5062700D01*
X9601507D01*
X9585813Y5056199D01*
X9575511Y5045898D01*
X9547700D01*
Y5087700D01*
D02*
G37*
G36*
X9738000Y5442693D02*
X9662000D01*
X9642218Y5438758D01*
X9625447Y5427553D01*
X9614242Y5410782D01*
X9610307Y5391000D01*
Y5315000D01*
X9614242Y5295218D01*
X9625447Y5278447D01*
X9642218Y5267242D01*
X9662000Y5263307D01*
X9681855D01*
Y5050000D01*
X9682300Y5047764D01*
Y4972300D01*
X9767700D01*
Y5087700D01*
X9728145D01*
Y5263307D01*
X9738000D01*
X9757782Y5267242D01*
X9774552Y5278447D01*
X9785758Y5295218D01*
X9789693Y5315000D01*
Y5391000D01*
X9785758Y5410782D01*
X9774552Y5427553D01*
X9757782Y5438758D01*
X9738000Y5442693D01*
D02*
G37*
G36*
X12318504Y5172700D02*
X12294096D01*
X12270519Y5166382D01*
X12249381Y5154178D01*
X12232122Y5136919D01*
X12219918Y5115781D01*
X12213600Y5092204D01*
Y5067796D01*
X12219918Y5044219D01*
X12232122Y5023081D01*
X12249381Y5005822D01*
X12270519Y4993618D01*
X12294096Y4987300D01*
X12318504D01*
X12342081Y4993618D01*
X12363219Y5005822D01*
X12380478Y5023081D01*
X12392682Y5044219D01*
X12399000Y5067796D01*
Y5092204D01*
X12392682Y5115781D01*
X12380478Y5136919D01*
X12363219Y5154178D01*
X12342081Y5166382D01*
X12318504Y5172700D01*
D02*
G37*
G36*
X13672701Y6672700D02*
X13505000D01*
Y6658199D01*
X13475000D01*
Y6672700D01*
X13307300D01*
Y6570000D01*
X13321802D01*
Y6540000D01*
X13307300D01*
Y6437300D01*
X13475000D01*
Y6451801D01*
X13505000D01*
Y6437300D01*
X13672701D01*
Y6540000D01*
X13658199D01*
Y6570000D01*
X13672701D01*
Y6672700D01*
D02*
G37*
G36*
X14192700Y6557700D02*
X14114999D01*
Y6543199D01*
X14085001D01*
Y6557700D01*
X14007300D01*
Y6385000D01*
X14021802D01*
Y6355000D01*
X14007300D01*
Y6182300D01*
X14085001D01*
Y6196801D01*
X14114999D01*
Y6182300D01*
X14192700D01*
Y6355000D01*
X14178198D01*
Y6385000D01*
X14192700D01*
Y6557700D01*
D02*
G37*
G36*
X14842700Y6402700D02*
X14764999D01*
Y6388199D01*
X14735001D01*
Y6402700D01*
X14657300D01*
Y6360000D01*
X14671802D01*
Y6330000D01*
X14657300D01*
Y6287300D01*
X14735001D01*
Y6301801D01*
X14764999D01*
Y6287300D01*
X14842700D01*
Y6330000D01*
X14828198D01*
Y6360000D01*
X14842700D01*
Y6402700D01*
D02*
G37*
G36*
X14925000Y6163457D02*
X14814999D01*
Y6148199D01*
X14785001D01*
Y6163457D01*
X14675000D01*
X14652106Y6160442D01*
X14630772Y6151606D01*
X14624455Y6146758D01*
X14634915Y6136298D01*
X14613702Y6115085D01*
X14603242Y6125545D01*
X14598393Y6119228D01*
X14589558Y6097894D01*
X14586543Y6075000D01*
Y6015000D01*
X14601801D01*
Y5985000D01*
X14586543D01*
Y5925000D01*
X14589558Y5902106D01*
X14598393Y5880772D01*
X14603242Y5874455D01*
X14613702Y5884915D01*
X14634915Y5863702D01*
X14624455Y5853242D01*
X14630772Y5848394D01*
X14652106Y5839558D01*
X14675000Y5836543D01*
X14785001D01*
Y5851801D01*
X14814999D01*
Y5836543D01*
X14925000D01*
X14947894Y5839558D01*
X14969228Y5848394D01*
X14975545Y5853242D01*
X14965085Y5863702D01*
X14986298Y5884915D01*
X14996759Y5874455D01*
X15001607Y5880772D01*
X15010442Y5902106D01*
X15013457Y5925000D01*
Y5985000D01*
X14998199D01*
Y6015000D01*
X15013457D01*
Y6075000D01*
X15010442Y6097894D01*
X15001607Y6119228D01*
X14996759Y6125545D01*
X14986298Y6115085D01*
X14965085Y6136298D01*
X14975545Y6146758D01*
X14969228Y6151606D01*
X14947894Y6160442D01*
X14925000Y6163457D01*
D02*
G37*
G36*
X14387700Y5987700D02*
X14345000D01*
Y5973199D01*
X14314999D01*
Y5987700D01*
X14272301D01*
Y5960000D01*
X14286801D01*
Y5930000D01*
X14272301D01*
Y5902300D01*
X14314999D01*
Y5916801D01*
X14345000D01*
Y5902300D01*
X14387700D01*
Y5930000D01*
X14373199D01*
Y5960000D01*
X14387700D01*
Y5987700D01*
D02*
G37*
G36*
X13160001Y7513110D02*
X12987300D01*
Y7498609D01*
X12957300D01*
Y7513110D01*
X12784600D01*
Y7435410D01*
X12799101D01*
Y7405410D01*
X12784600D01*
Y7327710D01*
X12957300D01*
Y7342211D01*
X12987300D01*
Y7327710D01*
X13160001D01*
Y7405410D01*
X13145499D01*
Y7435410D01*
X13160001D01*
Y7513110D01*
D02*
G37*
G36*
X13672701Y6042700D02*
X13505000D01*
Y6028199D01*
X13475000D01*
Y6042700D01*
X13307300D01*
Y5940000D01*
X13321802D01*
Y5910000D01*
X13307300D01*
Y5807300D01*
X13475000D01*
Y5821801D01*
X13505000D01*
Y5807300D01*
X13672701D01*
Y5910000D01*
X13658199D01*
Y5940000D01*
X13672701D01*
Y6042700D01*
D02*
G37*
G36*
X12957700Y5765200D02*
X12935001D01*
Y5750699D01*
X12905000D01*
Y5765200D01*
X12882300D01*
Y5735000D01*
X12896802D01*
Y5705000D01*
X12882300D01*
Y5674800D01*
X12905000D01*
Y5689301D01*
X12935001D01*
Y5674800D01*
X12957700D01*
Y5705000D01*
X12943199D01*
Y5735000D01*
X12957700D01*
Y5765200D01*
D02*
G37*
G36*
X12830701D02*
X12808000D01*
Y5750699D01*
X12778000D01*
Y5765200D01*
X12755300D01*
Y5735000D01*
X12769801D01*
Y5705000D01*
X12755300D01*
Y5674800D01*
X12778000D01*
Y5689301D01*
X12808000D01*
Y5674800D01*
X12830701D01*
Y5705000D01*
X12816199D01*
Y5735000D01*
X12830701D01*
Y5765200D01*
D02*
G37*
G36*
X13051700Y5515200D02*
X13028999D01*
Y5500699D01*
X12999001D01*
Y5515200D01*
X12976300D01*
Y5485000D01*
X12990800D01*
Y5455000D01*
X12976300D01*
Y5424800D01*
X12999001D01*
Y5439301D01*
X13028999D01*
Y5424800D01*
X13051700D01*
Y5455000D01*
X13037198D01*
Y5485000D01*
X13051700D01*
Y5515200D01*
D02*
G37*
G36*
X12924699D02*
X12902000D01*
Y5500699D01*
X12872000D01*
Y5515200D01*
X12849300D01*
Y5485000D01*
X12863802D01*
Y5455000D01*
X12849300D01*
Y5424800D01*
X12872000D01*
Y5439301D01*
X12902000D01*
Y5424800D01*
X12924699D01*
Y5455000D01*
X12910197D01*
Y5485000D01*
X12924699D01*
Y5515200D01*
D02*
G37*
G36*
X12797700D02*
X12775000D01*
Y5500699D01*
X12745000D01*
Y5515200D01*
X12722300D01*
Y5485000D01*
X12736801D01*
Y5455000D01*
X12722300D01*
Y5424800D01*
X12745000D01*
Y5439301D01*
X12775000D01*
Y5424800D01*
X12797700D01*
Y5455000D01*
X12783198D01*
Y5485000D01*
X12797700D01*
Y5515200D01*
D02*
G37*
G36*
X8867700Y7782700D02*
X8695000D01*
Y7768199D01*
X8665000D01*
Y7782700D01*
X8492300D01*
Y7705000D01*
X8506801D01*
Y7675000D01*
X8492300D01*
Y7597300D01*
X8665000D01*
Y7611801D01*
X8695000D01*
Y7597300D01*
X8867700D01*
Y7675000D01*
X8853199D01*
Y7705000D01*
X8867700D01*
Y7782700D01*
D02*
G37*
G36*
X8867809Y7032900D02*
X8695109D01*
Y7018399D01*
X8665109D01*
Y7032900D01*
X8492409D01*
Y6955200D01*
X8506910D01*
Y6925200D01*
X8492409D01*
Y6847500D01*
X8665109D01*
Y6862002D01*
X8695109D01*
Y6847500D01*
X8867809D01*
Y6925200D01*
X8853308D01*
Y6955200D01*
X8867809D01*
Y7032900D01*
D02*
G37*
G36*
X8562700Y6552700D02*
X8520000D01*
Y6538199D01*
X8490000D01*
Y6552700D01*
X8447300D01*
Y6475000D01*
X8461801D01*
Y6445000D01*
X8447300D01*
Y6367300D01*
X8490000D01*
Y6381802D01*
X8520000D01*
Y6367300D01*
X8562700D01*
Y6445000D01*
X8548199D01*
Y6475000D01*
X8562700D01*
Y6552700D01*
D02*
G37*
G36*
X8495000Y6163457D02*
X8385000D01*
Y6148199D01*
X8355000D01*
Y6163457D01*
X8245000D01*
X8222106Y6160442D01*
X8200772Y6151606D01*
X8194455Y6146758D01*
X8204915Y6136298D01*
X8183702Y6115085D01*
X8173242Y6125545D01*
X8168394Y6119228D01*
X8159558Y6097894D01*
X8156544Y6075000D01*
Y6015000D01*
X8171801D01*
Y5985000D01*
X8156544D01*
Y5925000D01*
X8159558Y5902106D01*
X8168394Y5880772D01*
X8173242Y5874455D01*
X8183702Y5884915D01*
X8204915Y5863702D01*
X8194455Y5853242D01*
X8200772Y5848394D01*
X8222106Y5839558D01*
X8245000Y5836543D01*
X8355000D01*
Y5851801D01*
X8385000D01*
Y5836543D01*
X8495000D01*
X8517894Y5839558D01*
X8539228Y5848394D01*
X8545545Y5853242D01*
X8535085Y5863702D01*
X8556298Y5884915D01*
X8566758Y5874455D01*
X8571606Y5880772D01*
X8580442Y5902106D01*
X8583457Y5925000D01*
Y5985000D01*
X8568199D01*
Y6015000D01*
X8583457D01*
Y6075000D01*
X8580442Y6097894D01*
X8571606Y6119228D01*
X8566758Y6125545D01*
X8556298Y6115085D01*
X8535085Y6136298D01*
X8545545Y6146758D01*
X8539228Y6151606D01*
X8517894Y6160442D01*
X8495000Y6163457D01*
D02*
G37*
G36*
X8652700Y5762700D02*
X8575000D01*
Y5748199D01*
X8545000D01*
Y5762700D01*
X8467300D01*
Y5720000D01*
X8481801D01*
Y5690000D01*
X8467300D01*
Y5647300D01*
X8545000D01*
Y5661801D01*
X8575000D01*
Y5647300D01*
X8652700D01*
Y5690000D01*
X8638199D01*
Y5720000D01*
X8652700D01*
Y5762700D01*
D02*
G37*
G36*
X8422700Y5687700D02*
X8385000D01*
Y5673199D01*
X8355000D01*
Y5687700D01*
X8317300D01*
Y5650000D01*
X8331801D01*
Y5620000D01*
X8317300D01*
Y5582300D01*
X8355000D01*
Y5596801D01*
X8385000D01*
Y5582300D01*
X8422700D01*
Y5620000D01*
X8408199D01*
Y5650000D01*
X8422700D01*
Y5687700D01*
D02*
G37*
G36*
X8292700D02*
X8255000D01*
Y5673199D01*
X8225000D01*
Y5687700D01*
X8187300D01*
Y5650000D01*
X8201801D01*
Y5620000D01*
X8187300D01*
Y5582300D01*
X8225000D01*
Y5596801D01*
X8255000D01*
Y5582300D01*
X8292700D01*
Y5620000D01*
X8278199D01*
Y5650000D01*
X8292700D01*
Y5687700D01*
D02*
G37*
%LPD*%
D10*
X13199995Y8000000D02*
D03*
X13200000Y8500000D02*
D03*
D11*
X14100000Y6930000D02*
D03*
Y6370000D02*
D03*
D12*
X11425000Y7450000D02*
D03*
X10475000D02*
D03*
D13*
X14330000Y5795000D02*
D03*
Y5945000D02*
D03*
X11380000Y5665000D02*
D03*
Y5815000D02*
D03*
X11804400Y4930600D02*
D03*
Y5080600D02*
D03*
X11949200Y4930600D02*
D03*
Y5080600D02*
D03*
X14600002Y8025000D02*
D03*
Y7875000D02*
D03*
X14750002D02*
D03*
Y8025000D02*
D03*
X13400000Y5725000D02*
D03*
Y5575000D02*
D03*
X11176000Y5233600D02*
D03*
Y5383600D02*
D03*
X10150000Y5875000D02*
D03*
Y6025000D02*
D03*
D14*
X14010001Y5795000D02*
D03*
Y5645000D02*
D03*
X14330000Y5535000D02*
D03*
Y5385000D02*
D03*
X13739999Y8015000D02*
D03*
Y7865000D02*
D03*
X13870000Y8015000D02*
D03*
Y7865000D02*
D03*
X11507800Y5304400D02*
D03*
Y5454400D02*
D03*
X10890000Y6495000D02*
D03*
Y6645000D02*
D03*
X11020000Y6495000D02*
D03*
Y6645000D02*
D03*
X8370000Y5635000D02*
D03*
Y5485000D02*
D03*
X8240000Y5635000D02*
D03*
Y5485000D02*
D03*
X11650000Y6345000D02*
D03*
Y6495000D02*
D03*
D15*
X13255000Y5380000D02*
D03*
X13405000D02*
D03*
X11511500Y5645091D02*
D03*
X11661500D02*
D03*
X14395000Y8260000D02*
D03*
X14245000D02*
D03*
X11670100Y5092700D02*
D03*
X11520100D02*
D03*
X11670100Y4953000D02*
D03*
X11520100D02*
D03*
X10300000Y6300000D02*
D03*
X10150000D02*
D03*
X10300000Y6150000D02*
D03*
X10150000D02*
D03*
X10495000Y6010000D02*
D03*
X10345000D02*
D03*
X10425000Y6450000D02*
D03*
X10575000D02*
D03*
D16*
X9355000Y5030000D02*
D03*
X9505000D02*
D03*
X9725000D02*
D03*
X9875000D02*
D03*
X10138608Y5044064D02*
D03*
X10288609D02*
D03*
X11655000Y5810000D02*
D03*
X11505000D02*
D03*
X11327200Y5105400D02*
D03*
X11177200D02*
D03*
X10300676Y5700000D02*
D03*
X10450676D02*
D03*
X11131034Y5547275D02*
D03*
X11281034D02*
D03*
X10300676Y5562600D02*
D03*
X10450676D02*
D03*
Y5850000D02*
D03*
X10300676D02*
D03*
D17*
X9630000Y6616000D02*
D03*
Y6743000D02*
D03*
Y6870000D02*
D03*
Y6997000D02*
D03*
X12233300Y6890500D02*
D03*
Y6763500D02*
D03*
Y6636500D02*
D03*
Y6509500D02*
D03*
D18*
X9298768Y6799594D02*
D03*
X12056906Y7385468D02*
D03*
X9906906Y7485468D02*
D03*
X12564532Y6706906D02*
D03*
D19*
X14800000Y6944643D02*
D03*
X14800000Y6000000D02*
D03*
X8370000D02*
D03*
X8390000Y5140000D02*
D03*
D20*
X12240500Y7716700D02*
D03*
X12113500D02*
D03*
X11986500D02*
D03*
X11859500D02*
D03*
X10090500Y7816700D02*
D03*
X9963500D02*
D03*
X9836500D02*
D03*
X9709500D02*
D03*
D21*
X12972301Y7420410D02*
D03*
X13532300D02*
D03*
X8120109Y6940200D02*
D03*
X8680109D02*
D03*
X8120000Y7690000D02*
D03*
X8680000D02*
D03*
D22*
X10350000Y8500000D02*
D03*
X8140000Y8460000D02*
D03*
D23*
X8867094Y8349656D02*
D03*
X12852905Y6040344D02*
D03*
X12827094Y5149656D02*
D03*
X9850000Y8564742D02*
D03*
D24*
X8673000Y8670000D02*
D03*
X8800000D02*
D03*
X8927000D02*
D03*
X9054000D02*
D03*
X13047000Y5720000D02*
D03*
X12920000D02*
D03*
X12793000D02*
D03*
X12666000D02*
D03*
X12633000Y5470000D02*
D03*
X12760000D02*
D03*
X12887000D02*
D03*
X13014000D02*
D03*
D25*
X14439999Y7500000D02*
D03*
X14160001D02*
D03*
X12170000Y8000000D02*
D03*
X12450000D02*
D03*
D26*
X13895000Y8500000D02*
D03*
X13705000D02*
D03*
X13895000Y8300000D02*
D03*
X13705000D02*
D03*
D27*
X14360030Y8095000D02*
D03*
Y8000000D02*
D03*
Y7905000D02*
D03*
X14139970D02*
D03*
Y8000000D02*
D03*
D28*
Y8095000D02*
D03*
D29*
X13489999Y5925000D02*
D03*
Y6555000D02*
D03*
D30*
X11711500Y5239400D02*
D03*
X11911500D02*
D03*
Y5519400D02*
D03*
X11711500D02*
D03*
D31*
X11761500Y5249400D02*
D03*
X11811500D02*
D03*
X11861500D02*
D03*
Y5509400D02*
D03*
X11811500D02*
D03*
X11761500D02*
D03*
D32*
X11671500Y5479400D02*
D03*
Y5279400D02*
D03*
X11951500D02*
D03*
Y5479400D02*
D03*
D33*
X11681500Y5429400D02*
D03*
Y5379400D02*
D03*
Y5329400D02*
D03*
X11941500D02*
D03*
Y5379400D02*
D03*
Y5429400D02*
D03*
D34*
X14750000Y6655000D02*
D03*
Y6345000D02*
D03*
X8560000Y5395000D02*
D03*
Y5705000D02*
D03*
D35*
X11645000Y6700000D02*
D03*
X11355000D02*
D03*
X10545000D02*
D03*
X10255000D02*
D03*
D36*
X10953801Y5975200D02*
D03*
D37*
X10663801Y5800200D02*
D03*
Y5850200D02*
D03*
Y5900200D02*
D03*
Y5950200D02*
D03*
Y6000200D02*
D03*
Y6050200D02*
D03*
Y6100200D02*
D03*
Y6150200D02*
D03*
X11243800D02*
D03*
Y6100200D02*
D03*
Y6050200D02*
D03*
Y6000200D02*
D03*
Y5950200D02*
D03*
Y5900200D02*
D03*
Y5850200D02*
D03*
Y5800200D02*
D03*
D38*
X10728800Y6215200D02*
D03*
X10778801D02*
D03*
X10828801D02*
D03*
X10878800D02*
D03*
X10928801D02*
D03*
X10978800D02*
D03*
X11028801D02*
D03*
X11078801D02*
D03*
X11128800D02*
D03*
X11178801D02*
D03*
Y5735200D02*
D03*
X11128800D02*
D03*
X11078801D02*
D03*
X11028801D02*
D03*
X10978800D02*
D03*
X10928801D02*
D03*
X10878800D02*
D03*
X10828801D02*
D03*
X10778801D02*
D03*
X10728800D02*
D03*
D39*
X9314956Y8702179D02*
D03*
Y8372179D02*
D03*
D40*
X9529656Y8751648D02*
D03*
Y8624648D02*
D03*
Y8497648D02*
D03*
Y8370648D02*
D03*
D41*
X8195000Y6460000D02*
D03*
X8505000D02*
D03*
D42*
X13200583Y8000589D02*
X13641495D01*
X13199995Y8000000D02*
X13200583Y8000589D01*
X10990000Y8500000D02*
X11490000Y8000000D01*
X10350000Y8500000D02*
X10990000D01*
X11490000Y8000000D02*
X12170000D01*
X14000000D02*
X14000000Y8000000D01*
X14139970D01*
X14147267Y8231124D02*
X14216124D01*
X14245000Y8260000D01*
X14439999Y6650000D02*
Y7500000D01*
Y6625474D02*
Y6650000D01*
X14427737Y6637737D02*
X14439999Y6625474D01*
X14400000Y6610000D02*
X14439999Y6650000D01*
X14439999D01*
Y6617074D02*
X14443195Y6613880D01*
X14439999Y6617074D02*
Y6625474D01*
X14467737Y6597737D01*
X13870000Y7778000D02*
X14148000Y7500000D01*
X13870000Y7778000D02*
Y7865000D01*
X14057962D01*
X14148000Y7500000D02*
X14160001D01*
X13630000Y7740000D02*
X13747501Y7857500D01*
X12722000Y7740000D02*
X13630000D01*
X12462000Y8000000D02*
X12722000Y7740000D01*
X13739999Y7865000D02*
X13870000D01*
X14089479Y7896516D02*
Y7901668D01*
X14092812Y7905000D01*
X14139970D01*
X14057962Y7865000D02*
X14089479Y7896516D01*
X12450000Y8000000D02*
X12462000D01*
D43*
X11028801Y6279330D02*
X11033395Y6283924D01*
Y6304627D02*
X11040092Y6311323D01*
X11033395Y6283924D02*
Y6304627D01*
X11028801Y6215200D02*
Y6279330D01*
X11041301Y5820200D02*
X11069801D01*
X11028801Y5807700D02*
X11041301Y5820200D01*
X11028801Y5735200D02*
Y5807700D01*
X11041301Y6130200D02*
X11069801D01*
X11028801Y6142700D02*
X11041301Y6130200D01*
X11028801Y6142700D02*
Y6215200D01*
X11099801Y6100200D02*
X11243800D01*
X10323793Y6173793D02*
X10541219D01*
X10565012Y6150000D01*
X10300000D02*
X10323793Y6173793D01*
X10290260Y6140260D02*
X10300000Y6150000D01*
X10290260Y6087051D02*
Y6140260D01*
X10228209Y6025000D02*
X10290260Y6087051D01*
X10150000Y6025000D02*
X10228209D01*
X10565012Y6150000D02*
X10663601D01*
X9689712Y8259712D02*
X9690000Y8260000D01*
X9630289Y8259712D02*
X9689712D01*
X9630289D02*
X9850000Y8479423D01*
X9590000Y8219423D02*
X9630289Y8259712D01*
X9850000Y8479423D02*
Y8564742D01*
X9590000Y7880000D02*
Y8219423D01*
X10270000Y6390000D02*
X10300000Y6360000D01*
Y6300000D02*
Y6360000D01*
X10663601Y6150000D02*
X10663801Y6150200D01*
X12224042Y6100000D02*
X12604042Y5720000D01*
X11351935Y6100000D02*
X12224042D01*
X11302135Y6050200D02*
X11351935Y6100000D01*
X12604042Y5720000D02*
X12666000D01*
X11243800Y6000200D02*
X11320729D01*
X11340529Y6020000D01*
X11350000D01*
X11243800Y6050200D02*
X11302135D01*
X10662451Y6101550D02*
X10663801Y6100200D01*
X10591350Y6101550D02*
X10662451D01*
X10590000Y6102900D02*
X10591350Y6101550D01*
X10663801Y6100200D02*
Y6150000D01*
X10300000D02*
Y6300000D01*
D44*
X10289087Y5879088D02*
X10348960D01*
X10400772Y5930900D02*
X10490200D01*
X10287838Y5877838D02*
X10289087Y5879088D01*
X10348960D02*
X10400772Y5930900D01*
X10287838Y5860446D02*
Y5877838D01*
X10150000Y5875000D02*
X10225000D01*
X10280676Y5853284D02*
X10287838Y5860446D01*
X10246716Y5853284D02*
X10280676D01*
X10225000Y5875000D02*
X10246716Y5853284D01*
X10450676Y5850200D02*
X10663801D01*
X10450676Y5705067D02*
Y5850200D01*
X11327200Y5247200D02*
X11390000Y5310000D01*
Y5480000D01*
X11327200Y5105400D02*
Y5247200D01*
X10990824Y6370000D02*
X11000000D01*
X10960824Y6400000D02*
X10990824Y6370000D01*
X10950000Y6400000D02*
X10960824D01*
X11000000Y6370000D02*
X11020000Y6390000D01*
X10543475Y6072700D02*
X10544403D01*
X10514870Y6101306D02*
X10543475Y6072700D01*
X10504046Y6101306D02*
X10514870D01*
X10544403Y6072700D02*
X10566903Y6050200D01*
X9729980Y7938380D02*
X9730800Y7939200D01*
X9709500Y7816700D02*
X9729980Y7837180D01*
Y7938380D01*
X9657700Y7119176D02*
Y7130000D01*
X9630000Y6997000D02*
Y7091476D01*
X9657700Y7119176D01*
X10870000Y6320000D02*
X10876300Y6313700D01*
Y6217700D02*
Y6313700D01*
Y6217700D02*
X10878800Y6215200D01*
X10930000Y6216399D02*
Y6350000D01*
X10828801Y6215200D02*
Y6281200D01*
X10928801Y6215200D02*
X10930000Y6216399D01*
X10760000Y6350000D02*
X10828801Y6281200D01*
X10728860Y6295458D02*
X10776301Y6248018D01*
Y6217700D02*
Y6248018D01*
Y6217700D02*
X10778801Y6215200D01*
X10675000Y6350000D02*
X10760000D01*
X11540000Y6220000D02*
X11780000D01*
X12069500Y6509500D02*
X12233300D01*
X11780000Y6220000D02*
X12069500Y6509500D01*
X11178801Y6215200D02*
X11315200D01*
X11320000Y6220000D01*
X11243800Y6150200D02*
X11360200D01*
X11555000Y6345000D01*
X11128800Y6215200D02*
X11130000Y6216400D01*
Y6260000D01*
X11150000Y6280000D01*
X11230000D01*
X11445000Y6495000D01*
X11650000D01*
X11645000Y6500000D02*
X11650000Y6495000D01*
X11645000Y6500000D02*
Y6700000D01*
X11078801Y6215200D02*
Y6258801D01*
X11190000Y6370000D01*
X11730000Y7770000D02*
X11783300Y7716700D01*
X11859500D01*
X10527687Y5893413D02*
X10613015D01*
X10490200Y5930900D02*
X10527687Y5893413D01*
X10934501Y5575499D02*
Y5674584D01*
Y5575499D02*
X10940000Y5570000D01*
X10878800Y5735200D02*
X10881301Y5732700D01*
Y5710200D02*
Y5732700D01*
Y5710200D02*
X10881801Y5709699D01*
Y5652755D02*
Y5709699D01*
X10928801Y5680285D02*
Y5735200D01*
Y5680285D02*
X10934501Y5674584D01*
X10658754Y5647653D02*
X10728800Y5717700D01*
X10647654Y5647653D02*
X10658754D01*
X10640000Y5640000D02*
X10647654Y5647653D01*
X10728800Y5717700D02*
Y5735200D01*
X10800000Y5640824D02*
X10828801Y5669624D01*
X10800000Y5630000D02*
Y5640824D01*
X10776301Y5732700D02*
X10778801Y5735200D01*
X10776301Y5696301D02*
Y5732700D01*
X10620000Y5540000D02*
X10776301Y5696301D01*
X10828801Y5669624D02*
Y5735200D01*
X9700000Y5353000D02*
X9705000Y5348000D01*
Y5050000D02*
Y5348000D01*
Y5050000D02*
X9725000Y5030000D01*
X9360000Y5035000D02*
Y5353000D01*
X9355000Y5030000D02*
X9360000Y5035000D01*
X10978800Y5661200D02*
X11002700Y5637300D01*
X10978800Y5661200D02*
Y5735200D01*
X11002700Y5532700D02*
Y5637300D01*
X10900000Y5430000D02*
X11002700Y5532700D01*
X10229464Y5430000D02*
X10900000D01*
X11078334Y5538334D02*
Y5601677D01*
X10896580Y5356580D02*
X11078334Y5538334D01*
X11078801Y5602144D02*
Y5735200D01*
X11078334Y5601677D02*
X11078801Y5602144D01*
X10885431Y5283200D02*
X10896580Y5294349D01*
Y5356580D01*
X10050700Y5608764D02*
X10229464Y5430000D01*
X13903117Y5795000D02*
X14010001D01*
X13880000Y5810000D02*
X13888118D01*
X13903117Y5795000D01*
X14010001D02*
X14014999Y5790000D01*
X14325000D01*
X14330000Y5795000D01*
X13485001Y6560000D02*
X13489999Y6555000D01*
X13239999Y6560000D02*
X13485001D01*
X11710000Y5810000D02*
X11860000Y5960000D01*
X11655000Y5810000D02*
X11710000D01*
X11246301Y5902700D02*
X11592700D01*
X11600000Y5910000D01*
X11243800Y5900200D02*
X11246301Y5902700D01*
X11243800Y5850200D02*
X11244000Y5850000D01*
X11300000D01*
X11340000Y5810000D01*
X11505000D01*
X11243800Y5726200D02*
Y5800200D01*
Y5726200D02*
X11305000Y5665000D01*
X11380000D01*
X14330000Y5535000D02*
Y5795000D01*
X11930600Y5239400D02*
X11990000Y5180000D01*
X11911500Y5239400D02*
X11930600D01*
X11800000Y5010000D02*
Y5076200D01*
X11804400Y5080600D01*
X11950000Y5010000D02*
Y5079800D01*
X11949200Y5080600D02*
X11950000Y5079800D01*
X10338284Y6708284D02*
X10450000Y6820000D01*
X10630000D02*
X10710000Y6740000D01*
X10450000Y6820000D02*
X10630000D01*
X10255000Y6700000D02*
X10263284Y6708284D01*
X10338284D01*
X10710000Y6675000D02*
Y6740000D01*
Y6675000D02*
X10890000Y6495000D01*
X10566903Y6050200D02*
X10663801D01*
X10591186Y5946113D02*
X10595274Y5950200D01*
X10663801D01*
X10619802Y5900200D02*
X10663801D01*
X10613015Y5893413D02*
X10619802Y5900200D01*
X9800000Y6620000D02*
X9970000Y6450000D01*
X10425000Y6365000D02*
Y6450000D01*
X10574800Y6215200D02*
X10728800D01*
X10425000Y6365000D02*
X10574800Y6215200D01*
X9970000Y6450000D02*
X10425000D01*
X11805000Y6345000D02*
X12080000Y6620000D01*
X11650000Y6345000D02*
X11805000D01*
X11555000D02*
X11650000D01*
X11020000Y6495000D02*
X11255000D01*
X11340000Y6580000D01*
Y6685000D01*
X11355000Y6700000D01*
X10928801Y6215200D02*
X10978800D01*
X10980000Y6216399D01*
Y6350000D01*
X11000000Y6370000D01*
X11020000Y6390000D02*
Y6495000D01*
X10890000Y6390000D02*
X10930000Y6350000D01*
X10890000Y6390000D02*
Y6495000D01*
X12080000Y6620000D02*
Y6624784D01*
X12091716Y6636500D01*
X12233300D01*
X10545000Y6565000D02*
Y6700000D01*
Y6565000D02*
X10575000Y6535000D01*
Y6450000D02*
Y6535000D01*
Y6450000D02*
X10675000Y6350000D01*
X10885431Y5283200D02*
X10998200D01*
X11047800Y5233600D01*
X11176000D01*
X11177200Y5232400D01*
Y5105400D02*
Y5232400D01*
X11128800Y5735200D02*
X11129917Y5734083D01*
Y5551117D02*
Y5734083D01*
Y5551117D02*
X11131034Y5550000D01*
X11951500Y5479400D02*
X12046600D01*
X12192000Y5334000D01*
X12306300D01*
X11957109Y5645091D02*
X12014200Y5588000D01*
X11661500Y5645091D02*
X11957109D01*
X12014200Y5588000D02*
X12306300D01*
X11925300Y5156200D02*
X11949200Y5132300D01*
Y5080600D02*
Y5132300D01*
X11887200Y5156200D02*
X11925300D01*
X11861500Y5181900D02*
X11887200Y5156200D01*
X11861500Y5181900D02*
Y5249400D01*
X11804400Y5136900D02*
X11811500Y5144000D01*
X11804400Y5080600D02*
Y5136900D01*
X11811500Y5144000D02*
Y5249400D01*
X11507800Y5304400D02*
X11586600D01*
X11611600Y5279400D01*
X11671500D01*
X11661500Y5645091D02*
X11671500Y5635091D01*
Y5479400D02*
Y5635091D01*
X10050700Y5146973D02*
Y5354764D01*
Y5146973D02*
X10138608Y5059064D01*
Y5044064D02*
Y5059064D01*
X10425500Y5562600D02*
X10528300D01*
X10566400Y5600700D01*
Y5778500D01*
X10588100Y5800200D01*
X10663801D01*
D45*
X10420000Y6085000D02*
Y6090000D01*
Y6085000D02*
X10504800Y6000200D01*
X11451600Y6020000D02*
X11940000D01*
X12250000Y5710000D02*
X12460000D01*
X11940000Y6020000D02*
X12250000Y5710000D01*
X11381800Y5950200D02*
X11451600Y6020000D01*
X13405000Y5380000D02*
X14331979D01*
X11243800Y5950200D02*
X11381800D01*
X13170000Y5680000D02*
X13275000Y5575000D01*
X13400000D01*
X13047000Y5663000D02*
X13070000Y5640000D01*
X13047000Y5663000D02*
Y5720000D01*
X13400000Y5575000D02*
X13405000Y5570000D01*
Y5380000D02*
Y5570000D01*
X12563289Y5539711D02*
Y5541482D01*
Y5539711D02*
X12633000Y5470000D01*
X11787100Y4947900D02*
X11804400Y4930600D01*
X11739900Y4947900D02*
X11787100D01*
X10615086Y6003812D02*
X10618699Y6000200D01*
X10526709D02*
X10563674D01*
X10567286Y6003812D02*
X10615086D01*
X10563674Y6000200D02*
X10567286Y6003812D01*
X10618699Y6000200D02*
X10663801D01*
X9370000Y6070000D02*
X9390000Y6090000D01*
X10000000D01*
X10504800Y6000200D02*
X10526709D01*
X14139999Y8340000D02*
X14489999D01*
X13939999Y8140000D02*
X14139999Y8340000D01*
X13708221Y8211779D02*
X13780000Y8140000D01*
X13705000Y8300000D02*
X13708221Y8296779D01*
Y8211779D02*
Y8296779D01*
X13780000Y8140000D02*
X13939999D01*
X14489999Y8340000D02*
X14750002Y8079999D01*
Y8025000D02*
Y8079999D01*
X14360030Y7905000D02*
X14365030Y7900000D01*
X14489999D01*
X14514999Y7875000D01*
X14600002D01*
X14750002D01*
X9312478Y8366638D02*
X9316488Y8370648D01*
X9310000Y8260000D02*
X9312478Y8262478D01*
Y8366638D01*
X9316488Y8370648D02*
X9529656D01*
X8595933Y8670505D02*
X8596438Y8670000D01*
X8673000D01*
X14360030Y8225030D02*
X14395000Y8260000D01*
X14360030Y8095000D02*
Y8225030D01*
X11949500Y4930300D02*
X12069700D01*
X11949200Y4930600D02*
X11949500Y4930300D01*
X12069700D02*
X12070000Y4930000D01*
X11804400Y4930600D02*
X11949200D01*
X11734800Y4953000D02*
X11739900Y4947900D01*
X11670100Y4953000D02*
X11734800D01*
X11670100D02*
Y5092700D01*
X11711500Y5209100D02*
Y5239400D01*
X11671300Y5168900D02*
X11711500Y5209100D01*
X11671300Y5093900D02*
Y5168900D01*
X11670100Y5092700D02*
X11671300Y5093900D01*
D46*
X9875000Y5030000D02*
X9990000D01*
X9505000D02*
X9515000Y5020000D01*
X9610000D01*
X10292673Y5040000D02*
X10390000D01*
X10288609Y5044064D02*
X10292673Y5040000D01*
D47*
X10681331Y5284549D02*
D03*
D48*
X10881331D02*
D03*
D49*
X9360000Y5607000D02*
D03*
X10085450Y5608764D02*
D03*
X9700000Y5607000D02*
D03*
D50*
X9360000Y5353000D02*
D03*
X10085450Y5354764D02*
D03*
X9700000Y5353000D02*
D03*
D51*
X12306300Y5588000D02*
D03*
Y5334000D02*
D03*
Y5080000D02*
D03*
D52*
Y5842000D02*
D03*
D53*
X14700003Y8400001D02*
D03*
X14875003Y8050001D02*
D03*
X14700003Y7700001D02*
D03*
X14875003Y7350001D02*
D03*
X14700003Y5600001D02*
D03*
X14875003Y5250001D02*
D03*
X14700003Y4900001D02*
D03*
X14350003Y8400001D02*
D03*
Y7700001D02*
D03*
X14525002Y7350001D02*
D03*
X14350003Y7000001D02*
D03*
X14525002Y6650001D02*
D03*
Y5250001D02*
D03*
X14350003Y4900001D02*
D03*
X14000002Y8400001D02*
D03*
X14175002Y7350001D02*
D03*
Y5250001D02*
D03*
X14000002Y4900001D02*
D03*
X13825002Y7350001D02*
D03*
X13650002Y7000001D02*
D03*
X13825002Y5950001D02*
D03*
X13650002Y5600001D02*
D03*
X13825002Y5250001D02*
D03*
X13650002Y4900001D02*
D03*
X13300002Y7000001D02*
D03*
X13475002Y5250001D02*
D03*
X13300002Y4900001D02*
D03*
X12250002Y8400001D02*
D03*
X12425002Y7350001D02*
D03*
X11900002Y8400001D02*
D03*
X11550002D02*
D03*
X11200002D02*
D03*
Y7000001D02*
D03*
X10850002Y8400001D02*
D03*
X11025002Y8050001D02*
D03*
X10850002Y7700001D02*
D03*
X11025002Y7350001D02*
D03*
X10850002Y7000001D02*
D03*
X10675002Y8050001D02*
D03*
X10325002D02*
D03*
Y5250001D02*
D03*
X9975002Y8050001D02*
D03*
X9800002Y6300001D02*
D03*
X9975002Y5950001D02*
D03*
Y5250001D02*
D03*
X9625002Y5950001D02*
D03*
X9275002Y8050001D02*
D03*
X8750002Y4900001D02*
D03*
X8400001D02*
D03*
X8225001Y8050001D02*
D03*
Y7350001D02*
D03*
Y6650001D02*
D03*
X8050001Y6300001D02*
D03*
Y5600001D02*
D03*
Y4900001D02*
D03*
X11420000Y5020000D02*
D03*
X11810000Y5380000D02*
D03*
X10374359Y5633536D02*
D03*
X10890000Y6770000D02*
D03*
X11030000D02*
D03*
X13250000Y5480000D02*
D03*
X14910001Y6660000D02*
D03*
X14260001Y6930000D02*
D03*
X13939999D02*
D03*
X13539999Y7580000D02*
D03*
X13530000Y7240000D02*
D03*
X13680000Y8120000D02*
D03*
X14570000Y8130000D02*
D03*
X13900000Y8650000D02*
D03*
X10020000Y7960000D02*
D03*
X9900000D02*
D03*
X8120000Y7860000D02*
D03*
Y7510000D02*
D03*
Y7130000D02*
D03*
X8130000Y6770000D02*
D03*
X8080000Y6460000D02*
D03*
X8240000Y5370000D02*
D03*
X8370000D02*
D03*
X10252790Y5954410D02*
D03*
X10050000Y6160000D02*
D03*
Y6300000D02*
D03*
X13641495Y8000589D02*
D03*
X11040092Y6311323D02*
D03*
X14900000Y6870000D02*
D03*
X14710001D02*
D03*
Y7000000D02*
D03*
X14900000Y7010000D02*
D03*
X8490000Y5070000D02*
D03*
X8300000D02*
D03*
Y5210000D02*
D03*
X8490000D02*
D03*
X10950000Y6400000D02*
D03*
X11390000Y5480000D02*
D03*
X10504046Y6101306D02*
D03*
X9590000Y7880000D02*
D03*
X9730800Y7939200D02*
D03*
X9657700Y7130000D02*
D03*
X10270000Y6390000D02*
D03*
X10870000Y6320000D02*
D03*
X10728860Y6295458D02*
D03*
X11540000Y6220000D02*
D03*
X11320000D02*
D03*
X11190000Y6370000D02*
D03*
X11730000Y7770000D02*
D03*
X10420000Y6090000D02*
D03*
X10940000Y5570000D02*
D03*
X10881801Y5652755D02*
D03*
X10640000Y5640000D02*
D03*
X10800000Y5630000D02*
D03*
X10620000Y5540000D02*
D03*
X13880000Y5810000D02*
D03*
X13239999Y6560000D02*
D03*
X11860000Y5960000D02*
D03*
X12460000Y5710000D02*
D03*
X11600000Y5910000D02*
D03*
X11350000Y6020000D02*
D03*
X13170000Y5680000D02*
D03*
X13070000Y5640000D02*
D03*
X12563289Y5541482D02*
D03*
X11990000Y5180000D02*
D03*
X11800000Y5010000D02*
D03*
X11950000D02*
D03*
X10590000Y6102900D02*
D03*
X10591186Y5946113D02*
D03*
X10000000Y6090000D02*
D03*
X14000000Y8000000D02*
D03*
X14147267Y8231124D02*
D03*
X9310000Y8260000D02*
D03*
X8595933Y8670505D02*
D03*
X8200000Y8370000D02*
D03*
X8080000D02*
D03*
X8200000Y8550000D02*
D03*
X8080000D02*
D03*
X11310000Y5360000D02*
D03*
X11400000Y5570000D02*
D03*
X12070000Y4930000D02*
D03*
X10390000Y5040000D02*
D03*
X9990000Y5030000D02*
D03*
X9610000Y5020000D02*
D03*
X12720000Y8490000D02*
D03*
D54*
X11158800Y6036700D02*
D03*
Y5913700D02*
D03*
X10748801Y6036700D02*
D03*
Y5913700D02*
D03*
X10953801Y6036700D02*
D03*
Y5913700D02*
D03*
X11069801Y6036700D02*
D03*
Y5913700D02*
D03*
X10837801Y6036700D02*
D03*
Y5913700D02*
D03*
Y6130200D02*
D03*
Y5820200D02*
D03*
X11069801Y6130200D02*
D03*
Y5820200D02*
D03*
X10953801Y6130200D02*
D03*
Y5820200D02*
D03*
%TF.MD5,3a030ca67ba577dea63630bb95d21529*%
M02*
