%TF.GenerationSoftware,Altium Limited,Altium Designer,25.4.2 (15)*%
G04 Layer_Color=16711935*
%FSLAX45Y45*%
%MOMM*%
%TF.SameCoordinates,3CA1961E-9661-47C5-9BAE-CD2B19B8C498*%
%TF.FilePolarity,Negative*%
%TF.FileFunction,Soldermask,Bot*%
%TF.Part,Single*%
G01*
G75*
%TA.AperFunction,ComponentPad*%
%ADD47R,1.20000X1.20000*%
%ADD48C,1.20000*%
%TA.AperFunction,ViaPad*%
%ADD54C,0.50000*%
%TA.AperFunction,ComponentPad*%
%ADD77C,1.67000*%
G04:AMPARAMS|DCode=78|XSize=1.67mm|YSize=1.67mm|CornerRadius=0.455mm|HoleSize=0mm|Usage=FLASHONLY|Rotation=90.000|XOffset=0mm|YOffset=0mm|HoleType=Round|Shape=RoundedRectangle|*
%AMROUNDEDRECTD78*
21,1,1.67000,0.76000,0,0,90.0*
21,1,0.76000,1.67000,0,0,90.0*
1,1,0.91000,0.38000,0.38000*
1,1,0.91000,0.38000,-0.38000*
1,1,0.91000,-0.38000,-0.38000*
1,1,0.91000,-0.38000,0.38000*
%
%ADD78ROUNDEDRECTD78*%
%ADD79C,1.75000*%
G04:AMPARAMS|DCode=80|XSize=1.75mm|YSize=1.75mm|CornerRadius=0.475mm|HoleSize=0mm|Usage=FLASHONLY|Rotation=270.000|XOffset=0mm|YOffset=0mm|HoleType=Round|Shape=RoundedRectangle|*
%AMROUNDEDRECTD80*
21,1,1.75000,0.80000,0,0,270.0*
21,1,0.80000,1.75000,0,0,270.0*
1,1,0.95000,-0.40000,-0.40000*
1,1,0.95000,-0.40000,0.40000*
1,1,0.95000,0.40000,0.40000*
1,1,0.95000,0.40000,-0.40000*
%
%ADD80ROUNDEDRECTD80*%
%TA.AperFunction,ViaPad*%
%ADD81C,0.75000*%
D47*
X10681331Y5284549D02*
D03*
D48*
X10881331D02*
D03*
D54*
X11158800Y6036700D02*
D03*
Y5913700D02*
D03*
X10748801Y6036700D02*
D03*
Y5913700D02*
D03*
X10953801Y6036700D02*
D03*
Y5913700D02*
D03*
X11069801Y6036700D02*
D03*
Y5913700D02*
D03*
X10837801Y6036700D02*
D03*
Y5913700D02*
D03*
Y6130200D02*
D03*
Y5820200D02*
D03*
X11069801Y6130200D02*
D03*
Y5820200D02*
D03*
X10953801Y6130200D02*
D03*
Y5820200D02*
D03*
D77*
X9360000Y5607000D02*
D03*
X10085450Y5608764D02*
D03*
X9700000Y5607000D02*
D03*
D78*
X9360000Y5353000D02*
D03*
X10085450Y5354764D02*
D03*
X9700000Y5353000D02*
D03*
D79*
X12306300Y5588000D02*
D03*
Y5334000D02*
D03*
Y5080000D02*
D03*
D80*
Y5842000D02*
D03*
D81*
X14700003Y8400001D02*
D03*
X14875003Y8050001D02*
D03*
X14700003Y7700001D02*
D03*
X14875003Y7350001D02*
D03*
X14700003Y5600001D02*
D03*
X14875003Y5250001D02*
D03*
X14700003Y4900001D02*
D03*
X14350003Y8400001D02*
D03*
Y7700001D02*
D03*
X14525002Y7350001D02*
D03*
X14350003Y7000001D02*
D03*
X14525002Y6650001D02*
D03*
Y5250001D02*
D03*
X14350003Y4900001D02*
D03*
X14000002Y8400001D02*
D03*
X14175002Y7350001D02*
D03*
Y5250001D02*
D03*
X14000002Y4900001D02*
D03*
X13825002Y7350001D02*
D03*
X13650002Y7000001D02*
D03*
X13825002Y5950001D02*
D03*
X13650002Y5600001D02*
D03*
X13825002Y5250001D02*
D03*
X13650002Y4900001D02*
D03*
X13300002Y7000001D02*
D03*
X13475002Y5250001D02*
D03*
X13300002Y4900001D02*
D03*
X12250002Y8400001D02*
D03*
X12425002Y7350001D02*
D03*
X11900002Y8400001D02*
D03*
X11550002D02*
D03*
X11200002D02*
D03*
Y7000001D02*
D03*
X10850002Y8400001D02*
D03*
X11025002Y8050001D02*
D03*
X10850002Y7700001D02*
D03*
X11025002Y7350001D02*
D03*
X10850002Y7000001D02*
D03*
X10675002Y8050001D02*
D03*
X10325002D02*
D03*
Y5250001D02*
D03*
X9975002Y8050001D02*
D03*
X9800002Y6300001D02*
D03*
X9975002Y5950001D02*
D03*
Y5250001D02*
D03*
X9625002Y5950001D02*
D03*
X9275002Y8050001D02*
D03*
X8750002Y4900001D02*
D03*
X8400001D02*
D03*
X8225001Y8050001D02*
D03*
Y7350001D02*
D03*
Y6650001D02*
D03*
X8050001Y6300001D02*
D03*
Y5600001D02*
D03*
Y4900001D02*
D03*
%TF.MD5,173f80a0ed1ae3f7d9ec35e18b8dcc81*%
M02*
