%TF.GenerationSoftware,Altium Limited,Altium Designer,25.4.2 (15)*%
G04 Layer_Color=0*
%FSLAX45Y45*%
%MOMM*%
%TF.SameCoordinates,3CA1961E-9661-47C5-9BAE-CD2B19B8C498*%
%TF.FilePolarity,Positive*%
%TF.FileFunction,Plated,1,4,PTH,Drill*%
%TF.Part,Single*%
G01*
G75*
%TA.AperFunction,ComponentDrill*%
%ADD88C,0.70000*%
%ADD89C,1.02000*%
%ADD90C,1.10000*%
%TA.AperFunction,ViaDrill,NotFilled*%
%ADD91C,0.30000*%
%ADD92C,0.20000*%
D88*
X10681331Y5284549D02*
D03*
X10881331D02*
D03*
D89*
X9360000Y5607000D02*
D03*
Y5353000D02*
D03*
X10085450Y5354764D02*
D03*
Y5608764D02*
D03*
X9700000Y5353000D02*
D03*
Y5607000D02*
D03*
D90*
X12306300Y5588000D02*
D03*
Y5842000D02*
D03*
Y5334000D02*
D03*
Y5080000D02*
D03*
D91*
X14700003Y8400001D02*
D03*
X14875003Y8050001D02*
D03*
X14700003Y7700001D02*
D03*
X14875003Y7350001D02*
D03*
X14700003Y5600001D02*
D03*
X14875003Y5250001D02*
D03*
X14700003Y4900001D02*
D03*
X14350003Y8400001D02*
D03*
Y7700001D02*
D03*
X14525002Y7350001D02*
D03*
X14350003Y7000001D02*
D03*
X14525002Y6650001D02*
D03*
Y5250001D02*
D03*
X14350003Y4900001D02*
D03*
X14000002Y8400001D02*
D03*
X14175002Y7350001D02*
D03*
Y5250001D02*
D03*
X14000002Y4900001D02*
D03*
X13825002Y7350001D02*
D03*
X13650002Y7000001D02*
D03*
X13825002Y5950001D02*
D03*
X13650002Y5600001D02*
D03*
X13825002Y5250001D02*
D03*
X13650002Y4900001D02*
D03*
X13300002Y7000001D02*
D03*
X13475002Y5250001D02*
D03*
X13300002Y4900001D02*
D03*
X12250002Y8400001D02*
D03*
X12425002Y7350001D02*
D03*
X11900002Y8400001D02*
D03*
X11550002D02*
D03*
X11200002D02*
D03*
Y7000001D02*
D03*
X10850002Y8400001D02*
D03*
X11025002Y8050001D02*
D03*
X10850002Y7700001D02*
D03*
X11025002Y7350001D02*
D03*
X10850002Y7000001D02*
D03*
X10675002Y8050001D02*
D03*
X10325002D02*
D03*
Y5250001D02*
D03*
X9975002Y8050001D02*
D03*
X9800002Y6300001D02*
D03*
X9975002Y5950001D02*
D03*
Y5250001D02*
D03*
X9625002Y5950001D02*
D03*
X9275002Y8050001D02*
D03*
X8750002Y4900001D02*
D03*
X8400001D02*
D03*
X8225001Y8050001D02*
D03*
Y7350001D02*
D03*
Y6650001D02*
D03*
X8050001Y6300001D02*
D03*
Y5600001D02*
D03*
Y4900001D02*
D03*
X11420000Y5020000D02*
D03*
X11810000Y5380000D02*
D03*
X10374359Y5633536D02*
D03*
X10890000Y6770000D02*
D03*
X11030000D02*
D03*
X13250000Y5480000D02*
D03*
X14910001Y6660000D02*
D03*
X14260001Y6930000D02*
D03*
X13939999D02*
D03*
X13539999Y7580000D02*
D03*
X13530000Y7240000D02*
D03*
X13680000Y8120000D02*
D03*
X14570000Y8130000D02*
D03*
X13900000Y8650000D02*
D03*
X10020000Y7960000D02*
D03*
X9900000D02*
D03*
X8120000Y7860000D02*
D03*
Y7510000D02*
D03*
Y7130000D02*
D03*
X8130000Y6770000D02*
D03*
X8080000Y6460000D02*
D03*
X8240000Y5370000D02*
D03*
X8370000D02*
D03*
X10252790Y5954410D02*
D03*
X10050000Y6160000D02*
D03*
Y6300000D02*
D03*
X13641495Y8000589D02*
D03*
X11040092Y6311323D02*
D03*
X14900000Y6870000D02*
D03*
X14710001D02*
D03*
Y7000000D02*
D03*
X14900000Y7010000D02*
D03*
X8490000Y5070000D02*
D03*
X8300000D02*
D03*
Y5210000D02*
D03*
X8490000D02*
D03*
X10950000Y6400000D02*
D03*
X11390000Y5480000D02*
D03*
X10504046Y6101306D02*
D03*
X9590000Y7880000D02*
D03*
X9730800Y7939200D02*
D03*
X9657700Y7130000D02*
D03*
X10270000Y6390000D02*
D03*
X10870000Y6320000D02*
D03*
X10728860Y6295458D02*
D03*
X11540000Y6220000D02*
D03*
X11320000D02*
D03*
X11190000Y6370000D02*
D03*
X11730000Y7770000D02*
D03*
X10420000Y6090000D02*
D03*
X10940000Y5570000D02*
D03*
X10881801Y5652755D02*
D03*
X10640000Y5640000D02*
D03*
X10800000Y5630000D02*
D03*
X10620000Y5540000D02*
D03*
X13880000Y5810000D02*
D03*
X13239999Y6560000D02*
D03*
X11860000Y5960000D02*
D03*
X12460000Y5710000D02*
D03*
X11600000Y5910000D02*
D03*
X11350000Y6020000D02*
D03*
X13170000Y5680000D02*
D03*
X13070000Y5640000D02*
D03*
X12563289Y5541482D02*
D03*
X11990000Y5180000D02*
D03*
X11800000Y5010000D02*
D03*
X11950000D02*
D03*
X10590000Y6102900D02*
D03*
X10591186Y5946113D02*
D03*
X10000000Y6090000D02*
D03*
X14000000Y8000000D02*
D03*
X14147267Y8231124D02*
D03*
X9310000Y8260000D02*
D03*
X8595933Y8670505D02*
D03*
X8200000Y8370000D02*
D03*
X8080000D02*
D03*
X8200000Y8550000D02*
D03*
X8080000D02*
D03*
X11310000Y5360000D02*
D03*
X11400000Y5570000D02*
D03*
X12070000Y4930000D02*
D03*
X10390000Y5040000D02*
D03*
X9990000Y5030000D02*
D03*
X9610000Y5020000D02*
D03*
X12720000Y8490000D02*
D03*
D92*
X11158800Y6036700D02*
D03*
Y5913700D02*
D03*
X10748801Y6036700D02*
D03*
Y5913700D02*
D03*
X10953801Y6036700D02*
D03*
Y5913700D02*
D03*
X11069801Y6036700D02*
D03*
Y5913700D02*
D03*
X10837801Y6036700D02*
D03*
Y5913700D02*
D03*
Y6130200D02*
D03*
Y5820200D02*
D03*
X11069801Y6130200D02*
D03*
Y5820200D02*
D03*
X10953801Y6130200D02*
D03*
Y5820200D02*
D03*
%TF.MD5,259f1ccc9e03a3eabe896792e80cb57c*%
M02*
