%TF.GenerationSoftware,Altium Limited,Altium Designer,25.4.2 (15)*%
G04 Layer_Color=65535*
%FSLAX45Y45*%
%MOMM*%
%TF.SameCoordinates,3CA1961E-9661-47C5-9BAE-CD2B19B8C498*%
%TF.FilePolarity,Positive*%
%TF.FileFunction,Legend,Top*%
%TF.Part,Single*%
G01*
G75*
%TA.AperFunction,NonConductor*%
%ADD55C,0.20000*%
%ADD56C,0.25000*%
%ADD57C,0.15240*%
%ADD58C,0.12700*%
%ADD59C,0.15000*%
D55*
X14439999Y6945000D02*
G03*
X14395000Y6990000I-45000J0D01*
G01*
X13805000D02*
G03*
X13760001Y6945000I0J-45000D01*
G01*
X13592300Y7715410D02*
G03*
X13547301Y7760410I-45000J-0D01*
G01*
Y7080410D02*
G03*
X13592300Y7125410I0J45000D01*
G01*
X11608000Y5479400D02*
G03*
X11608000Y5479400I-10000J0D01*
G01*
X8105109Y7280200D02*
G03*
X8060109Y7235200I0J-45000D01*
G01*
Y6645200D02*
G03*
X8105109Y6600200I45000J0D01*
G01*
X8105000Y8030000D02*
G03*
X8060000Y7985000I0J-45000D01*
G01*
Y7395000D02*
G03*
X8105000Y7350000I45000J0D01*
G01*
X14439999Y6470000D02*
Y6945000D01*
X14214999Y6990000D02*
X14395000D01*
X14214999Y6310000D02*
X14280000D01*
X14439999Y6470000D01*
X13760001D02*
Y6945000D01*
X13805000Y6990000D02*
X13985001D01*
X13920000Y6310000D02*
X13985001D01*
X13760001Y6470000D02*
X13920000Y6310000D01*
X11525000Y6935000D02*
Y7205000D01*
X10375000Y6935000D02*
Y7205000D01*
X11525000Y7695000D02*
Y7965000D01*
X10375000Y7695000D02*
Y7965000D01*
Y6935000D02*
X11525000D01*
X10375000Y7965000D02*
X11525000D01*
X10486331Y5004549D02*
X11076331D01*
X10486331D02*
Y5454549D01*
X11076331D01*
Y5004549D02*
Y5454549D01*
X9063800Y6526500D02*
X9662800D01*
X9063800Y7086000D02*
X9662800D01*
X9225000Y5188500D02*
Y5771500D01*
X9495000D01*
Y5188500D02*
Y5771500D01*
X9225000Y5188500D02*
X9495000D01*
X12330000Y7150500D02*
Y7749500D01*
X11770500Y7150500D02*
Y7749500D01*
X12912300Y7600410D02*
X13072301Y7760410D01*
X12912300Y7535410D02*
Y7600410D01*
X13592300Y7535410D02*
Y7715410D01*
X13072301Y7760410D02*
X13547301D01*
X12912300Y7240410D02*
X13072301Y7080410D01*
X12912300Y7240410D02*
Y7305410D01*
X13592300Y7125410D02*
Y7305410D01*
X13072301Y7080410D02*
X13547301D01*
X8563487Y8135544D02*
Y8655544D01*
X9163500Y8134500D02*
Y8654500D01*
X10180000Y7250500D02*
Y7849500D01*
X9620500Y7250500D02*
Y7849500D01*
X12171800Y4938000D02*
Y5984000D01*
X12440800D01*
Y4938000D02*
Y5984000D01*
X12171800Y4938000D02*
X12440800D01*
X14170000Y7420000D02*
X14430000D01*
X14096001Y7580000D02*
X14430000D01*
X12180000Y8080000D02*
X12440000D01*
X12180000Y7920000D02*
X12514000D01*
X14110001Y8170000D02*
X14390001D01*
X14110001Y7830000D02*
X14390001D01*
X9950451Y5190264D02*
X10220450D01*
Y5773264D01*
X9950451D02*
X10220450D01*
X9950451Y5190264D02*
Y5773264D01*
X9565000Y5188500D02*
X9835000D01*
Y5771500D01*
X9565000D02*
X9835000D01*
X9565000Y5188500D02*
Y5771500D01*
X12200500Y6980000D02*
X12799500D01*
X12200500Y6420500D02*
X12799500D01*
X13156512Y5734456D02*
Y6254456D01*
X12556500Y5735500D02*
Y6255500D01*
X13317500Y6067500D02*
Y6412500D01*
X13662500Y6067500D02*
Y6412500D01*
X12523487Y4935544D02*
Y5455544D01*
X13123500Y4934500D02*
Y5454500D01*
X14837500Y6420000D02*
Y6580000D01*
X14662500Y6420000D02*
Y6580000D01*
X11535000Y6613000D02*
Y6787000D01*
X11457500Y6605000D02*
X11542500D01*
X11457500Y6795000D02*
X11542500D01*
X10435000Y6613000D02*
Y6787000D01*
X10357500Y6605000D02*
X10442500D01*
X10357500Y6795000D02*
X10442500D01*
X10648801Y5720200D02*
X10678801D01*
X11228801D02*
X11258800D01*
Y6200200D02*
Y6230200D01*
Y5720200D02*
Y5750200D01*
X10648801Y6230200D02*
X10678801D01*
X11228801D02*
X11258800D01*
X10648801Y6200200D02*
Y6230200D01*
Y5720200D02*
Y5750200D01*
X9392456Y8402179D02*
Y8672179D01*
X9237457Y8309679D02*
Y8672179D01*
X9545156Y8861148D02*
X10065156D01*
X9544112Y8261135D02*
X10064112D01*
X8472500Y5470000D02*
Y5630000D01*
X8647500Y5470000D02*
Y5630000D01*
X8105109Y7280200D02*
X8580109D01*
X8060109Y7055200D02*
Y7235200D01*
X8740109Y7055200D02*
Y7120200D01*
X8580109Y7280200D02*
X8740109Y7120200D01*
X8105109Y6600200D02*
X8580109D01*
X8060109Y6645200D02*
Y6825200D01*
X8740109Y6760200D02*
Y6825200D01*
X8580109Y6600200D02*
X8740109Y6760200D01*
X8105000Y8030000D02*
X8580000D01*
X8060000Y7805000D02*
Y7985000D01*
X8740000Y7805000D02*
Y7870000D01*
X8580000Y8030000D02*
X8740000Y7870000D01*
X8105000Y7350000D02*
X8580000D01*
X8060000Y7395000D02*
Y7575000D01*
X8740000Y7510000D02*
Y7575000D01*
X8580000Y7350000D02*
X8740000Y7510000D01*
X8270000Y6547500D02*
X8430000D01*
X8270000Y6372500D02*
X8430000D01*
D56*
X10453831Y5284549D02*
G03*
X10453831Y5284549I-12500J0D01*
G01*
X9761300Y6615520D02*
G03*
X9761300Y6615520I-12500J0D01*
G01*
X9372500Y5140000D02*
G03*
X9372500Y5140000I-12500J0D01*
G01*
X12253480Y7835500D02*
G03*
X12253480Y7835500I-12500J0D01*
G01*
X9063500Y8759500D02*
G03*
X9063500Y8759500I-12500J0D01*
G01*
X10103480Y7935500D02*
G03*
X10103480Y7935500I-12500J0D01*
G01*
X12318800Y6029000D02*
G03*
X12318800Y6029000I-12500J0D01*
G01*
X14017500Y8095000D02*
G03*
X14017500Y8095000I-12500J0D01*
G01*
X10097951Y5141764D02*
G03*
X10097951Y5141764I-12500J0D01*
G01*
X9712500Y5140000D02*
G03*
X9712500Y5140000I-12500J0D01*
G01*
X12127000Y6890980D02*
G03*
X12127000Y6890980I-12500J0D01*
G01*
X12681500Y5630500D02*
G03*
X12681500Y5630500I-12500J0D01*
G01*
X13023500Y5559500D02*
G03*
X13023500Y5559500I-12500J0D01*
G01*
X11777500Y6700000D02*
G03*
X11777500Y6700000I-12500J0D01*
G01*
X10677500D02*
G03*
X10677500Y6700000I-12500J0D01*
G01*
X10741301Y5647700D02*
G03*
X10741301Y5647700I-12500J0D01*
G01*
X9452656Y8748648D02*
G03*
X9452656Y8748648I-12500J0D01*
G01*
D57*
X12802499Y7950000D02*
Y8550000D01*
X13597501Y7950000D02*
Y8550000D01*
D58*
X11661500Y5509400D02*
Y5529400D01*
X11681500D01*
X11941500D02*
X11961500D01*
Y5509400D02*
Y5529400D01*
X11941500Y5229400D02*
X11961500D01*
Y5249400D01*
X11661500Y5229400D02*
Y5249400D01*
Y5229400D02*
X11681500D01*
D59*
X14100000Y6143322D02*
Y6076677D01*
X14133324Y6110000D02*
X14066676D01*
X8113323Y6066645D02*
X8129984Y6083306D01*
Y6116629D01*
X8113323Y6133290D01*
X8096661D01*
X8080000Y6116629D01*
Y6083306D01*
X8063339Y6066645D01*
X8046678D01*
X8030016Y6083306D01*
Y6116629D01*
X8046678Y6133290D01*
X8129984Y6033322D02*
X8113323D01*
X8080000Y6000000D01*
X8113323Y5966677D01*
X8129984D01*
X8080000Y6000000D02*
X8030016D01*
X8113323Y5866709D02*
X8129984Y5883371D01*
Y5916693D01*
X8113323Y5933354D01*
X8096661D01*
X8080000Y5916693D01*
Y5883371D01*
X8063339Y5866709D01*
X8046678D01*
X8030016Y5883371D01*
Y5916693D01*
X8046678Y5933354D01*
X10483290Y8750016D02*
Y8816661D01*
X10449968Y8849984D01*
X10416645Y8816661D01*
Y8750016D01*
X10383322Y8849984D02*
Y8783339D01*
X10350000Y8750016D01*
X10316677Y8783339D01*
Y8849984D01*
Y8800000D01*
X10383322D01*
X10216710Y8766677D02*
X10233371Y8750016D01*
X10266693D01*
X10283355Y8766677D01*
Y8833322D01*
X10266693Y8849984D01*
X10233371D01*
X10216710Y8833322D01*
X14450015Y5816726D02*
X14516661D01*
X14549983Y5850048D01*
X14516661Y5883371D01*
X14450015D01*
Y5916694D02*
X14549983D01*
Y5966677D01*
X14533322Y5983339D01*
X14516661D01*
X14499998Y5966677D01*
Y5916694D01*
Y5966677D01*
X14483337Y5983339D01*
X14466676D01*
X14450015Y5966677D01*
Y5916694D01*
X14549983Y6016661D02*
X14483337D01*
X14450015Y6049984D01*
X14483337Y6083306D01*
X14549983D01*
X14499998D01*
Y6016661D01*
X14450015Y6116629D02*
Y6183274D01*
Y6149952D01*
X14549983D01*
X10900016Y7093451D02*
Y7060129D01*
Y7076790D01*
X10983322D01*
X10999984Y7060129D01*
Y7043467D01*
X10983322Y7026806D01*
X10900016Y7126774D02*
X10999984D01*
Y7193419D01*
X10916677Y7293387D02*
X10900016Y7276726D01*
Y7243403D01*
X10916677Y7226742D01*
X10983322D01*
X10999984Y7243403D01*
Y7276726D01*
X10983322Y7293387D01*
X10900016Y7393355D02*
Y7360032D01*
Y7376693D01*
X10983322D01*
X10999984Y7360032D01*
Y7343371D01*
X10983322Y7326710D01*
X10900016Y7426677D02*
X10999984D01*
Y7493322D01*
X10916677Y7593290D02*
X10900016Y7576629D01*
Y7543306D01*
X10916677Y7526645D01*
X10983322D01*
X10999984Y7543306D01*
Y7576629D01*
X10983322Y7593290D01*
X10900016Y7693258D02*
Y7659935D01*
Y7676597D01*
X10983322D01*
X10999984Y7659935D01*
Y7643274D01*
X10983322Y7626613D01*
X10900016Y7726581D02*
X10999984D01*
Y7793226D01*
X10916677Y7893194D02*
X10900016Y7876532D01*
Y7843210D01*
X10916677Y7826548D01*
X10983322D01*
X10999984Y7843210D01*
Y7876532D01*
X10983322Y7893194D01*
X12745622Y7420410D02*
X12678977D01*
X12712299Y7387088D02*
Y7453733D01*
X8906787Y6940200D02*
X8973432D01*
X8940109Y6973523D02*
Y6906878D01*
X8906678Y7690000D02*
X8973323D01*
X8940000Y7723323D02*
Y7656678D01*
X14176694Y7759984D02*
Y7676678D01*
X14193355Y7660016D01*
X14226677D01*
X14243340Y7676678D01*
Y7759984D01*
X14276662Y7743323D02*
X14293323Y7759984D01*
X14326645D01*
X14343306Y7743323D01*
Y7726661D01*
X14326645Y7710000D01*
X14309984D01*
X14326645D01*
X14343306Y7693339D01*
Y7676678D01*
X14326645Y7660016D01*
X14293323D01*
X14276662Y7676678D01*
X14649985Y7545041D02*
X14550015D01*
Y7595024D01*
X14566676Y7611686D01*
X14600000D01*
X14616661Y7595024D01*
Y7545041D01*
Y7578363D02*
X14649985Y7611686D01*
Y7645008D02*
Y7678331D01*
Y7661670D01*
X14550015D01*
X14566676Y7645008D01*
X14633322Y7728315D02*
X14649985Y7744976D01*
Y7778299D01*
X14633322Y7794960D01*
X14566676D01*
X14550015Y7778299D01*
Y7744976D01*
X14566676Y7728315D01*
X14583339D01*
X14600000Y7744976D01*
Y7794960D01*
X14809982Y7555040D02*
X14710016D01*
Y7605024D01*
X14726677Y7621685D01*
X14759999D01*
X14776662Y7605024D01*
Y7555040D01*
Y7588363D02*
X14809982Y7621685D01*
Y7655008D02*
Y7688331D01*
Y7671669D01*
X14710016D01*
X14726677Y7655008D01*
Y7738314D02*
X14710016Y7754976D01*
Y7788298D01*
X14726677Y7804959D01*
X14743338D01*
X14759999Y7788298D01*
X14776662Y7804959D01*
X14793323D01*
X14809982Y7788298D01*
Y7754976D01*
X14793323Y7738314D01*
X14776662D01*
X14759999Y7754976D01*
X14743338Y7738314D01*
X14726677D01*
X14759999Y7754976D02*
Y7788298D01*
X12660016Y8156694D02*
X12759983D01*
Y8223339D01*
Y8323306D02*
Y8256661D01*
X12693338Y8323306D01*
X12676677D01*
X12660016Y8306645D01*
Y8273323D01*
X12676677Y8256661D01*
X14256694Y7329984D02*
Y7230016D01*
X14306677D01*
X14323338Y7246677D01*
Y7313322D01*
X14306677Y7329984D01*
X14256694D01*
X14406645Y7230016D02*
Y7329984D01*
X14356660Y7280000D01*
X14423306D01*
X12226694Y8239984D02*
Y8140016D01*
X12276678D01*
X12293339Y8156677D01*
Y8223322D01*
X12276678Y8239984D01*
X12226694D01*
X12326661Y8223322D02*
X12343323Y8239984D01*
X12376645D01*
X12393306Y8223322D01*
Y8206661D01*
X12376645Y8190000D01*
X12359984D01*
X12376645D01*
X12393306Y8173338D01*
Y8156677D01*
X12376645Y8140016D01*
X12343323D01*
X12326661Y8156677D01*
X13936678Y7473355D02*
X13920015Y7456693D01*
Y7423371D01*
X13936678Y7406710D01*
X14003322D01*
X14019983Y7423371D01*
Y7456693D01*
X14003322Y7473355D01*
X14019983Y7573322D02*
Y7506677D01*
X13953339Y7573322D01*
X13936678D01*
X13920015Y7556661D01*
Y7523339D01*
X13936678Y7506677D01*
Y7606645D02*
X13920015Y7623307D01*
Y7656629D01*
X13936678Y7673290D01*
X13953339D01*
X13970000Y7656629D01*
X13986661Y7673290D01*
X14003322D01*
X14019983Y7656629D01*
Y7623307D01*
X14003322Y7606645D01*
X13986661D01*
X13970000Y7623307D01*
X13953339Y7606645D01*
X13936678D01*
X13970000Y7623307D02*
Y7656629D01*
X13766678Y7473355D02*
X13750015Y7456693D01*
Y7423371D01*
X13766678Y7406710D01*
X13833324D01*
X13849985Y7423371D01*
Y7456693D01*
X13833324Y7473355D01*
X13849985Y7573322D02*
Y7506677D01*
X13783339Y7573322D01*
X13766678D01*
X13750015Y7556661D01*
Y7523339D01*
X13766678Y7506677D01*
X13750015Y7606645D02*
Y7673290D01*
X13766678D01*
X13833324Y7606645D01*
X13849985D01*
X14053355Y8563322D02*
X14036694Y8579984D01*
X14003371D01*
X13986710Y8563322D01*
Y8496677D01*
X14003371Y8480016D01*
X14036694D01*
X14053355Y8496677D01*
X14153322Y8480016D02*
X14086678D01*
X14153322Y8546661D01*
Y8563322D01*
X14136661Y8579984D01*
X14103339D01*
X14086678Y8563322D01*
X14253290Y8579984D02*
X14219968Y8563322D01*
X14186646Y8530000D01*
Y8496677D01*
X14203307Y8480016D01*
X14236629D01*
X14253290Y8496677D01*
Y8513339D01*
X14236629Y8530000D01*
X14186646D01*
X14053355Y8423322D02*
X14036694Y8439984D01*
X14003371D01*
X13986710Y8423322D01*
Y8356677D01*
X14003371Y8340016D01*
X14036694D01*
X14053355Y8356677D01*
X14153322Y8340016D02*
X14086678D01*
X14153322Y8406661D01*
Y8423322D01*
X14136661Y8439984D01*
X14103339D01*
X14086678Y8423322D01*
X14253290Y8439984D02*
X14186646D01*
Y8390000D01*
X14219968Y8406661D01*
X14236629D01*
X14253290Y8390000D01*
Y8356677D01*
X14236629Y8340016D01*
X14203307D01*
X14186646Y8356677D01*
X14553355Y8293323D02*
X14536694Y8309984D01*
X14503371D01*
X14486710Y8293323D01*
Y8226677D01*
X14503371Y8210016D01*
X14536694D01*
X14553355Y8226677D01*
X14653322Y8210016D02*
X14586678D01*
X14653322Y8276661D01*
Y8293323D01*
X14636661Y8309984D01*
X14603339D01*
X14586678Y8293323D01*
X14736629Y8210016D02*
Y8309984D01*
X14686646Y8260000D01*
X14753290D01*
X9263355Y8179984D02*
X9330000D01*
Y8163323D01*
X9263355Y8096677D01*
Y8080016D01*
X9330000D01*
X9363323D02*
X9396645D01*
X9379984D01*
Y8179984D01*
X9363323Y8163323D01*
X11273355Y6389984D02*
Y6306678D01*
X11290016Y6290016D01*
X11323339D01*
X11340000Y6306678D01*
Y6389984D01*
X11373323Y6290016D02*
X11406645D01*
X11389984D01*
Y6389984D01*
X11373323Y6373323D01*
X11736694Y5770016D02*
Y5869984D01*
X11786677D01*
X11803339Y5853323D01*
Y5820000D01*
X11786677Y5803339D01*
X11736694D01*
X11770016D02*
X11803339Y5770016D01*
X11836661Y5853323D02*
X11853323Y5869984D01*
X11886645D01*
X11903306Y5853323D01*
Y5836661D01*
X11886645Y5820000D01*
X11903306Y5803339D01*
Y5786678D01*
X11886645Y5770016D01*
X11853323D01*
X11836661Y5786678D01*
Y5803339D01*
X11853323Y5820000D01*
X11836661Y5836661D01*
Y5853323D01*
X11853323Y5820000D02*
X11886645D01*
X14249983Y5826694D02*
X14150015D01*
Y5876678D01*
X14166676Y5893339D01*
X14200000D01*
X14216661Y5876678D01*
Y5826694D01*
Y5860016D02*
X14249983Y5893339D01*
X14150015Y5993307D02*
Y5926662D01*
X14200000D01*
X14183337Y5959984D01*
Y5976645D01*
X14200000Y5993307D01*
X14233322D01*
X14249983Y5976645D01*
Y5943323D01*
X14233322Y5926662D01*
X13609984Y5576694D02*
X13510016D01*
Y5626678D01*
X13526677Y5643339D01*
X13560001D01*
X13576662Y5626678D01*
Y5576694D01*
Y5610016D02*
X13609984Y5643339D01*
Y5726646D02*
X13510016D01*
X13560001Y5676662D01*
Y5743307D01*
X13839984Y6086694D02*
X13740016D01*
Y6136678D01*
X13756677Y6153339D01*
X13789999D01*
X13806660Y6136678D01*
Y6086694D01*
Y6120016D02*
X13839984Y6153339D01*
X13756677Y6186662D02*
X13740016Y6203323D01*
Y6236646D01*
X13756677Y6253307D01*
X13773338D01*
X13789999Y6236646D01*
Y6219984D01*
Y6236646D01*
X13806660Y6253307D01*
X13823322D01*
X13839984Y6236646D01*
Y6203323D01*
X13823322Y6186662D01*
X9453339Y7496677D02*
Y7563322D01*
X9436678Y7579984D01*
X9403355D01*
X9386694Y7563322D01*
Y7496677D01*
X9403355Y7480016D01*
X9436678D01*
X9420016Y7513339D02*
X9453339Y7480016D01*
X9436678D02*
X9453339Y7496677D01*
X9486661Y7563322D02*
X9503323Y7579984D01*
X9536645D01*
X9553307Y7563322D01*
Y7546661D01*
X9536645Y7530000D01*
X9553307Y7513339D01*
Y7496677D01*
X9536645Y7480016D01*
X9503323D01*
X9486661Y7496677D01*
Y7513339D01*
X9503323Y7530000D01*
X9486661Y7546661D01*
Y7563322D01*
X9503323Y7530000D02*
X9536645D01*
X11953339Y7866677D02*
Y7933322D01*
X11936677Y7949984D01*
X11903355D01*
X11886694Y7933322D01*
Y7866677D01*
X11903355Y7850016D01*
X11936677D01*
X11920016Y7883339D02*
X11953339Y7850016D01*
X11936677D02*
X11953339Y7866677D01*
X11986661Y7949984D02*
X12053306D01*
Y7933322D01*
X11986661Y7866677D01*
Y7850016D01*
X13013339Y6386678D02*
Y6453323D01*
X12996678Y6469984D01*
X12963354D01*
X12946693Y6453323D01*
Y6386678D01*
X12963354Y6370016D01*
X12996678D01*
X12980016Y6403339D02*
X13013339Y6370016D01*
X12996678D02*
X13013339Y6386678D01*
X13113307Y6469984D02*
X13079984Y6453323D01*
X13046661Y6420000D01*
Y6386678D01*
X13063322Y6370016D01*
X13096645D01*
X13113307Y6386678D01*
Y6403339D01*
X13096645Y6420000D01*
X13046661D01*
X13273338Y5016678D02*
Y5083323D01*
X13256677Y5099984D01*
X13223355D01*
X13206694Y5083323D01*
Y5016678D01*
X13223355Y5000016D01*
X13256677D01*
X13240016Y5033339D02*
X13273338Y5000016D01*
X13256677D02*
X13273338Y5016678D01*
X13373306Y5099984D02*
X13306660D01*
Y5050000D01*
X13339984Y5066661D01*
X13356645D01*
X13373306Y5050000D01*
Y5016678D01*
X13356645Y5000016D01*
X13323323D01*
X13306660Y5016678D01*
X9356639Y7193177D02*
Y7259822D01*
X9339978Y7276484D01*
X9306655D01*
X9289994Y7259822D01*
Y7193177D01*
X9306655Y7176516D01*
X9339978D01*
X9323316Y7209839D02*
X9356639Y7176516D01*
X9339978D02*
X9356639Y7193177D01*
X9439945Y7176516D02*
Y7276484D01*
X9389961Y7226500D01*
X9456606D01*
X12593339Y7056678D02*
Y7123323D01*
X12576677Y7139984D01*
X12543355D01*
X12526694Y7123323D01*
Y7056678D01*
X12543355Y7040016D01*
X12576677D01*
X12560016Y7073339D02*
X12593339Y7040016D01*
X12576677D02*
X12593339Y7056678D01*
X12626661Y7123323D02*
X12643323Y7139984D01*
X12676645D01*
X12693306Y7123323D01*
Y7106661D01*
X12676645Y7090000D01*
X12659984D01*
X12676645D01*
X12693306Y7073339D01*
Y7056678D01*
X12676645Y7040016D01*
X12643323D01*
X12626661Y7056678D01*
X8963339Y7926678D02*
Y7993323D01*
X8946678Y8009984D01*
X8913355D01*
X8896694Y7993323D01*
Y7926678D01*
X8913355Y7910016D01*
X8946678D01*
X8930016Y7943339D02*
X8963339Y7910016D01*
X8946678D02*
X8963339Y7926678D01*
X9063306Y7910016D02*
X8996661D01*
X9063306Y7976661D01*
Y7993323D01*
X9046645Y8009984D01*
X9013323D01*
X8996661Y7993323D01*
X9850000Y8066678D02*
Y8133323D01*
X9833339Y8149984D01*
X9800016D01*
X9783355Y8133323D01*
Y8066678D01*
X9800016Y8050016D01*
X9833339D01*
X9816678Y8083339D02*
X9850000Y8050016D01*
X9833339D02*
X9850000Y8066678D01*
X9883323Y8050016D02*
X9916645D01*
X9899984D01*
Y8149984D01*
X9883323Y8133323D01*
X10893355Y8109984D02*
Y8010016D01*
X10960000D01*
X10993323D02*
X11026645D01*
X11009984D01*
Y8109984D01*
X10993323Y8093322D01*
X11286694Y6559984D02*
Y6460016D01*
X11336678D01*
X11353339Y6476677D01*
Y6543322D01*
X11336678Y6559984D01*
X11286694D01*
X11453307Y6460016D02*
X11386662D01*
X11453307Y6526661D01*
Y6543322D01*
X11436645Y6559984D01*
X11403323D01*
X11386662Y6543322D01*
X9993355Y6739984D02*
Y6640016D01*
X10043339D01*
X10060000Y6656678D01*
Y6723323D01*
X10043339Y6739984D01*
X9993355D01*
X10093323Y6640016D02*
X10126645D01*
X10109984D01*
Y6739984D01*
X10093323Y6723323D01*
X14106677Y5581686D02*
X14090016Y5565024D01*
Y5531702D01*
X14106677Y5515041D01*
X14173322D01*
X14189984Y5531702D01*
Y5565024D01*
X14173322Y5581686D01*
X14189984Y5615008D02*
Y5648331D01*
Y5631670D01*
X14090016D01*
X14106677Y5615008D01*
X14090016Y5764960D02*
X14106677Y5731637D01*
X14139999Y5698315D01*
X14173322D01*
X14189984Y5714976D01*
Y5748299D01*
X14173322Y5764960D01*
X14156660D01*
X14139999Y5748299D01*
Y5698315D01*
X13271684Y5283322D02*
X13255025Y5299984D01*
X13221703D01*
X13205040Y5283322D01*
Y5216677D01*
X13221703Y5200016D01*
X13255025D01*
X13271684Y5216677D01*
X13305008Y5200016D02*
X13338332D01*
X13321671D01*
Y5299984D01*
X13305008Y5283322D01*
X13454961Y5299984D02*
X13388315D01*
Y5250000D01*
X13421637Y5266661D01*
X13438298D01*
X13454961Y5250000D01*
Y5216677D01*
X13438298Y5200016D01*
X13404976D01*
X13388315Y5216677D01*
X14446677Y5401685D02*
X14430016Y5385024D01*
Y5351702D01*
X14446677Y5335040D01*
X14513322D01*
X14529984Y5351702D01*
Y5385024D01*
X14513322Y5401685D01*
X14529984Y5435008D02*
Y5468330D01*
Y5451669D01*
X14430016D01*
X14446677Y5435008D01*
Y5518314D02*
X14430016Y5534976D01*
Y5568298D01*
X14446677Y5584959D01*
X14463339D01*
X14480000Y5568298D01*
Y5551637D01*
Y5568298D01*
X14496661Y5584959D01*
X14513322D01*
X14529984Y5568298D01*
Y5534976D01*
X14513322Y5518314D01*
X14926398Y6458067D02*
X14909737Y6441406D01*
Y6408083D01*
X14926398Y6391422D01*
X14993044D01*
X15009705Y6408083D01*
Y6441406D01*
X14993044Y6458067D01*
X15009705Y6491390D02*
Y6524712D01*
Y6508051D01*
X14909737D01*
X14926398Y6491390D01*
X15009705Y6574696D02*
Y6608019D01*
Y6591358D01*
X14909737D01*
X14926398Y6574696D01*
X13626677Y6821685D02*
X13610016Y6805024D01*
Y6771702D01*
X13626677Y6755040D01*
X13693323D01*
X13709984Y6771702D01*
Y6805024D01*
X13693323Y6821685D01*
X13709984Y6855008D02*
Y6888331D01*
Y6871670D01*
X13610016D01*
X13626677Y6855008D01*
Y6938315D02*
X13610016Y6954976D01*
Y6988298D01*
X13626677Y7004960D01*
X13693323D01*
X13709984Y6988298D01*
Y6954976D01*
X13693323Y6938315D01*
X13626677D01*
X12783339Y7723323D02*
X12766678Y7739984D01*
X12733355D01*
X12716694Y7723323D01*
Y7656678D01*
X12733355Y7640016D01*
X12766678D01*
X12783339Y7656678D01*
X12816661D02*
X12833324Y7640016D01*
X12866644D01*
X12883305Y7656678D01*
Y7723323D01*
X12866644Y7739984D01*
X12833324D01*
X12816661Y7723323D01*
Y7706661D01*
X12833324Y7690000D01*
X12883305D01*
X8793339Y5603323D02*
X8776677Y5619984D01*
X8743355D01*
X8726693Y5603323D01*
Y5536678D01*
X8743355Y5520016D01*
X8776677D01*
X8793339Y5536678D01*
X8893306Y5619984D02*
X8859984Y5603323D01*
X8826661Y5570000D01*
Y5536678D01*
X8843323Y5520016D01*
X8876645D01*
X8893306Y5536678D01*
Y5553339D01*
X8876645Y5570000D01*
X8826661D01*
X8793339Y5773322D02*
X8776677Y5789984D01*
X8743355D01*
X8726693Y5773322D01*
Y5706677D01*
X8743355Y5690016D01*
X8776677D01*
X8793339Y5706677D01*
X8893306Y5789984D02*
X8826661D01*
Y5740000D01*
X8859984Y5756661D01*
X8876645D01*
X8893306Y5740000D01*
Y5706677D01*
X8876645Y5690016D01*
X8843323D01*
X8826661Y5706677D01*
X8793339Y5423322D02*
X8776677Y5439984D01*
X8743355D01*
X8726693Y5423322D01*
Y5356677D01*
X8743355Y5340016D01*
X8776677D01*
X8793339Y5356677D01*
X8876645Y5340016D02*
Y5439984D01*
X8826661Y5390000D01*
X8893306D01*
X8683339Y6503323D02*
X8666678Y6519984D01*
X8633355D01*
X8616694Y6503323D01*
Y6436678D01*
X8633355Y6420016D01*
X8666678D01*
X8683339Y6436678D01*
X8716662Y6503323D02*
X8733323Y6519984D01*
X8766645D01*
X8783307Y6503323D01*
Y6486661D01*
X8766645Y6470000D01*
X8749984D01*
X8766645D01*
X8783307Y6453339D01*
Y6436678D01*
X8766645Y6420016D01*
X8733323D01*
X8716662Y6436678D01*
X8883339Y7523323D02*
X8866677Y7539984D01*
X8833355D01*
X8816694Y7523323D01*
Y7456677D01*
X8833355Y7440016D01*
X8866677D01*
X8883339Y7456677D01*
X8983306Y7440016D02*
X8916661D01*
X8983306Y7506661D01*
Y7523323D01*
X8966645Y7539984D01*
X8933323D01*
X8916661Y7523323D01*
X8890000Y7243323D02*
X8873339Y7259984D01*
X8840016D01*
X8823355Y7243323D01*
Y7176678D01*
X8840016Y7160016D01*
X8873339D01*
X8890000Y7176678D01*
X8923323Y7160016D02*
X8956645D01*
X8939984D01*
Y7259984D01*
X8923323Y7243323D01*
%TF.MD5,eb5a1b371b4c0fe6cb833039d5fe61cc*%
M02*
