%TF.GenerationSoftware,Altium Limited,Altium Designer,25.4.2 (15)*%
G04 Layer_Color=8388736*
%FSLAX45Y45*%
%MOMM*%
%TF.SameCoordinates,3CA1961E-9661-47C5-9BAE-CD2B19B8C498*%
%TF.FilePolarity,Negative*%
%TF.FileFunction,Soldermask,Top*%
%TF.Part,Single*%
G01*
G75*
%TA.AperFunction,SMDPad,CuDef*%
%ADD17R,1.27000X0.60960*%
%ADD18C,3.35614*%
%ADD20R,0.60960X1.27000*%
%ADD23C,3.68719*%
%ADD24R,0.50000X0.65000*%
G04:AMPARAMS|DCode=27|XSize=1.55439mm|YSize=0.57213mm|CornerRadius=0.28606mm|HoleSize=0mm|Usage=FLASHONLY|Rotation=0.000|XOffset=0mm|YOffset=0mm|HoleType=Round|Shape=RoundedRectangle|*
%AMROUNDEDRECTD27*
21,1,1.55439,0.00000,0,0,0.0*
21,1,0.98226,0.57213,0,0,0.0*
1,1,0.57213,0.49113,0.00000*
1,1,0.57213,-0.49113,0.00000*
1,1,0.57213,-0.49113,0.00000*
1,1,0.57213,0.49113,0.00000*
%
%ADD27ROUNDEDRECTD27*%
%ADD28R,1.55439X0.57213*%
%ADD29R,3.40000X2.10000*%
%ADD35R,1.30000X1.40000*%
G04:AMPARAMS|DCode=36|XSize=3.6mm|YSize=4.6mm|CornerRadius=0.054mm|HoleSize=0mm|Usage=FLASHONLY|Rotation=90.000|XOffset=0mm|YOffset=0mm|HoleType=Round|Shape=RoundedRectangle|*
%AMROUNDEDRECTD36*
21,1,3.60000,4.49200,0,0,90.0*
21,1,3.49200,4.60000,0,0,90.0*
1,1,0.10800,2.24600,1.74600*
1,1,0.10800,2.24600,-1.74600*
1,1,0.10800,-2.24600,-1.74600*
1,1,0.10800,-2.24600,1.74600*
%
%ADD36ROUNDEDRECTD36*%
G04:AMPARAMS|DCode=37|XSize=0.25mm|YSize=0.6mm|CornerRadius=0.05mm|HoleSize=0mm|Usage=FLASHONLY|Rotation=90.000|XOffset=0mm|YOffset=0mm|HoleType=Round|Shape=RoundedRectangle|*
%AMROUNDEDRECTD37*
21,1,0.25000,0.50000,0,0,90.0*
21,1,0.15000,0.60000,0,0,90.0*
1,1,0.10000,0.25000,0.07500*
1,1,0.10000,0.25000,-0.07500*
1,1,0.10000,-0.25000,-0.07500*
1,1,0.10000,-0.25000,0.07500*
%
%ADD37ROUNDEDRECTD37*%
G04:AMPARAMS|DCode=38|XSize=0.6mm|YSize=0.25mm|CornerRadius=0.05mm|HoleSize=0mm|Usage=FLASHONLY|Rotation=90.000|XOffset=0mm|YOffset=0mm|HoleType=Round|Shape=RoundedRectangle|*
%AMROUNDEDRECTD38*
21,1,0.60000,0.15000,0,0,90.0*
21,1,0.50000,0.25000,0,0,90.0*
1,1,0.10000,0.07500,0.25000*
1,1,0.10000,0.07500,-0.25000*
1,1,0.10000,-0.07500,-0.25000*
1,1,0.10000,-0.07500,0.25000*
%
%ADD38ROUNDEDRECTD38*%
%ADD40R,0.65000X0.50000*%
%TA.AperFunction,ComponentPad*%
%ADD47R,1.20000X1.20000*%
%ADD48C,1.20000*%
%TA.AperFunction,ViaPad*%
%ADD54C,0.50000*%
%TA.AperFunction,SMDPad,CuDef*%
%ADD60R,7.70000X3.20000*%
%ADD61R,1.75000X3.65000*%
%ADD62R,4.25000X4.25000*%
%ADD63R,1.10000X0.80000*%
%ADD64R,0.95000X0.95000*%
%ADD65R,0.95000X0.95000*%
%ADD66R,0.80000X1.10000*%
G04:AMPARAMS|DCode=67|XSize=3.2mm|YSize=4.2mm|CornerRadius=0.85mm|HoleSize=0mm|Usage=FLASHONLY|Rotation=90.000|XOffset=0mm|YOffset=0mm|HoleType=Round|Shape=RoundedRectangle|*
%AMROUNDEDRECTD67*
21,1,3.20000,2.50000,0,0,90.0*
21,1,1.50000,4.20000,0,0,90.0*
1,1,1.70000,1.25000,0.75000*
1,1,1.70000,1.25000,-0.75000*
1,1,1.70000,-1.25000,-0.75000*
1,1,1.70000,-1.25000,0.75000*
%
%ADD67ROUNDEDRECTD67*%
%ADD68R,3.65000X1.75000*%
G04:AMPARAMS|DCode=69|XSize=3.2mm|YSize=4.2mm|CornerRadius=0.85mm|HoleSize=0mm|Usage=FLASHONLY|Rotation=0.000|XOffset=0mm|YOffset=0mm|HoleType=Round|Shape=RoundedRectangle|*
%AMROUNDEDRECTD69*
21,1,3.20000,2.50000,0,0,0.0*
21,1,1.50000,4.20000,0,0,0.0*
1,1,1.70000,0.75000,-1.25000*
1,1,1.70000,-0.75000,-1.25000*
1,1,1.70000,-0.75000,1.25000*
1,1,1.70000,0.75000,1.25000*
%
%ADD69ROUNDEDRECTD69*%
%ADD70R,1.43000X1.19000*%
%ADD71R,1.05000X1.45000*%
%ADD72R,0.45000X0.85000*%
%ADD73R,0.85000X0.45000*%
%ADD74R,1.75000X1.05000*%
%ADD75R,0.90000X1.40000*%
%ADD76R,1.05000X1.75000*%
%TA.AperFunction,ComponentPad*%
%ADD77C,1.67000*%
G04:AMPARAMS|DCode=78|XSize=1.67mm|YSize=1.67mm|CornerRadius=0.455mm|HoleSize=0mm|Usage=FLASHONLY|Rotation=90.000|XOffset=0mm|YOffset=0mm|HoleType=Round|Shape=RoundedRectangle|*
%AMROUNDEDRECTD78*
21,1,1.67000,0.76000,0,0,90.0*
21,1,0.76000,1.67000,0,0,90.0*
1,1,0.91000,0.38000,0.38000*
1,1,0.91000,0.38000,-0.38000*
1,1,0.91000,-0.38000,-0.38000*
1,1,0.91000,-0.38000,0.38000*
%
%ADD78ROUNDEDRECTD78*%
%ADD79C,1.75000*%
G04:AMPARAMS|DCode=80|XSize=1.75mm|YSize=1.75mm|CornerRadius=0.475mm|HoleSize=0mm|Usage=FLASHONLY|Rotation=270.000|XOffset=0mm|YOffset=0mm|HoleType=Round|Shape=RoundedRectangle|*
%AMROUNDEDRECTD80*
21,1,1.75000,0.80000,0,0,270.0*
21,1,0.80000,1.75000,0,0,270.0*
1,1,0.95000,-0.40000,-0.40000*
1,1,0.95000,-0.40000,0.40000*
1,1,0.95000,0.40000,0.40000*
1,1,0.95000,0.40000,-0.40000*
%
%ADD80ROUNDEDRECTD80*%
%TA.AperFunction,ViaPad*%
%ADD81C,0.75000*%
G36*
X10057156Y8776648D02*
X10112156D01*
Y8726648D01*
X10057156D01*
Y8649648D01*
X10112156D01*
Y8599648D01*
X10057156D01*
Y8522648D01*
X10112156D01*
Y8472648D01*
X10057156D01*
Y8395648D01*
X10112156D01*
Y8345648D01*
X10057156D01*
Y8331148D01*
X9645156D01*
Y8791148D01*
X10057156D01*
Y8776648D01*
D02*
G37*
G36*
X9093500Y8142500D02*
X9079000D01*
Y8087500D01*
X9029000D01*
Y8142500D01*
X8952000D01*
Y8087500D01*
X8902000D01*
Y8142500D01*
X8825000D01*
Y8087500D01*
X8775000D01*
Y8142500D01*
X8698000D01*
Y8087500D01*
X8648000D01*
Y8142500D01*
X8633500D01*
Y8554500D01*
X9093500D01*
Y8142500D01*
D02*
G37*
G36*
X10095580Y7321400D02*
X10120980D01*
Y7219800D01*
X10060020D01*
Y7290920D01*
X9993980D01*
Y7219800D01*
X9933020D01*
Y7290920D01*
X9866980D01*
Y7219800D01*
X9806020D01*
Y7290920D01*
X9739980D01*
Y7219800D01*
X9679020D01*
Y7321400D01*
X9704420D01*
Y7671920D01*
X10095580D01*
Y7321400D01*
D02*
G37*
G36*
X12245580Y7221400D02*
X12270980D01*
Y7119800D01*
X12210020D01*
Y7190920D01*
X12143980D01*
Y7119800D01*
X12083020D01*
Y7190920D01*
X12016980D01*
Y7119800D01*
X11956020D01*
Y7190920D01*
X11889980D01*
Y7119800D01*
X11829020D01*
Y7221400D01*
X11854420D01*
Y7571920D01*
X12245580D01*
Y7221400D01*
D02*
G37*
G36*
X9134700Y7002080D02*
X9485220D01*
Y6610920D01*
X9134700D01*
Y6585520D01*
X9033100D01*
Y6646480D01*
X9104220D01*
Y6712520D01*
X9033100D01*
Y6773480D01*
X9104220D01*
Y6839520D01*
X9033100D01*
Y6900480D01*
X9104220D01*
Y6966520D01*
X9033100D01*
Y7027480D01*
X9134700D01*
Y7002080D01*
D02*
G37*
G36*
X12830200Y6860020D02*
X12759080D01*
Y6793980D01*
X12830200D01*
Y6733020D01*
X12759080D01*
Y6666980D01*
X12830200D01*
Y6606020D01*
X12759080D01*
Y6539980D01*
X12830200D01*
Y6479020D01*
X12728600D01*
Y6504420D01*
X12378080D01*
Y6895580D01*
X12728600D01*
Y6920980D01*
X12830200D01*
Y6860020D01*
D02*
G37*
G36*
X13072000Y6247500D02*
X13086501D01*
Y5835500D01*
X12626500D01*
Y6247500D01*
X12641000D01*
Y6302500D01*
X12691000D01*
Y6247500D01*
X12768000D01*
Y6302500D01*
X12817999D01*
Y6247500D01*
X12895000D01*
Y6302500D01*
X12945000D01*
Y6247500D01*
X13022000D01*
Y6302500D01*
X13072000D01*
Y6247500D01*
D02*
G37*
G36*
X11936500Y5504400D02*
X11986500D01*
Y5454400D01*
X11916500D01*
Y5484400D01*
X11886500D01*
Y5554400D01*
X11936500D01*
Y5504400D01*
D02*
G37*
G36*
X11736500Y5484400D02*
X11706500D01*
Y5454400D01*
X11636500D01*
Y5504400D01*
X11686500D01*
Y5554400D01*
X11736500D01*
Y5484400D01*
D02*
G37*
G36*
X11986500Y5254400D02*
X11936500D01*
Y5204400D01*
X11886500D01*
Y5274400D01*
X11916500D01*
Y5304400D01*
X11986500D01*
Y5254400D01*
D02*
G37*
G36*
X11706500Y5274400D02*
X11736500D01*
Y5204400D01*
X11686500D01*
Y5254400D01*
X11636500D01*
Y5304400D01*
X11706500D01*
Y5274400D01*
D02*
G37*
G36*
X13053500Y4942500D02*
X13039000D01*
Y4887500D01*
X12989000D01*
Y4942500D01*
X12912000D01*
Y4887500D01*
X12862000D01*
Y4942500D01*
X12785000D01*
Y4887500D01*
X12735000D01*
Y4942500D01*
X12658000D01*
Y4887500D01*
X12608000D01*
Y4942500D01*
X12593500D01*
Y5354500D01*
X13053500D01*
Y4942500D01*
D02*
G37*
D17*
X9630000Y6616000D02*
D03*
Y6743000D02*
D03*
Y6870000D02*
D03*
Y6997000D02*
D03*
X12233300Y6890500D02*
D03*
Y6763500D02*
D03*
Y6636500D02*
D03*
Y6509500D02*
D03*
D18*
X9298768Y6799594D02*
D03*
X12056906Y7385468D02*
D03*
X9906906Y7485468D02*
D03*
X12564532Y6706906D02*
D03*
D20*
X12240500Y7716700D02*
D03*
X12113500D02*
D03*
X11986500D02*
D03*
X11859500D02*
D03*
X10090500Y7816700D02*
D03*
X9963500D02*
D03*
X9836500D02*
D03*
X9709500D02*
D03*
D23*
X8867094Y8349656D02*
D03*
X12852905Y6040344D02*
D03*
X12827094Y5149656D02*
D03*
X9850000Y8564742D02*
D03*
D24*
X8673000Y8670000D02*
D03*
X8800000D02*
D03*
X8927000D02*
D03*
X9054000D02*
D03*
X13047000Y5720000D02*
D03*
X12920000D02*
D03*
X12793000D02*
D03*
X12666000D02*
D03*
X12633000Y5470000D02*
D03*
X12760000D02*
D03*
X12887000D02*
D03*
X13014000D02*
D03*
D27*
X14360030Y8095000D02*
D03*
Y8000000D02*
D03*
Y7905000D02*
D03*
X14139970D02*
D03*
Y8000000D02*
D03*
D28*
Y8095000D02*
D03*
D29*
X13489999Y5925000D02*
D03*
Y6555000D02*
D03*
D35*
X11645000Y6700000D02*
D03*
X11355000D02*
D03*
X10545000D02*
D03*
X10255000D02*
D03*
D36*
X10953801Y5975200D02*
D03*
D37*
X10663801Y5800200D02*
D03*
Y5850200D02*
D03*
Y5900200D02*
D03*
Y5950200D02*
D03*
Y6000200D02*
D03*
Y6050200D02*
D03*
Y6100200D02*
D03*
Y6150200D02*
D03*
X11243800D02*
D03*
Y6100200D02*
D03*
Y6050200D02*
D03*
Y6000200D02*
D03*
Y5950200D02*
D03*
Y5900200D02*
D03*
Y5850200D02*
D03*
Y5800200D02*
D03*
D38*
X10728800Y6215200D02*
D03*
X10778801D02*
D03*
X10828801D02*
D03*
X10878800D02*
D03*
X10928801D02*
D03*
X10978800D02*
D03*
X11028801D02*
D03*
X11078801D02*
D03*
X11128800D02*
D03*
X11178801D02*
D03*
Y5735200D02*
D03*
X11128800D02*
D03*
X11078801D02*
D03*
X11028801D02*
D03*
X10978800D02*
D03*
X10928801D02*
D03*
X10878800D02*
D03*
X10828801D02*
D03*
X10778801D02*
D03*
X10728800D02*
D03*
D40*
X9529656Y8751648D02*
D03*
Y8624648D02*
D03*
Y8497648D02*
D03*
Y8370648D02*
D03*
D47*
X10681331Y5284549D02*
D03*
D48*
X10881331D02*
D03*
D54*
X11158800Y6036700D02*
D03*
Y5913700D02*
D03*
X10748801Y6036700D02*
D03*
Y5913700D02*
D03*
X10953801Y6036700D02*
D03*
Y5913700D02*
D03*
X11069801Y6036700D02*
D03*
Y5913700D02*
D03*
X10837801Y6036700D02*
D03*
Y5913700D02*
D03*
Y6130200D02*
D03*
Y5820200D02*
D03*
X11069801Y6130200D02*
D03*
Y5820200D02*
D03*
X10953801Y6130200D02*
D03*
Y5820200D02*
D03*
D60*
X13199995Y8000000D02*
D03*
X13200000Y8500000D02*
D03*
D61*
X14100000Y6930000D02*
D03*
Y6370000D02*
D03*
D62*
X11425000Y7450000D02*
D03*
X10475000D02*
D03*
D63*
X14330000Y5795000D02*
D03*
Y5945000D02*
D03*
X11380000Y5665000D02*
D03*
Y5815000D02*
D03*
X11804400Y4930600D02*
D03*
Y5080600D02*
D03*
X11949200Y4930600D02*
D03*
Y5080600D02*
D03*
X14600002Y8025000D02*
D03*
Y7875000D02*
D03*
X14750002D02*
D03*
Y8025000D02*
D03*
X13400000Y5725000D02*
D03*
Y5575000D02*
D03*
X11176000Y5233600D02*
D03*
Y5383600D02*
D03*
X10150000Y5875000D02*
D03*
Y6025000D02*
D03*
D64*
X14010001Y5795000D02*
D03*
Y5645000D02*
D03*
X14330000Y5535000D02*
D03*
Y5385000D02*
D03*
X13739999Y8015000D02*
D03*
Y7865000D02*
D03*
X13870000Y8015000D02*
D03*
Y7865000D02*
D03*
X11507800Y5304400D02*
D03*
Y5454400D02*
D03*
X10890000Y6495000D02*
D03*
Y6645000D02*
D03*
X11020000Y6495000D02*
D03*
Y6645000D02*
D03*
X8370000Y5635000D02*
D03*
Y5485000D02*
D03*
X8240000Y5635000D02*
D03*
Y5485000D02*
D03*
X11650000Y6345000D02*
D03*
Y6495000D02*
D03*
D65*
X13255000Y5380000D02*
D03*
X13405000D02*
D03*
X11511500Y5645091D02*
D03*
X11661500D02*
D03*
X14395000Y8260000D02*
D03*
X14245000D02*
D03*
X11670100Y5092700D02*
D03*
X11520100D02*
D03*
X11670100Y4953000D02*
D03*
X11520100D02*
D03*
X10300000Y6300000D02*
D03*
X10150000D02*
D03*
X10300000Y6150000D02*
D03*
X10150000D02*
D03*
X10495000Y6010000D02*
D03*
X10345000D02*
D03*
X10425000Y6450000D02*
D03*
X10575000D02*
D03*
D66*
X9355000Y5030000D02*
D03*
X9505000D02*
D03*
X9725000D02*
D03*
X9875000D02*
D03*
X10138608Y5044064D02*
D03*
X10288609D02*
D03*
X11655000Y5810000D02*
D03*
X11505000D02*
D03*
X11327200Y5105400D02*
D03*
X11177200D02*
D03*
X10300676Y5700000D02*
D03*
X10450676D02*
D03*
X11131034Y5547275D02*
D03*
X11281034D02*
D03*
X10300676Y5562600D02*
D03*
X10450676D02*
D03*
Y5850000D02*
D03*
X10300676D02*
D03*
D67*
X14800000Y6944643D02*
D03*
X14800000Y6000000D02*
D03*
X8370000D02*
D03*
X8390000Y5140000D02*
D03*
D68*
X12972301Y7420410D02*
D03*
X13532300D02*
D03*
X8120109Y6940200D02*
D03*
X8680109D02*
D03*
X8120000Y7690000D02*
D03*
X8680000D02*
D03*
D69*
X10350000Y8500000D02*
D03*
X8140000Y8460000D02*
D03*
D70*
X14439999Y7500000D02*
D03*
X14160001D02*
D03*
X12170000Y8000000D02*
D03*
X12450000D02*
D03*
D71*
X13895000Y8500000D02*
D03*
X13705000D02*
D03*
X13895000Y8300000D02*
D03*
X13705000D02*
D03*
D72*
X11761500Y5249400D02*
D03*
X11811500D02*
D03*
X11861500D02*
D03*
Y5509400D02*
D03*
X11811500D02*
D03*
X11761500D02*
D03*
D73*
X11681500Y5429400D02*
D03*
Y5379400D02*
D03*
Y5329400D02*
D03*
X11941500D02*
D03*
Y5379400D02*
D03*
Y5429400D02*
D03*
D74*
X14750000Y6655000D02*
D03*
Y6345000D02*
D03*
X8560000Y5395000D02*
D03*
Y5705000D02*
D03*
D75*
X9314956Y8702179D02*
D03*
Y8372179D02*
D03*
D76*
X8195000Y6460000D02*
D03*
X8505000D02*
D03*
D77*
X9360000Y5607000D02*
D03*
X10085450Y5608764D02*
D03*
X9700000Y5607000D02*
D03*
D78*
X9360000Y5353000D02*
D03*
X10085450Y5354764D02*
D03*
X9700000Y5353000D02*
D03*
D79*
X12306300Y5588000D02*
D03*
Y5334000D02*
D03*
Y5080000D02*
D03*
D80*
Y5842000D02*
D03*
D81*
X14700003Y8400001D02*
D03*
X14875003Y8050001D02*
D03*
X14700003Y7700001D02*
D03*
X14875003Y7350001D02*
D03*
X14700003Y5600001D02*
D03*
X14875003Y5250001D02*
D03*
X14700003Y4900001D02*
D03*
X14350003Y8400001D02*
D03*
Y7700001D02*
D03*
X14525002Y7350001D02*
D03*
X14350003Y7000001D02*
D03*
X14525002Y6650001D02*
D03*
Y5250001D02*
D03*
X14350003Y4900001D02*
D03*
X14000002Y8400001D02*
D03*
X14175002Y7350001D02*
D03*
Y5250001D02*
D03*
X14000002Y4900001D02*
D03*
X13825002Y7350001D02*
D03*
X13650002Y7000001D02*
D03*
X13825002Y5950001D02*
D03*
X13650002Y5600001D02*
D03*
X13825002Y5250001D02*
D03*
X13650002Y4900001D02*
D03*
X13300002Y7000001D02*
D03*
X13475002Y5250001D02*
D03*
X13300002Y4900001D02*
D03*
X12250002Y8400001D02*
D03*
X12425002Y7350001D02*
D03*
X11900002Y8400001D02*
D03*
X11550002D02*
D03*
X11200002D02*
D03*
Y7000001D02*
D03*
X10850002Y8400001D02*
D03*
X11025002Y8050001D02*
D03*
X10850002Y7700001D02*
D03*
X11025002Y7350001D02*
D03*
X10850002Y7000001D02*
D03*
X10675002Y8050001D02*
D03*
X10325002D02*
D03*
Y5250001D02*
D03*
X9975002Y8050001D02*
D03*
X9800002Y6300001D02*
D03*
X9975002Y5950001D02*
D03*
Y5250001D02*
D03*
X9625002Y5950001D02*
D03*
X9275002Y8050001D02*
D03*
X8750002Y4900001D02*
D03*
X8400001D02*
D03*
X8225001Y8050001D02*
D03*
Y7350001D02*
D03*
Y6650001D02*
D03*
X8050001Y6300001D02*
D03*
Y5600001D02*
D03*
Y4900001D02*
D03*
%TF.MD5,a18fd0d0b58999160e9bcee865e5cb97*%
M02*
